M48
METRIC,LZ,000.000
;FILE_FORMAT=3:3
;TYPE=PLATED
;Layer: Drill PTH
;EasyEDA v6.4.19.3, 2021-04-15T18:17:59+02:00
;27ca5f04d03341a3abaed076034c1fd4,b26f2b340a5143eda07d108a38fc4859,10
;Gerber Generator version 0.2
;Holesize 1 = 0.305 mm
T01C0.305
;Holesize 2 = 0.306 mm
T02C0.306
;Holesize 3 = 0.889 mm
T03C0.889
;Holesize 4 = 1.001 mm
T04C1.001
;Holesize 5 = 1.101 mm
T05C1.101
;Holesize 6 = 1.200 mm
T06C1.200
;Holesize 7 = 1.301 mm
T07C1.301
%
G05
G90
T01
X033528Y077978
X055499Y032639
X059563Y058801
X023622Y061849
X052197Y044831
X058293Y042164
X059563Y042799
X041148Y051181
X041148Y049911
X036449Y038354
X041275Y056261
X031496Y055753
X032512Y048641
X032512Y042037
X032512Y045720
X032512Y052070
T02
X042465Y063963
X047545Y069043
X047545Y063963
X047545Y058883
X052625Y074123
X052625Y069043
X052625Y063963
X062785Y074123
X061577Y061596
X012035Y064061
X012035Y058981
X012035Y053901
X012035Y048821
X008070Y075849
X008070Y025049
X013150Y080929
X013150Y075849
X013150Y019969
X018230Y080929
X018230Y075849
X023310Y080929
X023310Y075849
X023310Y019969
X028390Y075849
X028390Y070769
X028390Y030129
X028390Y019969
X033470Y030129
X038550Y075849
X038550Y070769
X038550Y065689
X038550Y030129
X038550Y019969
X043630Y045369
X043630Y030129
X043630Y019969
X048710Y045369
X048710Y025049
X048710Y019969
X053790Y055529
X053790Y050449
X058870Y040289
X063950Y080929
X069030Y060609
X069030Y055529
X069030Y035209
X042465Y063963
X047545Y069043
X047545Y063963
X047545Y058883
X052625Y074123
X052625Y069043
X052625Y063963
X062785Y074123
X061577Y061596
X012035Y064061
X012035Y058981
X012035Y053901
X012035Y048821
X008070Y075849
X008070Y025049
X013150Y080929
X013150Y075849
X013150Y019969
X018230Y080929
X018230Y075849
X023310Y080929
X023310Y075849
X023310Y019969
X028390Y075849
X028390Y070769
X028390Y030129
X028390Y019969
X033470Y030129
X038550Y075849
X038550Y070769
X038550Y065689
X038550Y030129
X038550Y019969
X043630Y045369
X043630Y030129
X043630Y019969
X048710Y045369
X048710Y025049
X048710Y019969
X053790Y055529
X053790Y050449
X058870Y040289
X063950Y080929
X069030Y060609
X069030Y055529
X069030Y035209
T03
X022098Y033020
X019558Y033020
X017018Y033020
X014478Y033020
X011938Y033020
X009398Y033020
X021971Y071247
X019431Y071247
X016891Y071247
X014351Y071247
X011811Y071247
X009271Y071247
X062230Y041402
X062230Y043942
X062230Y046482
X062230Y049022
X062230Y051562
X062230Y054102
X062230Y056642
X062230Y059182
X067183Y062865
X067183Y065405
X067183Y067945
X067183Y070485
X067183Y073025
X062357Y078613
X059817Y078613
X057277Y078613
X054737Y078613
T04
X069469Y046355
X069469Y048895
X069469Y051435
X069469Y053975
T05
X009779Y028575
X009779Y026035
T06
X019558Y026162
X019558Y021082
X033147Y026162
X033147Y021082
T07
X019431Y060325
X014351Y059055
X019431Y057785
X014351Y056515
X019431Y055245
X014351Y053975
X019431Y052705
X014351Y051435
X019431Y050165
X014351Y048895
X019431Y047625
X014351Y046355
X019431Y045085
X014351Y043815
X019431Y042545
M30
