G04 Layer: BottomSilkLayer*
G04 EasyEDA v6.4.19.3, 2021-04-15T18:17:59+02:00*
G04 27ca5f04d03341a3abaed076034c1fd4,b26f2b340a5143eda07d108a38fc4859,10*
G04 Gerber Generator version 0.2*
G04 Scale: 100 percent, Rotated: No, Reflected: No *
G04 Dimensions in millimeters *
G04 leading zeros omitted , absolute positions ,4 integer and 5 decimal *
%FSLAX45Y45*%
%MOMM*%

%ADD40C,0.2032*%

%LPD*%
D40*
X4902200Y5818446D02*
G01*
X4902200Y5624484D01*
X4902200Y5818446D02*
G01*
X4819073Y5818446D01*
X4791364Y5809211D01*
X4782126Y5799975D01*
X4772891Y5781502D01*
X4772891Y5763028D01*
X4782126Y5744555D01*
X4791364Y5735320D01*
X4819073Y5726084D01*
X4902200Y5726084D01*
X4837544Y5726084D02*
G01*
X4772891Y5624484D01*
X4711931Y5818446D02*
G01*
X4711931Y5624484D01*
X4711931Y5818446D02*
G01*
X4591857Y5818446D01*
X4711931Y5726084D02*
G01*
X4638040Y5726084D01*
X4711931Y5624484D02*
G01*
X4591857Y5624484D01*
X4466244Y5818446D02*
G01*
X4466244Y5624484D01*
X4530897Y5818446D02*
G01*
X4401588Y5818446D01*
X4266737Y5818446D02*
G01*
X4340628Y5624484D01*
X4266737Y5818446D02*
G01*
X4192846Y5624484D01*
X4312920Y5689137D02*
G01*
X4220555Y5689137D01*
X4131886Y5818446D02*
G01*
X4131886Y5624484D01*
X4131886Y5818446D02*
G01*
X4002577Y5624484D01*
X4002577Y5818446D02*
G01*
X4002577Y5624484D01*
X3941617Y5818446D02*
G01*
X3941617Y5624484D01*
X3812308Y5818446D02*
G01*
X3941617Y5689137D01*
X3895435Y5735320D02*
G01*
X3812308Y5624484D01*
X3609108Y5818446D02*
G01*
X3535217Y5624484D01*
X3461326Y5818446D02*
G01*
X3535217Y5624484D01*
X3391131Y5772264D02*
G01*
X3391131Y5781502D01*
X3381895Y5799975D01*
X3372657Y5809211D01*
X3354184Y5818446D01*
X3317240Y5818446D01*
X3298766Y5809211D01*
X3289531Y5799975D01*
X3280295Y5781502D01*
X3280295Y5763028D01*
X3289531Y5744555D01*
X3308004Y5716846D01*
X3400366Y5624484D01*
X3271057Y5624484D01*
X3200862Y5670664D02*
G01*
X3210097Y5661428D01*
X3200862Y5652193D01*
X3191624Y5661428D01*
X3200862Y5670664D01*
X3075246Y5818446D02*
G01*
X3102955Y5809211D01*
X3121428Y5781502D01*
X3130664Y5735320D01*
X3130664Y5707611D01*
X3121428Y5661428D01*
X3102955Y5633720D01*
X3075246Y5624484D01*
X3056775Y5624484D01*
X3029064Y5633720D01*
X3010593Y5661428D01*
X3001355Y5707611D01*
X3001355Y5735320D01*
X3010593Y5781502D01*
X3029064Y5809211D01*
X3056775Y5818446D01*
X3075246Y5818446D01*
X5817755Y4781664D02*
G01*
X5826991Y4800137D01*
X5845464Y4818611D01*
X5863935Y4827846D01*
X5900882Y4827846D01*
X5919355Y4818611D01*
X5937826Y4800137D01*
X5947064Y4781664D01*
X5956300Y4753955D01*
X5956300Y4707775D01*
X5947064Y4680064D01*
X5937826Y4661593D01*
X5919355Y4643120D01*
X5900882Y4633884D01*
X5863935Y4633884D01*
X5845464Y4643120D01*
X5826991Y4661593D01*
X5817755Y4680064D01*
X5756795Y4763193D02*
G01*
X5756795Y4633884D01*
X5756795Y4707775D02*
G01*
X5747557Y4735484D01*
X5729084Y4753955D01*
X5710613Y4763193D01*
X5682904Y4763193D01*
X5621944Y4707775D02*
G01*
X5511106Y4707775D01*
X5511106Y4726246D01*
X5520344Y4744720D01*
X5529579Y4753955D01*
X5548053Y4763193D01*
X5575762Y4763193D01*
X5594235Y4753955D01*
X5612706Y4735484D01*
X5621944Y4707775D01*
X5621944Y4689302D01*
X5612706Y4661593D01*
X5594235Y4643120D01*
X5575762Y4633884D01*
X5548053Y4633884D01*
X5529579Y4643120D01*
X5511106Y4661593D01*
X5339311Y4763193D02*
G01*
X5339311Y4633884D01*
X5339311Y4735484D02*
G01*
X5357784Y4753955D01*
X5376255Y4763193D01*
X5403964Y4763193D01*
X5422437Y4753955D01*
X5440911Y4735484D01*
X5450146Y4707775D01*
X5450146Y4689302D01*
X5440911Y4661593D01*
X5422437Y4643120D01*
X5403964Y4633884D01*
X5376255Y4633884D01*
X5357784Y4643120D01*
X5339311Y4661593D01*
X5250642Y4827846D02*
G01*
X5250642Y4670828D01*
X5241404Y4643120D01*
X5222933Y4633884D01*
X5204459Y4633884D01*
X5278351Y4763193D02*
G01*
X5213695Y4763193D01*
X5143500Y4707775D02*
G01*
X5032664Y4707775D01*
X5032664Y4726246D01*
X5041900Y4744720D01*
X5051135Y4753955D01*
X5069608Y4763193D01*
X5097317Y4763193D01*
X5115791Y4753955D01*
X5134264Y4735484D01*
X5143500Y4707775D01*
X5143500Y4689302D01*
X5134264Y4661593D01*
X5115791Y4643120D01*
X5097317Y4633884D01*
X5069608Y4633884D01*
X5051135Y4643120D01*
X5032664Y4661593D01*
X4860866Y4827846D02*
G01*
X4860866Y4633884D01*
X4860866Y4735484D02*
G01*
X4879340Y4753955D01*
X4897813Y4763193D01*
X4925522Y4763193D01*
X4943995Y4753955D01*
X4962466Y4735484D01*
X4971704Y4707775D01*
X4971704Y4689302D01*
X4962466Y4661593D01*
X4943995Y4643120D01*
X4925522Y4633884D01*
X4897813Y4633884D01*
X4879340Y4643120D01*
X4860866Y4661593D01*
X4657666Y4827846D02*
G01*
X4657666Y4633884D01*
X4657666Y4735484D02*
G01*
X4639195Y4753955D01*
X4620722Y4763193D01*
X4593013Y4763193D01*
X4574540Y4753955D01*
X4556066Y4735484D01*
X4546831Y4707775D01*
X4546831Y4689302D01*
X4556066Y4661593D01*
X4574540Y4643120D01*
X4593013Y4633884D01*
X4620722Y4633884D01*
X4639195Y4643120D01*
X4657666Y4661593D01*
X4476635Y4763193D02*
G01*
X4421215Y4633884D01*
X4365797Y4763193D02*
G01*
X4421215Y4633884D01*
X4439688Y4596937D01*
X4458162Y4578464D01*
X4476635Y4569228D01*
X4485871Y4569228D01*
X4162597Y4827846D02*
G01*
X4162597Y4633884D01*
X4162597Y4827846D02*
G01*
X4088706Y4633884D01*
X4014815Y4827846D02*
G01*
X4088706Y4633884D01*
X4014815Y4827846D02*
G01*
X4014815Y4633884D01*
X3843020Y4763193D02*
G01*
X3843020Y4633884D01*
X3843020Y4735484D02*
G01*
X3861493Y4753955D01*
X3879964Y4763193D01*
X3907675Y4763193D01*
X3926146Y4753955D01*
X3944620Y4735484D01*
X3953855Y4707775D01*
X3953855Y4689302D01*
X3944620Y4661593D01*
X3926146Y4643120D01*
X3907675Y4633884D01*
X3879964Y4633884D01*
X3861493Y4643120D01*
X3843020Y4661593D01*
X3782059Y4763193D02*
G01*
X3782059Y4633884D01*
X3782059Y4707775D02*
G01*
X3772824Y4735484D01*
X3754351Y4753955D01*
X3735877Y4763193D01*
X3708168Y4763193D01*
X3536373Y4735484D02*
G01*
X3554844Y4753955D01*
X3573317Y4763193D01*
X3601026Y4763193D01*
X3619500Y4753955D01*
X3637973Y4735484D01*
X3647208Y4707775D01*
X3647208Y4689302D01*
X3637973Y4661593D01*
X3619500Y4643120D01*
X3601026Y4633884D01*
X3573317Y4633884D01*
X3554844Y4643120D01*
X3536373Y4661593D01*
X3475413Y4827846D02*
G01*
X3466175Y4818611D01*
X3456940Y4827846D01*
X3466175Y4837084D01*
X3475413Y4827846D01*
X3466175Y4763193D02*
G01*
X3466175Y4633884D01*
X3395979Y4763193D02*
G01*
X3395979Y4633884D01*
X3395979Y4726246D02*
G01*
X3368271Y4753955D01*
X3349797Y4763193D01*
X3322088Y4763193D01*
X3303615Y4753955D01*
X3294379Y4726246D01*
X3294379Y4633884D01*
X3091179Y4827846D02*
G01*
X3091179Y4633884D01*
X3091179Y4827846D02*
G01*
X3008053Y4827846D01*
X2980344Y4818611D01*
X2971106Y4809375D01*
X2961871Y4790902D01*
X2961871Y4772428D01*
X2971106Y4753955D01*
X2980344Y4744720D01*
X3008053Y4735484D01*
X3091179Y4735484D02*
G01*
X3008053Y4735484D01*
X2980344Y4726246D01*
X2971106Y4717011D01*
X2961871Y4698537D01*
X2961871Y4670828D01*
X2971106Y4652355D01*
X2980344Y4643120D01*
X3008053Y4633884D01*
X3091179Y4633884D01*
X2854728Y4763193D02*
G01*
X2873202Y4753955D01*
X2891675Y4735484D01*
X2900911Y4707775D01*
X2900911Y4689302D01*
X2891675Y4661593D01*
X2873202Y4643120D01*
X2854728Y4633884D01*
X2827020Y4633884D01*
X2808546Y4643120D01*
X2790075Y4661593D01*
X2780837Y4689302D01*
X2780837Y4707775D01*
X2790075Y4735484D01*
X2808546Y4753955D01*
X2827020Y4763193D01*
X2854728Y4763193D01*
X2719877Y4827846D02*
G01*
X2719877Y4633884D01*
X2719877Y4735484D02*
G01*
X2701404Y4753955D01*
X2682933Y4763193D01*
X2655224Y4763193D01*
X2636751Y4753955D01*
X2618277Y4735484D01*
X2609042Y4707775D01*
X2609042Y4689302D01*
X2618277Y4661593D01*
X2636751Y4643120D01*
X2655224Y4633884D01*
X2682933Y4633884D01*
X2701404Y4643120D01*
X2719877Y4661593D01*
X2548082Y4707775D02*
G01*
X2437244Y4707775D01*
X2437244Y4726246D01*
X2446482Y4744720D01*
X2455717Y4753955D01*
X2474191Y4763193D01*
X2501900Y4763193D01*
X2520373Y4753955D01*
X2538844Y4735484D01*
X2548082Y4707775D01*
X2548082Y4689302D01*
X2538844Y4661593D01*
X2520373Y4643120D01*
X2501900Y4633884D01*
X2474191Y4633884D01*
X2455717Y4643120D01*
X2437244Y4661593D01*
X2376284Y4763193D02*
G01*
X2376284Y4633884D01*
X2376284Y4707775D02*
G01*
X2367048Y4735484D01*
X2348575Y4753955D01*
X2330104Y4763193D01*
X2302395Y4763193D01*
X1739900Y2948246D02*
G01*
X1666008Y2754284D01*
X1592117Y2948246D02*
G01*
X1666008Y2754284D01*
X1392613Y2902064D02*
G01*
X1401848Y2920537D01*
X1420322Y2939011D01*
X1438795Y2948246D01*
X1475739Y2948246D01*
X1494213Y2939011D01*
X1512684Y2920537D01*
X1521922Y2902064D01*
X1531157Y2874355D01*
X1531157Y2828175D01*
X1521922Y2800464D01*
X1512684Y2781993D01*
X1494213Y2763520D01*
X1475739Y2754284D01*
X1438795Y2754284D01*
X1420322Y2763520D01*
X1401848Y2781993D01*
X1392613Y2800464D01*
X1193106Y2902064D02*
G01*
X1202344Y2920537D01*
X1220815Y2939011D01*
X1239288Y2948246D01*
X1276235Y2948246D01*
X1294706Y2939011D01*
X1313179Y2920537D01*
X1322415Y2902064D01*
X1331653Y2874355D01*
X1331653Y2828175D01*
X1322415Y2800464D01*
X1313179Y2781993D01*
X1294706Y2763520D01*
X1276235Y2754284D01*
X1239288Y2754284D01*
X1220815Y2763520D01*
X1202344Y2781993D01*
X1193106Y2800464D01*
X1563255Y2609964D02*
G01*
X1572491Y2628437D01*
X1590964Y2646911D01*
X1609435Y2656146D01*
X1646382Y2656146D01*
X1664855Y2646911D01*
X1683326Y2628437D01*
X1692564Y2609964D01*
X1701800Y2582255D01*
X1701800Y2536075D01*
X1692564Y2508364D01*
X1683326Y2489893D01*
X1664855Y2471420D01*
X1646382Y2462184D01*
X1609435Y2462184D01*
X1590964Y2471420D01*
X1572491Y2489893D01*
X1563255Y2508364D01*
X1563255Y2536075D01*
X1609435Y2536075D02*
G01*
X1563255Y2536075D01*
X1502295Y2656146D02*
G01*
X1502295Y2462184D01*
X1502295Y2656146D02*
G01*
X1372984Y2462184D01*
X1372984Y2656146D02*
G01*
X1372984Y2462184D01*
X1312024Y2656146D02*
G01*
X1312024Y2462184D01*
X1312024Y2656146D02*
G01*
X1247371Y2656146D01*
X1219662Y2646911D01*
X1201188Y2628437D01*
X1191953Y2609964D01*
X1182715Y2582255D01*
X1182715Y2536075D01*
X1191953Y2508364D01*
X1201188Y2489893D01*
X1219662Y2471420D01*
X1247371Y2462184D01*
X1312024Y2462184D01*
X6692900Y4671984D02*
G01*
X6663804Y4595611D01*
X6634711Y4671984D02*
G01*
X6663804Y4595611D01*
X6556156Y4653800D02*
G01*
X6559791Y4661072D01*
X6567065Y4668347D01*
X6574340Y4671984D01*
X6588886Y4671984D01*
X6596161Y4668347D01*
X6603433Y4661072D01*
X6607070Y4653800D01*
X6610708Y4642888D01*
X6610708Y4624704D01*
X6607070Y4613795D01*
X6603433Y4606521D01*
X6596161Y4599246D01*
X6588886Y4595611D01*
X6574340Y4595611D01*
X6567065Y4599246D01*
X6559791Y4606521D01*
X6556156Y4613795D01*
X6477599Y4653800D02*
G01*
X6481236Y4661072D01*
X6488511Y4668347D01*
X6495783Y4671984D01*
X6510332Y4671984D01*
X6517604Y4668347D01*
X6524879Y4661072D01*
X6528516Y4653800D01*
X6532153Y4642888D01*
X6532153Y4624704D01*
X6528516Y4613795D01*
X6524879Y4606521D01*
X6517604Y4599246D01*
X6510332Y4595611D01*
X6495783Y4595611D01*
X6488511Y4599246D01*
X6481236Y4606521D01*
X6477599Y4613795D01*
X6667441Y4925984D02*
G01*
X6667441Y4849611D01*
X6692900Y4925984D02*
G01*
X6641985Y4925984D01*
X6617982Y4925984D02*
G01*
X6617982Y4849611D01*
X6617982Y4925984D02*
G01*
X6585249Y4925984D01*
X6574340Y4922347D01*
X6570703Y4918710D01*
X6567065Y4911435D01*
X6567065Y4904163D01*
X6570703Y4896888D01*
X6574340Y4893251D01*
X6585249Y4889616D01*
X6617982Y4889616D01*
X6592524Y4889616D02*
G01*
X6567065Y4849611D01*
X6543062Y4925984D02*
G01*
X6543062Y4849611D01*
X6464508Y4907800D02*
G01*
X6468145Y4915072D01*
X6475417Y4922347D01*
X6482692Y4925984D01*
X6497238Y4925984D01*
X6504513Y4922347D01*
X6511785Y4915072D01*
X6515422Y4907800D01*
X6519059Y4896888D01*
X6519059Y4878704D01*
X6515422Y4867795D01*
X6511785Y4860521D01*
X6504513Y4853246D01*
X6497238Y4849611D01*
X6482692Y4849611D01*
X6475417Y4853246D01*
X6468145Y4860521D01*
X6464508Y4867795D01*
X6464508Y4878704D01*
X6482692Y4878704D02*
G01*
X6464508Y4878704D01*
X6696445Y5194472D02*
G01*
X6696445Y5118100D01*
X6696445Y5194472D02*
G01*
X6649166Y5194472D01*
X6696445Y5158104D02*
G01*
X6667350Y5158104D01*
X6696445Y5118100D02*
G01*
X6649166Y5118100D01*
X6570611Y5176288D02*
G01*
X6574246Y5183563D01*
X6581520Y5190835D01*
X6588795Y5194472D01*
X6603342Y5194472D01*
X6610616Y5190835D01*
X6617888Y5183563D01*
X6621525Y5176288D01*
X6625163Y5165379D01*
X6625163Y5147193D01*
X6621525Y5136283D01*
X6617888Y5129009D01*
X6610616Y5121737D01*
X6603342Y5118100D01*
X6588795Y5118100D01*
X6581520Y5121737D01*
X6574246Y5129009D01*
X6570611Y5136283D01*
X6546608Y5194472D02*
G01*
X6546608Y5118100D01*
X6495691Y5194472D02*
G01*
X6495691Y5118100D01*
X6546608Y5158104D02*
G01*
X6495691Y5158104D01*
X6449867Y5194472D02*
G01*
X6457142Y5190835D01*
X6464416Y5183563D01*
X6468051Y5176288D01*
X6471688Y5165379D01*
X6471688Y5147193D01*
X6468051Y5136283D01*
X6464416Y5129009D01*
X6457142Y5121737D01*
X6449867Y5118100D01*
X6435321Y5118100D01*
X6428046Y5121737D01*
X6420774Y5129009D01*
X6417137Y5136283D01*
X6413500Y5147193D01*
X6413500Y5165379D01*
X6417137Y5176288D01*
X6420774Y5183563D01*
X6428046Y5190835D01*
X6435321Y5194472D01*
X6449867Y5194472D01*
X6639537Y5430288D02*
G01*
X6643174Y5437563D01*
X6650446Y5444835D01*
X6657720Y5448472D01*
X6672267Y5448472D01*
X6679542Y5444835D01*
X6686816Y5437563D01*
X6690451Y5430288D01*
X6694088Y5419379D01*
X6694088Y5401195D01*
X6690451Y5390283D01*
X6686816Y5383009D01*
X6679542Y5375737D01*
X6672267Y5372100D01*
X6657720Y5372100D01*
X6650446Y5375737D01*
X6643174Y5383009D01*
X6639537Y5390283D01*
X6639537Y5401195D01*
X6657720Y5401195D02*
G01*
X6639537Y5401195D01*
X6615534Y5448472D02*
G01*
X6615534Y5372100D01*
X6615534Y5448472D02*
G01*
X6564617Y5372100D01*
X6564617Y5448472D02*
G01*
X6564617Y5372100D01*
X6540614Y5448472D02*
G01*
X6540614Y5372100D01*
X6540614Y5448472D02*
G01*
X6515158Y5448472D01*
X6504246Y5444835D01*
X6496974Y5437563D01*
X6493337Y5430288D01*
X6489700Y5419379D01*
X6489700Y5401195D01*
X6493337Y5390283D01*
X6496974Y5383009D01*
X6504246Y5375737D01*
X6515158Y5372100D01*
X6540614Y5372100D01*
M02*
