G04 Layer: TopLayer*
G04 EasyEDA v6.4.19.3, 2021-04-15T18:17:59+02:00*
G04 27ca5f04d03341a3abaed076034c1fd4,b26f2b340a5143eda07d108a38fc4859,10*
G04 Gerber Generator version 0.2*
G04 Scale: 100 percent, Rotated: No, Reflected: No *
G04 Dimensions in millimeters *
G04 leading zeros omitted , absolute positions ,4 integer and 5 decimal *
%FSLAX45Y45*%
%MOMM*%

%ADD10C,0.2540*%
%ADD11C,0.9000*%
%ADD12C,1.0000*%
%ADD13C,0.4000*%
%ADD14C,0.2300*%
%ADD15C,0.6200*%
%ADD16C,0.6100*%
%ADD17C,0.6096*%
%ADD18R,1.8000X1.0000*%
%ADD19R,0.8999X1.0000*%
%ADD20R,1.0000X1.5500*%
%ADD22R,1.6000X3.0000*%
%ADD24R,1.5500X1.0000*%
%ADD27R,1.3995X1.3005*%
%ADD31C,2.0000*%
%ADD32R,1.6000X2.0000*%
%ADD33C,1.5748*%
%ADD34R,1.5748X1.5748*%
%ADD35R,1.5748X1.7000*%
%ADD36C,1.7000*%
%ADD37C,2.2000*%
%ADD38C,1.3995*%

%LPD*%
G36*
X4110685Y5797550D02*
G01*
X4106519Y5798464D01*
X4103065Y5800953D01*
X4100982Y5804712D01*
X4100576Y5808929D01*
X4101998Y5812942D01*
X4104894Y5816092D01*
X4107637Y5817971D01*
X4114393Y5823559D01*
X4170121Y5879287D01*
X4177182Y5888126D01*
X4181754Y5895695D01*
X4182872Y5897930D01*
X4186275Y5906109D01*
X4187037Y5908395D01*
X4189171Y5917031D01*
X4189577Y5919419D01*
X4190390Y5928258D01*
X4190441Y6746240D01*
X4191203Y6750151D01*
X4193438Y6753453D01*
X5370423Y7930438D01*
X5374030Y7932775D01*
X5378196Y7933436D01*
X5382310Y7932318D01*
X5385562Y7929625D01*
X5387441Y7925816D01*
X5387644Y7921548D01*
X5386070Y7917637D01*
X5383326Y7913471D01*
X5377281Y7901228D01*
X5372862Y7888325D01*
X5370220Y7874914D01*
X5369306Y7861300D01*
X5370220Y7847685D01*
X5372862Y7834274D01*
X5377281Y7821371D01*
X5383326Y7809128D01*
X5390896Y7797749D01*
X5399887Y7787487D01*
X5410149Y7778496D01*
X5421528Y7770926D01*
X5433771Y7764881D01*
X5446674Y7760462D01*
X5460085Y7757820D01*
X5473700Y7756906D01*
X5487314Y7757820D01*
X5500725Y7760462D01*
X5513628Y7764881D01*
X5525871Y7770926D01*
X5537250Y7778496D01*
X5547512Y7787487D01*
X5556504Y7797749D01*
X5564073Y7809128D01*
X5570118Y7821371D01*
X5574538Y7834274D01*
X5577179Y7847685D01*
X5578094Y7861300D01*
X5577179Y7874914D01*
X5574538Y7888325D01*
X5570118Y7901228D01*
X5564073Y7913471D01*
X5556504Y7924850D01*
X5547512Y7935112D01*
X5537250Y7944103D01*
X5525871Y7951673D01*
X5513628Y7957718D01*
X5500725Y7962138D01*
X5487314Y7964779D01*
X5473700Y7965694D01*
X5460085Y7964779D01*
X5446674Y7962138D01*
X5433771Y7957718D01*
X5421528Y7951673D01*
X5417362Y7948930D01*
X5413451Y7947355D01*
X5409184Y7947558D01*
X5405374Y7949438D01*
X5402681Y7952689D01*
X5401564Y7956803D01*
X5402224Y7960969D01*
X5404561Y7964576D01*
X5438546Y7998561D01*
X5441848Y8000796D01*
X5445760Y8001558D01*
X5984240Y8001558D01*
X5988151Y8000796D01*
X5991453Y7998561D01*
X6024422Y7965541D01*
X6026658Y7962290D01*
X6027420Y7958378D01*
X6027420Y7907020D01*
X6078778Y7907020D01*
X6082690Y7906258D01*
X6085941Y7904022D01*
X6128308Y7861655D01*
X6130544Y7858404D01*
X6131306Y7854492D01*
X6131306Y7783118D01*
X6132017Y7776870D01*
X6133896Y7771434D01*
X6136944Y7766608D01*
X6141008Y7762544D01*
X6145834Y7759496D01*
X6151270Y7757617D01*
X6157518Y7756906D01*
X6228892Y7756906D01*
X6232804Y7756144D01*
X6236055Y7753908D01*
X6552387Y7437678D01*
X6561226Y7430617D01*
X6568795Y7426045D01*
X6571030Y7424928D01*
X6579209Y7421524D01*
X6581495Y7420762D01*
X6590131Y7418628D01*
X6592519Y7418222D01*
X6601307Y7417409D01*
X6615226Y7417358D01*
X6619087Y7416546D01*
X6622389Y7414361D01*
X6624574Y7411059D01*
X6625336Y7407148D01*
X6624574Y7403287D01*
X6622338Y7399985D01*
X6619544Y7397191D01*
X6616496Y7392365D01*
X6614617Y7386929D01*
X6613906Y7380681D01*
X6613906Y7348220D01*
X6672580Y7348220D01*
X6672580Y7407198D01*
X6673342Y7411059D01*
X6675577Y7414361D01*
X6678828Y7416596D01*
X6682740Y7417358D01*
X6753859Y7417358D01*
X6757771Y7416596D01*
X6761022Y7414361D01*
X6763258Y7411059D01*
X6764020Y7407198D01*
X6764020Y7348220D01*
X6822998Y7348220D01*
X6826859Y7347458D01*
X6830161Y7345222D01*
X6832396Y7341971D01*
X6833158Y7338059D01*
X6833158Y7266940D01*
X6832396Y7263028D01*
X6830161Y7259777D01*
X6826859Y7257542D01*
X6822998Y7256780D01*
X6764020Y7256780D01*
X6764020Y7198106D01*
X6796481Y7198106D01*
X6802729Y7198817D01*
X6808165Y7200696D01*
X6812991Y7203744D01*
X6815785Y7206538D01*
X6819087Y7208774D01*
X6822998Y7209536D01*
X6826859Y7208774D01*
X6830161Y7206538D01*
X6832396Y7203287D01*
X6833158Y7199375D01*
X6833158Y7094677D01*
X6832142Y7090257D01*
X6829348Y7086752D01*
X6825284Y7084771D01*
X6820763Y7084771D01*
X6816699Y7086650D01*
X6813854Y7090156D01*
X6808673Y7100671D01*
X6801103Y7112050D01*
X6792112Y7122312D01*
X6781850Y7131303D01*
X6770471Y7138873D01*
X6758228Y7144918D01*
X6745325Y7149338D01*
X6731914Y7151979D01*
X6718300Y7152894D01*
X6704685Y7151979D01*
X6691274Y7149338D01*
X6678371Y7144918D01*
X6666128Y7138873D01*
X6654749Y7131303D01*
X6644487Y7122312D01*
X6635496Y7112050D01*
X6625234Y7096810D01*
X6622034Y7094829D01*
X6618376Y7094169D01*
X6246622Y7094118D01*
X6237935Y7092899D01*
X6229959Y7090206D01*
X6222644Y7086142D01*
X6215786Y7080453D01*
X4935880Y5800547D01*
X4932578Y5798312D01*
X4928666Y5797550D01*
G37*

%LPC*%
G36*
X6640118Y7198106D02*
G01*
X6672580Y7198106D01*
X6672580Y7256780D01*
X6613906Y7256780D01*
X6613906Y7224318D01*
X6614617Y7218070D01*
X6616496Y7212634D01*
X6619544Y7207808D01*
X6623608Y7203744D01*
X6628434Y7200696D01*
X6633870Y7198817D01*
G37*
G36*
X5727700Y7756906D02*
G01*
X5741314Y7757820D01*
X5754725Y7760462D01*
X5767628Y7764881D01*
X5779871Y7770926D01*
X5791250Y7778496D01*
X5801512Y7787487D01*
X5810504Y7797749D01*
X5818073Y7809128D01*
X5824118Y7821371D01*
X5828538Y7834274D01*
X5831179Y7847685D01*
X5832094Y7861300D01*
X5831179Y7874914D01*
X5828538Y7888325D01*
X5824118Y7901228D01*
X5818073Y7913471D01*
X5810504Y7924850D01*
X5801512Y7935112D01*
X5791250Y7944103D01*
X5779871Y7951673D01*
X5767628Y7957718D01*
X5754725Y7962138D01*
X5741314Y7964779D01*
X5727700Y7965694D01*
X5714085Y7964779D01*
X5700674Y7962138D01*
X5687771Y7957718D01*
X5675528Y7951673D01*
X5664149Y7944103D01*
X5653887Y7935112D01*
X5644896Y7924850D01*
X5637326Y7913471D01*
X5631281Y7901228D01*
X5626862Y7888325D01*
X5624220Y7874914D01*
X5623306Y7861300D01*
X5624220Y7847685D01*
X5626862Y7834274D01*
X5631281Y7821371D01*
X5637326Y7809128D01*
X5644896Y7797749D01*
X5653887Y7787487D01*
X5664149Y7778496D01*
X5675528Y7770926D01*
X5687771Y7764881D01*
X5700674Y7760462D01*
X5714085Y7757820D01*
G37*
G36*
X5935980Y7767726D02*
G01*
X5935980Y7815580D01*
X5888126Y7815580D01*
X5891326Y7809128D01*
X5898896Y7797749D01*
X5907887Y7787487D01*
X5918149Y7778496D01*
X5929528Y7770926D01*
G37*
G36*
X6027420Y7767726D02*
G01*
X6033871Y7770926D01*
X6045250Y7778496D01*
X6055512Y7787487D01*
X6064504Y7797749D01*
X6072073Y7809128D01*
X6075273Y7815580D01*
X6027420Y7815580D01*
G37*
G36*
X5888126Y7907020D02*
G01*
X5935980Y7907020D01*
X5935980Y7954873D01*
X5929528Y7951673D01*
X5918149Y7944103D01*
X5907887Y7935112D01*
X5898896Y7924850D01*
X5891326Y7913471D01*
G37*

%LPD*%
G36*
X5485333Y5670550D02*
G01*
X5481421Y5671312D01*
X5478119Y5673547D01*
X5458815Y5692851D01*
X5456631Y5696153D01*
X5455869Y5700014D01*
X5455869Y6034786D01*
X5456631Y6038646D01*
X5458815Y6041948D01*
X5482488Y6065621D01*
X5485942Y6067907D01*
X5490057Y6068568D01*
X5494070Y6067602D01*
X5497372Y6065062D01*
X5499354Y6061456D01*
X5499760Y6057290D01*
X5499557Y6055360D01*
X5499557Y6037275D01*
X5593842Y6037275D01*
X5593842Y6081572D01*
X5525770Y6081572D01*
X5523788Y6081318D01*
X5519674Y6081725D01*
X5516016Y6083757D01*
X5513527Y6087008D01*
X5512511Y6091072D01*
X5513222Y6095136D01*
X5515508Y6098641D01*
X6162751Y6745884D01*
X6166053Y6748068D01*
X6169914Y6748830D01*
X6618376Y6748830D01*
X6622034Y6748170D01*
X6625234Y6746189D01*
X6635496Y6730949D01*
X6644487Y6720687D01*
X6654749Y6711696D01*
X6666128Y6704126D01*
X6678371Y6698081D01*
X6691274Y6693662D01*
X6704685Y6691020D01*
X6718300Y6690106D01*
X6731914Y6691020D01*
X6745325Y6693662D01*
X6758228Y6698081D01*
X6770471Y6704126D01*
X6781850Y6711696D01*
X6792112Y6720687D01*
X6801103Y6730949D01*
X6808673Y6742328D01*
X6813854Y6752844D01*
X6816699Y6756349D01*
X6820763Y6758228D01*
X6825284Y6758228D01*
X6829348Y6756247D01*
X6832142Y6752742D01*
X6833158Y6748322D01*
X6833158Y6586677D01*
X6832142Y6582257D01*
X6829348Y6578752D01*
X6825284Y6576771D01*
X6820763Y6576771D01*
X6816699Y6578650D01*
X6813854Y6582156D01*
X6808673Y6592671D01*
X6801103Y6604050D01*
X6792112Y6614312D01*
X6781850Y6623303D01*
X6770471Y6630873D01*
X6758228Y6636918D01*
X6745325Y6641338D01*
X6731914Y6643979D01*
X6718300Y6644894D01*
X6704685Y6643979D01*
X6691274Y6641338D01*
X6678371Y6636918D01*
X6666128Y6630873D01*
X6654749Y6623303D01*
X6644487Y6614312D01*
X6635496Y6604050D01*
X6627926Y6592671D01*
X6621881Y6580428D01*
X6617462Y6567525D01*
X6614972Y6554978D01*
X6614007Y6552184D01*
X6612229Y6549796D01*
X6545122Y6482588D01*
X6539839Y6475628D01*
X6536080Y6468059D01*
X6533743Y6459982D01*
X6532930Y6451142D01*
X6532930Y6068314D01*
X6532168Y6064453D01*
X6529984Y6061151D01*
X6336030Y5867196D01*
X6332220Y5864809D01*
X6327749Y5864250D01*
X6323482Y5865723D01*
X6320282Y5868924D01*
X6318758Y5873140D01*
X6319215Y5877610D01*
X6323838Y5891174D01*
X6326479Y5904585D01*
X6327394Y5918200D01*
X6326479Y5931814D01*
X6323838Y5945225D01*
X6319418Y5958128D01*
X6313373Y5970371D01*
X6305804Y5981750D01*
X6296812Y5992012D01*
X6286550Y6001004D01*
X6275171Y6008573D01*
X6262928Y6014618D01*
X6250025Y6019038D01*
X6236614Y6021679D01*
X6223000Y6022594D01*
X6209385Y6021679D01*
X6195974Y6019038D01*
X6183071Y6014618D01*
X6170828Y6008573D01*
X6159449Y6001004D01*
X6149187Y5992012D01*
X6140196Y5981750D01*
X6132626Y5970371D01*
X6126581Y5958128D01*
X6122162Y5945225D01*
X6119520Y5931814D01*
X6118606Y5918200D01*
X6119215Y5909259D01*
X6118606Y5905042D01*
X6116269Y5901436D01*
X6015380Y5800547D01*
X6012078Y5798312D01*
X6008166Y5797550D01*
X5860338Y5797550D01*
X5856732Y5798210D01*
X5853582Y5800140D01*
X5851347Y5803036D01*
X5850128Y5807608D01*
X5848604Y5812028D01*
X5847994Y5815380D01*
X5848604Y5818784D01*
X5850128Y5823204D01*
X5851398Y5828487D01*
X5853633Y5831433D01*
X5856782Y5833313D01*
X5860389Y5834024D01*
X5920994Y5834278D01*
X5924092Y5833821D01*
X5928258Y5831484D01*
X5937097Y5827369D01*
X5946546Y5824829D01*
X5956300Y5823966D01*
X5966053Y5824829D01*
X5975502Y5827369D01*
X5984341Y5831484D01*
X5992368Y5837123D01*
X5999276Y5844032D01*
X6004915Y5852058D01*
X6009030Y5860897D01*
X6011570Y5870346D01*
X6012434Y5880100D01*
X6011570Y5889853D01*
X6009030Y5899302D01*
X6004915Y5908141D01*
X5999276Y5916168D01*
X5992368Y5923076D01*
X5984341Y5928715D01*
X5975502Y5932830D01*
X5966053Y5935370D01*
X5956300Y5936234D01*
X5946546Y5935370D01*
X5937097Y5932830D01*
X5928258Y5928715D01*
X5923686Y5926074D01*
X5920638Y5925616D01*
X5860338Y5925312D01*
X5856681Y5925972D01*
X5853531Y5927902D01*
X5851245Y5930798D01*
X5848604Y5939028D01*
X5847994Y5942380D01*
X5848604Y5945784D01*
X5850128Y5950204D01*
X5850839Y5956452D01*
X5850839Y5974537D01*
X5756554Y5974537D01*
X5756554Y5964732D01*
X5755792Y5960821D01*
X5753557Y5957519D01*
X5750255Y5955334D01*
X5746394Y5954572D01*
X5604002Y5954572D01*
X5600141Y5955334D01*
X5596839Y5957519D01*
X5594604Y5960821D01*
X5593842Y5964732D01*
X5593842Y5974537D01*
X5499557Y5974537D01*
X5499557Y5956452D01*
X5500268Y5950204D01*
X5501792Y5945784D01*
X5502402Y5942380D01*
X5501792Y5939028D01*
X5500268Y5934608D01*
X5499557Y5928360D01*
X5499557Y5829452D01*
X5500268Y5823204D01*
X5501792Y5818784D01*
X5502402Y5815380D01*
X5501792Y5812028D01*
X5500268Y5807608D01*
X5499557Y5801360D01*
X5499557Y5702452D01*
X5500268Y5696204D01*
X5501792Y5691784D01*
X5502402Y5688380D01*
X5501792Y5685028D01*
X5499049Y5676036D01*
X5496814Y5673140D01*
X5493664Y5671210D01*
X5490057Y5670550D01*
G37*

%LPC*%
G36*
X5756554Y6037275D02*
G01*
X5850839Y6037275D01*
X5850839Y6055360D01*
X5850128Y6061608D01*
X5848248Y6066993D01*
X5845200Y6071870D01*
X5841136Y6075934D01*
X5836310Y6078982D01*
X5830874Y6080861D01*
X5824626Y6081572D01*
X5756554Y6081572D01*
G37*

%LPD*%
G36*
X3255721Y5531612D02*
G01*
X3250742Y5532069D01*
X2680919Y5532069D01*
X2676652Y5532983D01*
X2673197Y5535574D01*
X2671165Y5539384D01*
X2670860Y5543753D01*
X2672384Y5547766D01*
X2675483Y5550814D01*
X2680563Y5554014D01*
X2684627Y5558028D01*
X2687675Y5562904D01*
X2689555Y5568289D01*
X2690266Y5574588D01*
X2690266Y5595670D01*
X2691028Y5599582D01*
X2693212Y5602884D01*
X2696514Y5605068D01*
X2700426Y5605830D01*
X2755849Y5605830D01*
X2759456Y5605170D01*
X2762605Y5603240D01*
X2764840Y5600344D01*
X2766060Y5595823D01*
X2767939Y5590387D01*
X2770987Y5585561D01*
X2775051Y5581497D01*
X2779877Y5578449D01*
X2785313Y5576570D01*
X2791561Y5575858D01*
X2880410Y5575858D01*
X2886659Y5576570D01*
X2892094Y5578449D01*
X2896920Y5581497D01*
X2900984Y5585561D01*
X2904032Y5590387D01*
X2905912Y5595823D01*
X2906623Y5602071D01*
X2906623Y5700928D01*
X2905912Y5707176D01*
X2904032Y5712612D01*
X2900984Y5717438D01*
X2896920Y5721502D01*
X2892094Y5724550D01*
X2886659Y5726430D01*
X2880410Y5727141D01*
X2791561Y5727141D01*
X2785313Y5726430D01*
X2779877Y5724550D01*
X2775051Y5721502D01*
X2770987Y5717438D01*
X2767939Y5712612D01*
X2766060Y5707176D01*
X2764840Y5702655D01*
X2762605Y5699760D01*
X2759456Y5697829D01*
X2755849Y5697169D01*
X2700426Y5697169D01*
X2696514Y5697931D01*
X2693212Y5700115D01*
X2691028Y5703417D01*
X2690266Y5707329D01*
X2690266Y5728411D01*
X2689555Y5734710D01*
X2687675Y5740095D01*
X2686050Y5742686D01*
X2684576Y5746699D01*
X2684932Y5751017D01*
X2686964Y5754776D01*
X2690418Y5757316D01*
X2694635Y5758230D01*
X3050286Y5758230D01*
X3054146Y5757468D01*
X3057448Y5755284D01*
X3070758Y5741974D01*
X3072942Y5738774D01*
X3073704Y5734964D01*
X3073044Y5731154D01*
X3070961Y5727852D01*
X3067812Y5725566D01*
X3064052Y5724652D01*
X3060192Y5725210D01*
X3056686Y5726430D01*
X3050438Y5727141D01*
X3034842Y5727141D01*
X3034842Y5682843D01*
X3076651Y5682843D01*
X3076651Y5700928D01*
X3075940Y5707176D01*
X3074720Y5710732D01*
X3074162Y5714542D01*
X3075076Y5718352D01*
X3077362Y5721502D01*
X3080613Y5723534D01*
X3084474Y5724245D01*
X3088233Y5723432D01*
X3091484Y5721248D01*
X3263849Y5548884D01*
X3266084Y5545429D01*
X3266795Y5541416D01*
X3265881Y5537403D01*
X3263392Y5534101D01*
X3259836Y5532069D01*
G37*

%LPC*%
G36*
X2935325Y5682843D02*
G01*
X2977134Y5682843D01*
X2977134Y5727141D01*
X2961589Y5727141D01*
X2955290Y5726430D01*
X2949905Y5724550D01*
X2945028Y5721502D01*
X2940964Y5717438D01*
X2937916Y5712612D01*
X2936036Y5707176D01*
X2935325Y5700928D01*
G37*
G36*
X3034842Y5575858D02*
G01*
X3050438Y5575858D01*
X3056686Y5576570D01*
X3062071Y5578449D01*
X3066948Y5581497D01*
X3071012Y5585561D01*
X3074060Y5590387D01*
X3075940Y5595823D01*
X3076651Y5602071D01*
X3076651Y5620156D01*
X3034842Y5620156D01*
G37*
G36*
X2961589Y5575858D02*
G01*
X2977134Y5575858D01*
X2977134Y5620156D01*
X2935325Y5620156D01*
X2935325Y5602071D01*
X2936036Y5595823D01*
X2937916Y5590387D01*
X2940964Y5585561D01*
X2945028Y5581497D01*
X2949905Y5578449D01*
X2955290Y5576570D01*
G37*

%LPD*%
G36*
X3689400Y4951882D02*
G01*
X3685489Y4952644D01*
X3682187Y4954879D01*
X3680815Y4956251D01*
X3678631Y4959553D01*
X3677869Y4963414D01*
X3677818Y5246878D01*
X3676599Y5255564D01*
X3673906Y5263540D01*
X3669842Y5270855D01*
X3664153Y5277713D01*
X3104388Y5837377D01*
X3097428Y5842660D01*
X3089859Y5846419D01*
X3081782Y5848756D01*
X3072942Y5849569D01*
X2537714Y5849569D01*
X2533853Y5850331D01*
X2530551Y5852515D01*
X2492502Y5890564D01*
X2490724Y5893003D01*
X2489708Y5895848D01*
X2489606Y5898896D01*
X2490266Y5904788D01*
X2490266Y6058611D01*
X2489555Y6064910D01*
X2487676Y6070295D01*
X2484628Y6075172D01*
X2480564Y6079185D01*
X2475687Y6082233D01*
X2470302Y6084163D01*
X2464054Y6084874D01*
X2365146Y6084874D01*
X2358898Y6084163D01*
X2353513Y6082233D01*
X2348636Y6079185D01*
X2344572Y6075172D01*
X2341524Y6070295D01*
X2339644Y6064910D01*
X2338933Y6058611D01*
X2338933Y6028232D01*
X2338273Y6024575D01*
X2336292Y6021425D01*
X2333345Y6019139D01*
X2322576Y6015990D01*
X2316175Y6012535D01*
X2310180Y6007608D01*
X2085390Y5782868D01*
X2082190Y5780684D01*
X2078431Y5779871D01*
X2074621Y5780532D01*
X2071319Y5782564D01*
X2069033Y5785662D01*
X2068068Y5789422D01*
X2067814Y5793638D01*
X2065070Y5808573D01*
X2060549Y5823051D01*
X2054352Y5836869D01*
X2046478Y5849874D01*
X2037130Y5861812D01*
X2026412Y5872530D01*
X2014474Y5881878D01*
X2001469Y5889752D01*
X1986991Y5896305D01*
X1973173Y5900470D01*
X1958238Y5903214D01*
X1943100Y5904128D01*
X1927961Y5903214D01*
X1913026Y5900470D01*
X1899107Y5896203D01*
X1884730Y5889752D01*
X1873351Y5882894D01*
X1869135Y5881471D01*
X1864715Y5882030D01*
X1860905Y5884418D01*
X1788109Y5957214D01*
X1785924Y5960465D01*
X1785162Y5964377D01*
X1785162Y6310376D01*
X1786077Y6314592D01*
X1788668Y6318046D01*
X1792478Y6320129D01*
X1796846Y6320383D01*
X1800860Y6318859D01*
X1808530Y6310782D01*
X1813407Y6307734D01*
X1818792Y6305854D01*
X1825091Y6305143D01*
X1848154Y6305143D01*
X1848154Y6359448D01*
X1795322Y6359448D01*
X1791411Y6360210D01*
X1788109Y6362446D01*
X1785924Y6365697D01*
X1785162Y6369608D01*
X1785162Y6431991D01*
X1785924Y6435902D01*
X1788109Y6439154D01*
X1791411Y6441389D01*
X1795322Y6442151D01*
X1848154Y6442151D01*
X1848154Y6496456D01*
X1825091Y6496456D01*
X1818792Y6495745D01*
X1813407Y6493865D01*
X1808530Y6490817D01*
X1800860Y6482740D01*
X1796846Y6481216D01*
X1792478Y6481470D01*
X1788668Y6483553D01*
X1786077Y6487007D01*
X1785162Y6491224D01*
X1785162Y6509816D01*
X1784248Y6521246D01*
X1781657Y6532016D01*
X1777441Y6542278D01*
X1771650Y6551726D01*
X1764182Y6560464D01*
X1633118Y6691477D01*
X1630933Y6694779D01*
X1630172Y6698691D01*
X1630172Y6749643D01*
X1629460Y6755892D01*
X1627581Y6761327D01*
X1624482Y6766153D01*
X1620469Y6770217D01*
X1615592Y6773265D01*
X1610207Y6775145D01*
X1603908Y6775856D01*
X1485087Y6775856D01*
X1478788Y6775145D01*
X1473403Y6773265D01*
X1468526Y6770217D01*
X1464411Y6767118D01*
X1460500Y6766356D01*
X1456588Y6767118D01*
X1452473Y6770217D01*
X1447596Y6773265D01*
X1442212Y6775145D01*
X1435912Y6775856D01*
X1430883Y6775856D01*
X1426972Y6776618D01*
X1423670Y6778853D01*
X1138377Y7064146D01*
X1136142Y7067448D01*
X1135380Y7071359D01*
X1135380Y7078980D01*
X1127760Y7078980D01*
X1123848Y7079742D01*
X1120546Y7081977D01*
X1034491Y7168032D01*
X1032256Y7171334D01*
X1031494Y7175246D01*
X1031494Y7196277D01*
X1032256Y7200188D01*
X1034491Y7203490D01*
X1037742Y7205675D01*
X1041653Y7206437D01*
X1091844Y7206437D01*
X1095603Y7205725D01*
X1098854Y7203643D01*
X1101090Y7200493D01*
X1102004Y7196734D01*
X1101445Y7192924D01*
X1099464Y7189571D01*
X1098296Y7188250D01*
X1090726Y7176871D01*
X1087526Y7170420D01*
X1135380Y7170420D01*
X1135380Y7196277D01*
X1136142Y7200188D01*
X1138377Y7203490D01*
X1141628Y7205675D01*
X1145540Y7206437D01*
X1216660Y7206437D01*
X1220571Y7205675D01*
X1223822Y7203490D01*
X1226058Y7200188D01*
X1226820Y7196277D01*
X1226820Y7170420D01*
X1274673Y7170420D01*
X1271473Y7176871D01*
X1263904Y7188250D01*
X1262735Y7189571D01*
X1260754Y7192924D01*
X1260195Y7196734D01*
X1261110Y7200493D01*
X1263345Y7203643D01*
X1266596Y7205725D01*
X1270355Y7206437D01*
X1345844Y7206437D01*
X1349603Y7205725D01*
X1352854Y7203643D01*
X1355090Y7200493D01*
X1356004Y7196734D01*
X1355445Y7192924D01*
X1353464Y7189571D01*
X1352296Y7188250D01*
X1344726Y7176871D01*
X1338681Y7164628D01*
X1334262Y7151725D01*
X1331620Y7138314D01*
X1330706Y7124700D01*
X1331620Y7111085D01*
X1334262Y7097674D01*
X1338681Y7084771D01*
X1344726Y7072528D01*
X1352296Y7061149D01*
X1361287Y7050887D01*
X1371549Y7041896D01*
X1382928Y7034326D01*
X1395171Y7028281D01*
X1408074Y7023862D01*
X1421485Y7021220D01*
X1435100Y7020306D01*
X1448714Y7021220D01*
X1466748Y7024725D01*
X1470406Y7023862D01*
X1473454Y7021779D01*
X1543812Y6951522D01*
X1550771Y6946239D01*
X1558340Y6942480D01*
X1566418Y6940143D01*
X1575257Y6939330D01*
X1742186Y6939330D01*
X1746046Y6938568D01*
X1749348Y6936384D01*
X1917852Y6767880D01*
X1920087Y6764578D01*
X1920849Y6760667D01*
X1920849Y6721551D01*
X1959965Y6721551D01*
X1963877Y6720789D01*
X1967179Y6718553D01*
X2313584Y6372148D01*
X2315768Y6368846D01*
X2316530Y6364986D01*
X2316530Y6220358D01*
X2316073Y6217310D01*
X2313584Y6212941D01*
X2309469Y6204102D01*
X2306929Y6194653D01*
X2306066Y6184900D01*
X2306929Y6175146D01*
X2309469Y6165697D01*
X2313584Y6156858D01*
X2319223Y6148832D01*
X2326132Y6141923D01*
X2334158Y6136284D01*
X2342997Y6132169D01*
X2352446Y6129629D01*
X2362200Y6128766D01*
X2371953Y6129629D01*
X2381402Y6132169D01*
X2390241Y6136284D01*
X2398268Y6141923D01*
X2405176Y6148832D01*
X2410815Y6156858D01*
X2414930Y6165697D01*
X2417470Y6175146D01*
X2418334Y6184900D01*
X2417470Y6194653D01*
X2414930Y6204102D01*
X2410815Y6212941D01*
X2408326Y6217310D01*
X2407869Y6220358D01*
X2407869Y6380378D01*
X2408631Y6384239D01*
X2410815Y6387541D01*
X2414117Y6389725D01*
X2418029Y6390538D01*
X2421890Y6389725D01*
X2425192Y6387541D01*
X2686812Y6126022D01*
X2693771Y6120739D01*
X2701340Y6116980D01*
X2709418Y6114643D01*
X2718257Y6113830D01*
X3062986Y6113830D01*
X3066846Y6113068D01*
X3070148Y6110884D01*
X3126384Y6054648D01*
X3128568Y6051346D01*
X3129330Y6047486D01*
X3129381Y5891022D01*
X3130600Y5882335D01*
X3133293Y5874359D01*
X3137357Y5867044D01*
X3143046Y5860186D01*
X3665982Y5337352D01*
X3672941Y5332069D01*
X3680612Y5328259D01*
X3686454Y5326430D01*
X3691432Y5325719D01*
X3695547Y5324144D01*
X3698646Y5320995D01*
X3700068Y5316778D01*
X3700272Y5315204D01*
X3701796Y5310784D01*
X3702405Y5307380D01*
X3701796Y5304028D01*
X3700272Y5299608D01*
X3699560Y5293360D01*
X3699560Y5194452D01*
X3700272Y5188204D01*
X3701796Y5183784D01*
X3702405Y5180380D01*
X3701796Y5177028D01*
X3700272Y5172608D01*
X3699560Y5166360D01*
X3699560Y5067452D01*
X3700272Y5061204D01*
X3701796Y5056784D01*
X3702405Y5053380D01*
X3701796Y5050028D01*
X3700272Y5045608D01*
X3699560Y5039360D01*
X3699560Y4962042D01*
X3698798Y4958181D01*
X3696563Y4954879D01*
X3693261Y4952644D01*
G37*

%LPC*%
G36*
X1825091Y6584543D02*
G01*
X1848154Y6584543D01*
X1848154Y6638848D01*
X1798828Y6638848D01*
X1798828Y6610756D01*
X1799539Y6604508D01*
X1801469Y6599072D01*
X1804517Y6594246D01*
X1808530Y6590182D01*
X1813407Y6587134D01*
X1818792Y6585254D01*
G37*
G36*
X1920849Y6442151D02*
G01*
X1970176Y6442151D01*
X1970176Y6470243D01*
X1969465Y6476492D01*
X1967534Y6481927D01*
X1964486Y6486753D01*
X1960473Y6490817D01*
X1955596Y6493865D01*
X1950212Y6495745D01*
X1943912Y6496456D01*
X1920849Y6496456D01*
G37*
G36*
X1920849Y6584543D02*
G01*
X1943912Y6584543D01*
X1950212Y6585254D01*
X1955596Y6587134D01*
X1960473Y6590182D01*
X1964486Y6594246D01*
X1967534Y6599072D01*
X1969465Y6604508D01*
X1970176Y6610756D01*
X1970176Y6638848D01*
X1920849Y6638848D01*
G37*
G36*
X1920849Y6305143D02*
G01*
X1943912Y6305143D01*
X1950212Y6305854D01*
X1955596Y6307734D01*
X1960473Y6310782D01*
X1964486Y6314846D01*
X1967534Y6319672D01*
X1969465Y6325108D01*
X1970176Y6331356D01*
X1970176Y6359448D01*
X1920849Y6359448D01*
G37*
G36*
X1226820Y7031126D02*
G01*
X1233271Y7034326D01*
X1244650Y7041896D01*
X1254912Y7050887D01*
X1263904Y7061149D01*
X1271473Y7072528D01*
X1274673Y7078980D01*
X1226820Y7078980D01*
G37*
G36*
X2565146Y5878525D02*
G01*
X2664053Y5878525D01*
X2670302Y5879236D01*
X2675686Y5881166D01*
X2680563Y5884214D01*
X2684627Y5888228D01*
X2687675Y5893104D01*
X2689555Y5898489D01*
X2690266Y5904788D01*
X2690266Y5925870D01*
X2691028Y5929782D01*
X2693212Y5933084D01*
X2696514Y5935268D01*
X2700426Y5936030D01*
X2755849Y5936030D01*
X2759456Y5935370D01*
X2762605Y5933440D01*
X2764840Y5930544D01*
X2766060Y5926023D01*
X2767939Y5920587D01*
X2770987Y5915761D01*
X2775051Y5911697D01*
X2779877Y5908649D01*
X2785313Y5906770D01*
X2791561Y5906058D01*
X2880410Y5906058D01*
X2886659Y5906770D01*
X2892094Y5908649D01*
X2896920Y5911697D01*
X2900984Y5915761D01*
X2904032Y5920587D01*
X2905912Y5926023D01*
X2906623Y5932271D01*
X2906623Y6031128D01*
X2905912Y6037376D01*
X2904032Y6042812D01*
X2900984Y6047638D01*
X2896920Y6051702D01*
X2892094Y6054750D01*
X2886659Y6056630D01*
X2880410Y6057341D01*
X2791561Y6057341D01*
X2785313Y6056630D01*
X2779877Y6054750D01*
X2775051Y6051702D01*
X2770987Y6047638D01*
X2767939Y6042812D01*
X2766060Y6037376D01*
X2764840Y6032855D01*
X2762605Y6029960D01*
X2759456Y6028029D01*
X2755849Y6027369D01*
X2700426Y6027369D01*
X2696514Y6028131D01*
X2693212Y6030315D01*
X2691028Y6033617D01*
X2690266Y6037529D01*
X2690266Y6058611D01*
X2689555Y6064910D01*
X2687675Y6070295D01*
X2684627Y6075172D01*
X2680563Y6079185D01*
X2675686Y6082233D01*
X2670302Y6084163D01*
X2664053Y6084874D01*
X2565146Y6084874D01*
X2558897Y6084163D01*
X2553512Y6082233D01*
X2548636Y6079185D01*
X2544572Y6075172D01*
X2541524Y6070295D01*
X2539644Y6064910D01*
X2538933Y6058611D01*
X2538933Y5904788D01*
X2539644Y5898489D01*
X2541524Y5893104D01*
X2544572Y5888228D01*
X2548636Y5884214D01*
X2553512Y5881166D01*
X2558897Y5879236D01*
G37*
G36*
X2961589Y5906058D02*
G01*
X2977134Y5906058D01*
X2977134Y5950356D01*
X2935325Y5950356D01*
X2935325Y5932271D01*
X2936036Y5926023D01*
X2937916Y5920587D01*
X2940964Y5915761D01*
X2945028Y5911697D01*
X2949905Y5908649D01*
X2955290Y5906770D01*
G37*
G36*
X3034842Y5906058D02*
G01*
X3050438Y5906058D01*
X3056686Y5906770D01*
X3062071Y5908649D01*
X3066948Y5911697D01*
X3071012Y5915761D01*
X3074060Y5920587D01*
X3075940Y5926023D01*
X3076651Y5932271D01*
X3076651Y5950356D01*
X3034842Y5950356D01*
G37*
G36*
X1999437Y5920333D02*
G01*
X2001469Y5921248D01*
X2014474Y5929122D01*
X2026412Y5938469D01*
X2037130Y5949188D01*
X2046478Y5961126D01*
X2054352Y5974130D01*
X2055266Y5976162D01*
X1999437Y5976162D01*
G37*
G36*
X1886762Y5920333D02*
G01*
X1886762Y5976162D01*
X1830933Y5976162D01*
X1831848Y5974130D01*
X1839722Y5961126D01*
X1849069Y5949188D01*
X1859788Y5938469D01*
X1871725Y5929122D01*
X1884730Y5921248D01*
G37*
G36*
X2935325Y6013043D02*
G01*
X2977134Y6013043D01*
X2977134Y6057341D01*
X2961589Y6057341D01*
X2955290Y6056630D01*
X2949905Y6054750D01*
X2945028Y6051702D01*
X2940964Y6047638D01*
X2937916Y6042812D01*
X2936036Y6037376D01*
X2935325Y6031128D01*
G37*
G36*
X3034842Y6013043D02*
G01*
X3076651Y6013043D01*
X3076651Y6031128D01*
X3075940Y6037376D01*
X3074060Y6042812D01*
X3071012Y6047638D01*
X3066948Y6051702D01*
X3062071Y6054750D01*
X3056686Y6056630D01*
X3050438Y6057341D01*
X3034842Y6057341D01*
G37*
G36*
X1798828Y6721551D02*
G01*
X1848154Y6721551D01*
X1848154Y6775856D01*
X1825091Y6775856D01*
X1818792Y6775145D01*
X1813407Y6773265D01*
X1808530Y6770217D01*
X1804517Y6766153D01*
X1801469Y6761327D01*
X1799539Y6755892D01*
X1798828Y6749643D01*
G37*
G36*
X1830933Y6088837D02*
G01*
X1886762Y6088837D01*
X1886762Y6144666D01*
X1884730Y6143752D01*
X1871725Y6135878D01*
X1859788Y6126530D01*
X1849069Y6115812D01*
X1839722Y6103874D01*
X1831848Y6090869D01*
G37*
G36*
X1999437Y6088837D02*
G01*
X2055266Y6088837D01*
X2054352Y6090869D01*
X2046478Y6103874D01*
X2037130Y6115812D01*
X2026412Y6126530D01*
X2014474Y6135878D01*
X2001469Y6143752D01*
X1999437Y6144666D01*
G37*

%LPD*%
G36*
X3474770Y4874361D02*
G01*
X3470910Y4875174D01*
X3467608Y4877358D01*
X3155188Y5189677D01*
X3148228Y5194960D01*
X3140659Y5198719D01*
X3132582Y5201056D01*
X3123742Y5201869D01*
X2680919Y5201869D01*
X2676652Y5202783D01*
X2673197Y5205374D01*
X2671165Y5209184D01*
X2670860Y5213553D01*
X2672384Y5217566D01*
X2675483Y5220614D01*
X2680563Y5223814D01*
X2684627Y5227828D01*
X2687675Y5232704D01*
X2689555Y5238089D01*
X2690266Y5244388D01*
X2690266Y5265470D01*
X2691028Y5269382D01*
X2693212Y5272684D01*
X2696514Y5274868D01*
X2700426Y5275630D01*
X2755849Y5275630D01*
X2759456Y5274970D01*
X2762605Y5273040D01*
X2764840Y5270144D01*
X2766060Y5265623D01*
X2767939Y5260187D01*
X2770987Y5255361D01*
X2775051Y5251297D01*
X2779877Y5248249D01*
X2785313Y5246370D01*
X2791561Y5245658D01*
X2880410Y5245658D01*
X2886659Y5246370D01*
X2892094Y5248249D01*
X2896920Y5251297D01*
X2900984Y5255361D01*
X2904032Y5260187D01*
X2905912Y5265623D01*
X2906623Y5271871D01*
X2906623Y5370728D01*
X2905912Y5376976D01*
X2904032Y5382412D01*
X2900984Y5387238D01*
X2896920Y5391302D01*
X2892094Y5394350D01*
X2886659Y5396230D01*
X2880410Y5396941D01*
X2791561Y5396941D01*
X2785313Y5396230D01*
X2779877Y5394350D01*
X2775051Y5391302D01*
X2770987Y5387238D01*
X2767939Y5382412D01*
X2766060Y5376976D01*
X2764840Y5372455D01*
X2762605Y5369560D01*
X2759456Y5367629D01*
X2755849Y5366969D01*
X2700426Y5366969D01*
X2696514Y5367731D01*
X2693212Y5369915D01*
X2691028Y5373217D01*
X2690266Y5377129D01*
X2690266Y5398211D01*
X2689555Y5404510D01*
X2687675Y5409895D01*
X2684627Y5414772D01*
X2680563Y5418785D01*
X2675483Y5421985D01*
X2672384Y5425033D01*
X2670860Y5429046D01*
X2671165Y5433415D01*
X2673197Y5437225D01*
X2676652Y5439816D01*
X2680919Y5440730D01*
X3228086Y5440730D01*
X3231946Y5439968D01*
X3235248Y5437784D01*
X3481984Y5191048D01*
X3484168Y5187746D01*
X3484930Y5183886D01*
X3484930Y4884521D01*
X3484168Y4880660D01*
X3481984Y4877358D01*
X3478682Y4875174D01*
G37*

%LPC*%
G36*
X3034842Y5245658D02*
G01*
X3050438Y5245658D01*
X3056686Y5246370D01*
X3062071Y5248249D01*
X3066948Y5251297D01*
X3071012Y5255361D01*
X3074060Y5260187D01*
X3075940Y5265623D01*
X3076651Y5271871D01*
X3076651Y5289956D01*
X3034842Y5289956D01*
G37*
G36*
X2961589Y5245658D02*
G01*
X2977134Y5245658D01*
X2977134Y5289956D01*
X2935325Y5289956D01*
X2935325Y5271871D01*
X2936036Y5265623D01*
X2937916Y5260187D01*
X2940964Y5255361D01*
X2945028Y5251297D01*
X2949905Y5248249D01*
X2955290Y5246370D01*
G37*
G36*
X2935325Y5352643D02*
G01*
X2977134Y5352643D01*
X2977134Y5396941D01*
X2961589Y5396941D01*
X2955290Y5396230D01*
X2949905Y5394350D01*
X2945028Y5391302D01*
X2940964Y5387238D01*
X2937916Y5382412D01*
X2936036Y5376976D01*
X2935325Y5370728D01*
G37*
G36*
X3034842Y5352643D02*
G01*
X3076651Y5352643D01*
X3076651Y5370728D01*
X3075940Y5376976D01*
X3074060Y5382412D01*
X3071012Y5387238D01*
X3066948Y5391302D01*
X3062071Y5394350D01*
X3056686Y5396230D01*
X3050438Y5396941D01*
X3034842Y5396941D01*
G37*

%LPD*%
G36*
X1135024Y4677765D02*
G01*
X1131112Y4678527D01*
X1127810Y4680712D01*
X1125626Y4684014D01*
X1124864Y4687925D01*
X1124813Y6390741D01*
X1124000Y6399276D01*
X1122426Y6406286D01*
X1122172Y6408521D01*
X1122172Y6470243D01*
X1121460Y6476492D01*
X1119581Y6481927D01*
X1116482Y6486753D01*
X1115110Y6488125D01*
X1112926Y6491427D01*
X1112164Y6495338D01*
X1112164Y6499555D01*
X1113028Y6503670D01*
X1115568Y6507124D01*
X1119276Y6509207D01*
X1123492Y6509613D01*
X1127556Y6508242D01*
X1136548Y6502857D01*
X1138428Y6501942D01*
X1146759Y6498640D01*
X1237589Y6472631D01*
X1248562Y6470396D01*
X1257604Y6469837D01*
X1280668Y6469837D01*
X1284579Y6469075D01*
X1287881Y6466890D01*
X1290066Y6463588D01*
X1290828Y6459677D01*
X1290828Y6331356D01*
X1291539Y6325108D01*
X1293469Y6319672D01*
X1296517Y6314846D01*
X1303629Y6308191D01*
X1305255Y6305194D01*
X1305864Y6301841D01*
X1305864Y5964478D01*
X1306728Y5953048D01*
X1309319Y5942279D01*
X1311656Y5936640D01*
X1312367Y5933846D01*
X1312265Y5930950D01*
X1310386Y5920638D01*
X1309471Y5905500D01*
X1310386Y5890361D01*
X1313129Y5875426D01*
X1317650Y5860948D01*
X1323848Y5847130D01*
X1331722Y5834126D01*
X1341069Y5822188D01*
X1351788Y5811469D01*
X1363726Y5802122D01*
X1376730Y5794248D01*
X1391107Y5787745D01*
X1394256Y5785510D01*
X1396390Y5782259D01*
X1397101Y5778500D01*
X1396339Y5774690D01*
X1394256Y5771438D01*
X1391107Y5769203D01*
X1376730Y5762752D01*
X1363726Y5754878D01*
X1351788Y5745530D01*
X1341069Y5734812D01*
X1331722Y5722874D01*
X1323848Y5709869D01*
X1317650Y5696051D01*
X1313129Y5681573D01*
X1310386Y5666638D01*
X1309471Y5651500D01*
X1310386Y5636361D01*
X1313129Y5621426D01*
X1317650Y5606948D01*
X1323848Y5593130D01*
X1331722Y5580126D01*
X1341069Y5568188D01*
X1351788Y5557469D01*
X1363726Y5548122D01*
X1376730Y5540248D01*
X1391107Y5533745D01*
X1394256Y5531510D01*
X1396390Y5528259D01*
X1397101Y5524500D01*
X1396339Y5520690D01*
X1394256Y5517438D01*
X1391107Y5515203D01*
X1376730Y5508752D01*
X1363726Y5500878D01*
X1351788Y5491530D01*
X1341069Y5480812D01*
X1331722Y5468874D01*
X1323848Y5455869D01*
X1317650Y5442051D01*
X1313129Y5427573D01*
X1310386Y5412638D01*
X1309471Y5397500D01*
X1310386Y5382361D01*
X1313129Y5367426D01*
X1317650Y5352948D01*
X1323848Y5339130D01*
X1331722Y5326126D01*
X1341069Y5314188D01*
X1351788Y5303469D01*
X1363726Y5294122D01*
X1376730Y5286248D01*
X1391208Y5279694D01*
X1405026Y5275529D01*
X1419961Y5272786D01*
X1435100Y5271871D01*
X1450238Y5272786D01*
X1465173Y5275529D01*
X1479092Y5279796D01*
X1493469Y5286248D01*
X1506474Y5294122D01*
X1518412Y5303469D01*
X1529130Y5314188D01*
X1538478Y5326126D01*
X1546352Y5339130D01*
X1552651Y5353202D01*
X1554734Y5356910D01*
X1558188Y5359450D01*
X1562354Y5360365D01*
X1833321Y5360365D01*
X1837689Y5359349D01*
X1841246Y5356555D01*
X1843227Y5352491D01*
X1843227Y5347970D01*
X1841296Y5343906D01*
X1839722Y5341874D01*
X1831848Y5328869D01*
X1825650Y5315051D01*
X1821129Y5300573D01*
X1818386Y5285638D01*
X1817471Y5270500D01*
X1818386Y5255361D01*
X1821129Y5240426D01*
X1825650Y5225948D01*
X1831848Y5212130D01*
X1839722Y5199126D01*
X1849069Y5187188D01*
X1859788Y5176469D01*
X1871725Y5167122D01*
X1884730Y5159248D01*
X1899107Y5152745D01*
X1902256Y5150510D01*
X1904390Y5147259D01*
X1905101Y5143500D01*
X1904339Y5139690D01*
X1902256Y5136438D01*
X1899107Y5134203D01*
X1884730Y5127752D01*
X1871725Y5119878D01*
X1859788Y5110530D01*
X1849069Y5099812D01*
X1839722Y5087874D01*
X1831848Y5074869D01*
X1825650Y5061051D01*
X1821129Y5046573D01*
X1818386Y5031638D01*
X1817471Y5016500D01*
X1818386Y5001361D01*
X1821129Y4986426D01*
X1825650Y4971948D01*
X1831848Y4958130D01*
X1839722Y4945126D01*
X1841296Y4943094D01*
X1843227Y4939030D01*
X1843227Y4934508D01*
X1841246Y4930444D01*
X1837689Y4927650D01*
X1833321Y4926634D01*
X1562354Y4926634D01*
X1558188Y4927549D01*
X1554734Y4930089D01*
X1552549Y4934051D01*
X1546352Y4947869D01*
X1538478Y4960874D01*
X1529130Y4972812D01*
X1518412Y4983530D01*
X1506474Y4992878D01*
X1493469Y5000752D01*
X1478991Y5007305D01*
X1465173Y5011470D01*
X1450238Y5014214D01*
X1435100Y5015128D01*
X1419961Y5014214D01*
X1405026Y5011470D01*
X1391107Y5007203D01*
X1376730Y5000752D01*
X1363726Y4992878D01*
X1351788Y4983530D01*
X1341069Y4972812D01*
X1331722Y4960874D01*
X1323848Y4947869D01*
X1317650Y4934051D01*
X1313129Y4919573D01*
X1310386Y4904638D01*
X1309471Y4889500D01*
X1310386Y4874361D01*
X1313129Y4859426D01*
X1317650Y4844948D01*
X1323848Y4831130D01*
X1331722Y4818126D01*
X1341069Y4806188D01*
X1351788Y4795469D01*
X1363726Y4786122D01*
X1376730Y4778248D01*
X1391107Y4771745D01*
X1394256Y4769510D01*
X1396390Y4766259D01*
X1397101Y4762500D01*
X1396339Y4758690D01*
X1394256Y4755438D01*
X1391107Y4753203D01*
X1376730Y4746752D01*
X1363726Y4738878D01*
X1351788Y4729530D01*
X1341069Y4718812D01*
X1331722Y4706874D01*
X1323848Y4693869D01*
X1319276Y4683760D01*
X1317040Y4680559D01*
X1313840Y4678476D01*
X1310030Y4677765D01*
G37*

%LPC*%
G36*
X1378762Y5031333D02*
G01*
X1378762Y5087162D01*
X1322933Y5087162D01*
X1323848Y5085130D01*
X1331722Y5072126D01*
X1341069Y5060188D01*
X1351788Y5049469D01*
X1363726Y5040122D01*
X1376730Y5032248D01*
G37*
G36*
X1491437Y5031333D02*
G01*
X1493469Y5032248D01*
X1506474Y5040122D01*
X1518412Y5049469D01*
X1529130Y5060188D01*
X1538478Y5072126D01*
X1546352Y5085130D01*
X1547266Y5087162D01*
X1491437Y5087162D01*
G37*
G36*
X1491437Y5199837D02*
G01*
X1547266Y5199837D01*
X1546352Y5201869D01*
X1538478Y5214874D01*
X1529130Y5226812D01*
X1518412Y5237530D01*
X1506474Y5246878D01*
X1493469Y5254752D01*
X1491437Y5255666D01*
G37*
G36*
X1322933Y5199837D02*
G01*
X1378762Y5199837D01*
X1378762Y5255666D01*
X1376730Y5254752D01*
X1363726Y5246878D01*
X1351788Y5237530D01*
X1341069Y5226812D01*
X1331722Y5214874D01*
X1323848Y5201869D01*
G37*

%LPD*%
G36*
X3504133Y4527550D02*
G01*
X3500221Y4528312D01*
X3496919Y4530547D01*
X3142488Y4884877D01*
X3135528Y4890160D01*
X3127959Y4893919D01*
X3119882Y4896256D01*
X3111042Y4897069D01*
X2694635Y4897069D01*
X2690418Y4897983D01*
X2686964Y4900523D01*
X2684932Y4904282D01*
X2684576Y4908600D01*
X2686050Y4912614D01*
X2687675Y4915204D01*
X2689555Y4920589D01*
X2690266Y4926888D01*
X2690266Y4947970D01*
X2691028Y4951882D01*
X2693212Y4955184D01*
X2696514Y4957368D01*
X2700426Y4958130D01*
X2755849Y4958130D01*
X2759456Y4957470D01*
X2762605Y4955540D01*
X2764840Y4952644D01*
X2766060Y4948123D01*
X2767939Y4942687D01*
X2770987Y4937861D01*
X2775051Y4933797D01*
X2779877Y4930749D01*
X2785313Y4928870D01*
X2791561Y4928158D01*
X2880410Y4928158D01*
X2886659Y4928870D01*
X2892094Y4930749D01*
X2896920Y4933797D01*
X2900984Y4937861D01*
X2904032Y4942687D01*
X2905912Y4948123D01*
X2906623Y4954371D01*
X2906623Y5053228D01*
X2905912Y5059476D01*
X2904032Y5064912D01*
X2900984Y5069738D01*
X2896920Y5073802D01*
X2892094Y5076850D01*
X2886659Y5078730D01*
X2880410Y5079441D01*
X2791561Y5079441D01*
X2785313Y5078730D01*
X2779877Y5076850D01*
X2775051Y5073802D01*
X2770987Y5069738D01*
X2767939Y5064912D01*
X2766060Y5059476D01*
X2764840Y5054955D01*
X2762605Y5052060D01*
X2759456Y5050129D01*
X2755849Y5049469D01*
X2700426Y5049469D01*
X2696514Y5050231D01*
X2693212Y5052415D01*
X2691028Y5055717D01*
X2690266Y5059629D01*
X2690266Y5080711D01*
X2689555Y5087010D01*
X2687675Y5092395D01*
X2686050Y5094986D01*
X2684576Y5098999D01*
X2684932Y5103317D01*
X2686964Y5107076D01*
X2690418Y5109616D01*
X2694635Y5110530D01*
X3101086Y5110530D01*
X3104946Y5109768D01*
X3108248Y5107584D01*
X3640480Y4575403D01*
X3647490Y4570120D01*
X3655009Y4566361D01*
X3663137Y4564075D01*
X3671976Y4563262D01*
X3690061Y4563262D01*
X3693668Y4562602D01*
X3696817Y4560671D01*
X3699052Y4557776D01*
X3700272Y4553204D01*
X3701796Y4548784D01*
X3702405Y4545380D01*
X3701796Y4542028D01*
X3699052Y4533036D01*
X3696817Y4530140D01*
X3693668Y4528210D01*
X3690061Y4527550D01*
G37*

%LPC*%
G36*
X2961589Y4928158D02*
G01*
X2977134Y4928158D01*
X2977134Y4972456D01*
X2935325Y4972456D01*
X2935325Y4954371D01*
X2936036Y4948123D01*
X2937916Y4942687D01*
X2940964Y4937861D01*
X2945028Y4933797D01*
X2949905Y4930749D01*
X2955290Y4928870D01*
G37*
G36*
X2935325Y5035143D02*
G01*
X2977134Y5035143D01*
X2977134Y5079441D01*
X2961589Y5079441D01*
X2955290Y5078730D01*
X2949905Y5076850D01*
X2945028Y5073802D01*
X2940964Y5069738D01*
X2937916Y5064912D01*
X2936036Y5059476D01*
X2935325Y5053228D01*
G37*
G36*
X3034842Y5035143D02*
G01*
X3076651Y5035143D01*
X3076651Y5053228D01*
X3075940Y5059476D01*
X3074060Y5064912D01*
X3071012Y5069738D01*
X3066948Y5073802D01*
X3062071Y5076850D01*
X3056686Y5078730D01*
X3050438Y5079441D01*
X3034842Y5079441D01*
G37*
G36*
X3034842Y4928158D02*
G01*
X3050438Y4928158D01*
X3056686Y4928870D01*
X3062071Y4930749D01*
X3066948Y4933797D01*
X3071012Y4937861D01*
X3074060Y4942687D01*
X3075940Y4948123D01*
X3076651Y4954371D01*
X3076651Y4972456D01*
X3034842Y4972456D01*
G37*

%LPD*%
G36*
X3351733Y4400550D02*
G01*
X3347821Y4401312D01*
X3344519Y4403547D01*
X3167888Y4580077D01*
X3160928Y4585360D01*
X3153359Y4589119D01*
X3145282Y4591456D01*
X3136442Y4592269D01*
X2694635Y4592269D01*
X2690418Y4593183D01*
X2686964Y4595723D01*
X2684932Y4599482D01*
X2684576Y4603800D01*
X2686050Y4607814D01*
X2687675Y4610404D01*
X2689555Y4615789D01*
X2690266Y4622088D01*
X2690266Y4643170D01*
X2691028Y4647082D01*
X2693212Y4650384D01*
X2696514Y4652568D01*
X2700426Y4653330D01*
X2755849Y4653330D01*
X2759456Y4652670D01*
X2762605Y4650740D01*
X2764840Y4647844D01*
X2766060Y4643323D01*
X2767939Y4637887D01*
X2770987Y4633061D01*
X2775051Y4628997D01*
X2779877Y4625949D01*
X2785313Y4624070D01*
X2791561Y4623358D01*
X2880410Y4623358D01*
X2886659Y4624070D01*
X2892094Y4625949D01*
X2896920Y4628997D01*
X2900984Y4633061D01*
X2904032Y4637887D01*
X2905912Y4643323D01*
X2906623Y4649571D01*
X2906623Y4748428D01*
X2905912Y4754676D01*
X2904032Y4760112D01*
X2900984Y4764938D01*
X2896920Y4769002D01*
X2892094Y4772050D01*
X2886659Y4773930D01*
X2880410Y4774641D01*
X2791561Y4774641D01*
X2785313Y4773930D01*
X2779877Y4772050D01*
X2775051Y4769002D01*
X2770987Y4764938D01*
X2767939Y4760112D01*
X2766060Y4754676D01*
X2764840Y4750155D01*
X2762605Y4747260D01*
X2759456Y4745329D01*
X2755849Y4744669D01*
X2700426Y4744669D01*
X2696514Y4745431D01*
X2693212Y4747615D01*
X2691028Y4750917D01*
X2690266Y4754829D01*
X2690266Y4775911D01*
X2689555Y4782210D01*
X2687675Y4787595D01*
X2686050Y4790186D01*
X2684576Y4794199D01*
X2684932Y4798517D01*
X2686964Y4802276D01*
X2690418Y4804816D01*
X2694635Y4805730D01*
X3088386Y4805730D01*
X3092246Y4804968D01*
X3095548Y4802784D01*
X3449980Y4448403D01*
X3456990Y4443120D01*
X3464509Y4439361D01*
X3472637Y4437075D01*
X3481476Y4436262D01*
X3690061Y4436262D01*
X3693668Y4435602D01*
X3696817Y4433671D01*
X3699052Y4430776D01*
X3700272Y4426204D01*
X3701796Y4421784D01*
X3702405Y4418380D01*
X3701796Y4415028D01*
X3699052Y4406036D01*
X3696817Y4403140D01*
X3693668Y4401210D01*
X3690061Y4400550D01*
G37*

%LPC*%
G36*
X3034842Y4623358D02*
G01*
X3050438Y4623358D01*
X3056686Y4624070D01*
X3062071Y4625949D01*
X3066948Y4628997D01*
X3071012Y4633061D01*
X3074060Y4637887D01*
X3075940Y4643323D01*
X3076651Y4649571D01*
X3076651Y4667656D01*
X3034842Y4667656D01*
G37*
G36*
X2935325Y4730343D02*
G01*
X2977134Y4730343D01*
X2977134Y4774641D01*
X2961589Y4774641D01*
X2955290Y4773930D01*
X2949905Y4772050D01*
X2945028Y4769002D01*
X2940964Y4764938D01*
X2937916Y4760112D01*
X2936036Y4754676D01*
X2935325Y4748428D01*
G37*
G36*
X3034842Y4730343D02*
G01*
X3076651Y4730343D01*
X3076651Y4748428D01*
X3075940Y4754676D01*
X3074060Y4760112D01*
X3071012Y4764938D01*
X3066948Y4769002D01*
X3062071Y4772050D01*
X3056686Y4773930D01*
X3050438Y4774641D01*
X3034842Y4774641D01*
G37*
G36*
X2961589Y4623358D02*
G01*
X2977134Y4623358D01*
X2977134Y4667656D01*
X2935325Y4667656D01*
X2935325Y4649571D01*
X2936036Y4643323D01*
X2937916Y4637887D01*
X2940964Y4633061D01*
X2945028Y4628997D01*
X2949905Y4625949D01*
X2955290Y4624070D01*
G37*

%LPD*%
G36*
X735838Y1725675D02*
G01*
X731926Y1726438D01*
X728675Y1728673D01*
X726440Y1731924D01*
X725678Y1735836D01*
X725678Y2978200D01*
X726440Y2982112D01*
X728675Y2985363D01*
X731926Y2987598D01*
X735838Y2988360D01*
X739749Y2987598D01*
X743000Y2985363D01*
X870508Y2857855D01*
X872744Y2854604D01*
X873506Y2850692D01*
X873506Y2773070D01*
X874217Y2766822D01*
X876096Y2761386D01*
X879144Y2756560D01*
X883208Y2752496D01*
X888034Y2749448D01*
X893470Y2747568D01*
X899718Y2746857D01*
X1056081Y2746857D01*
X1062329Y2747568D01*
X1067765Y2749448D01*
X1072591Y2752496D01*
X1076655Y2756560D01*
X1079703Y2761386D01*
X1081582Y2766822D01*
X1082294Y2773070D01*
X1082294Y2941929D01*
X1081582Y2948178D01*
X1079703Y2953613D01*
X1076655Y2958439D01*
X1072591Y2962503D01*
X1067765Y2965551D01*
X1062329Y2967431D01*
X1056081Y2968142D01*
X978458Y2968142D01*
X974547Y2968904D01*
X971245Y2971139D01*
X866038Y3076346D01*
X863803Y3079648D01*
X863041Y3083560D01*
X863041Y3187446D01*
X863803Y3191357D01*
X866038Y3194608D01*
X869340Y3196844D01*
X873201Y3197606D01*
X1017981Y3197606D01*
X1024229Y3198317D01*
X1029665Y3200196D01*
X1034491Y3203244D01*
X1038555Y3207308D01*
X1041603Y3212134D01*
X1043482Y3217570D01*
X1044194Y3223818D01*
X1044194Y3302254D01*
X1044956Y3306165D01*
X1047191Y3309467D01*
X1082446Y3344722D01*
X1085748Y3346958D01*
X1089660Y3347720D01*
X1148080Y3347720D01*
X1148080Y3406140D01*
X1148842Y3410051D01*
X1151077Y3413353D01*
X1302664Y3564940D01*
X1305407Y3566871D01*
X1308709Y3567836D01*
X1312113Y3567633D01*
X1315212Y3566363D01*
X1318107Y3564534D01*
X1323492Y3562654D01*
X1329791Y3561943D01*
X1448612Y3561943D01*
X1454912Y3562654D01*
X1460296Y3564534D01*
X1465173Y3567582D01*
X1469186Y3571646D01*
X1470964Y3574440D01*
X1473758Y3577386D01*
X1477518Y3578961D01*
X1481582Y3578961D01*
X1485341Y3577386D01*
X1488135Y3574440D01*
X1489913Y3571646D01*
X1493926Y3567582D01*
X1498803Y3564534D01*
X1504188Y3562654D01*
X1510487Y3561943D01*
X1629308Y3561943D01*
X1635607Y3562654D01*
X1640992Y3564534D01*
X1645869Y3567582D01*
X1649882Y3571646D01*
X1652981Y3576472D01*
X1654860Y3581908D01*
X1655572Y3588156D01*
X1655572Y3727043D01*
X1654860Y3733241D01*
X1652473Y3739946D01*
X1651863Y3743756D01*
X1652778Y3747566D01*
X1655064Y3750716D01*
X1658366Y3752799D01*
X1662175Y3753510D01*
X1665986Y3752697D01*
X1669237Y3750513D01*
X1678990Y3740759D01*
X1681175Y3737508D01*
X1681937Y3733596D01*
X1681937Y3492906D01*
X1682851Y3481476D01*
X1685442Y3470656D01*
X1689658Y3460445D01*
X1695450Y3450996D01*
X1702663Y3442563D01*
X1711096Y3435350D01*
X1720545Y3429558D01*
X1730756Y3425342D01*
X1741576Y3422751D01*
X1753006Y3421837D01*
X1923288Y3421837D01*
X1927301Y3421024D01*
X1930603Y3418738D01*
X1932787Y3415284D01*
X1933448Y3411321D01*
X1932482Y3407359D01*
X1930095Y3404108D01*
X1926589Y3402076D01*
X1915871Y3398418D01*
X1903628Y3392373D01*
X1892249Y3384804D01*
X1881987Y3375812D01*
X1872996Y3365550D01*
X1865426Y3354171D01*
X1859381Y3341928D01*
X1854962Y3329025D01*
X1852320Y3315614D01*
X1851406Y3302000D01*
X1852320Y3288385D01*
X1854962Y3274974D01*
X1859381Y3262071D01*
X1865426Y3249828D01*
X1872996Y3238449D01*
X1881987Y3228187D01*
X1892249Y3219196D01*
X1903628Y3211626D01*
X1915871Y3205581D01*
X1928774Y3201162D01*
X1942185Y3198520D01*
X1955800Y3197606D01*
X1969414Y3198520D01*
X1982825Y3201162D01*
X1995728Y3205581D01*
X2007971Y3211626D01*
X2019350Y3219196D01*
X2029612Y3228187D01*
X2038604Y3238449D01*
X2046173Y3249828D01*
X2052218Y3262071D01*
X2056638Y3274974D01*
X2059279Y3288385D01*
X2060193Y3302000D01*
X2059279Y3315614D01*
X2056638Y3328924D01*
X2056688Y3333242D01*
X2058517Y3337102D01*
X2061819Y3339896D01*
X2065934Y3341065D01*
X2070150Y3340404D01*
X2073757Y3338118D01*
X2102459Y3309416D01*
X2104542Y3306419D01*
X2105406Y3302914D01*
X2106320Y3288385D01*
X2108962Y3274974D01*
X2113381Y3262071D01*
X2119426Y3249828D01*
X2126996Y3238449D01*
X2135987Y3228187D01*
X2146249Y3219196D01*
X2157628Y3211626D01*
X2169871Y3205581D01*
X2182774Y3201162D01*
X2196185Y3198520D01*
X2209800Y3197606D01*
X2223414Y3198520D01*
X2236825Y3201162D01*
X2249728Y3205581D01*
X2261971Y3211626D01*
X2273350Y3219196D01*
X2283612Y3228187D01*
X2292604Y3238449D01*
X2300173Y3249828D01*
X2306218Y3262071D01*
X2310638Y3274974D01*
X2313279Y3288385D01*
X2314194Y3302000D01*
X2313279Y3315614D01*
X2310638Y3329025D01*
X2306218Y3341928D01*
X2300173Y3354171D01*
X2292604Y3365550D01*
X2283612Y3375812D01*
X2273350Y3384804D01*
X2261971Y3392373D01*
X2249728Y3398418D01*
X2236825Y3402837D01*
X2223414Y3405479D01*
X2208885Y3406394D01*
X2205380Y3407257D01*
X2202383Y3409340D01*
X2069541Y3542182D01*
X2060803Y3549650D01*
X2051354Y3555441D01*
X2041143Y3559657D01*
X2030323Y3562248D01*
X2018893Y3563162D01*
X2002586Y3563162D01*
X1998827Y3563874D01*
X1995576Y3565956D01*
X1993341Y3569106D01*
X1992477Y3572865D01*
X1993036Y3576675D01*
X1994865Y3581908D01*
X1995576Y3588156D01*
X1995576Y3616248D01*
X1946249Y3616248D01*
X1946249Y3573322D01*
X1945487Y3569411D01*
X1943252Y3566109D01*
X1940001Y3563924D01*
X1936089Y3563162D01*
X1883714Y3563162D01*
X1879803Y3563924D01*
X1876501Y3566109D01*
X1874316Y3569411D01*
X1873554Y3573322D01*
X1873554Y3616248D01*
X1833422Y3616248D01*
X1829511Y3617010D01*
X1826209Y3619246D01*
X1824024Y3622497D01*
X1823262Y3626408D01*
X1823262Y3688791D01*
X1824024Y3692702D01*
X1826209Y3695954D01*
X1829511Y3698189D01*
X1833422Y3698951D01*
X1873554Y3698951D01*
X1873554Y3753256D01*
X1850491Y3753256D01*
X1844192Y3752545D01*
X1834743Y3749192D01*
X1830476Y3749548D01*
X1826717Y3751630D01*
X1824177Y3755085D01*
X1823262Y3759250D01*
X1823262Y3766667D01*
X1822348Y3778097D01*
X1819757Y3788918D01*
X1815541Y3799128D01*
X1809750Y3808577D01*
X1802282Y3817315D01*
X1658518Y3961079D01*
X1656334Y3964381D01*
X1655572Y3968242D01*
X1655572Y4019143D01*
X1654860Y4025392D01*
X1652981Y4030827D01*
X1649882Y4035653D01*
X1642821Y4042257D01*
X1641195Y4045254D01*
X1640636Y4048607D01*
X1640636Y4165396D01*
X1641398Y4169308D01*
X1643583Y4172559D01*
X1820113Y4349089D01*
X1823415Y4351274D01*
X1827275Y4352036D01*
X1831187Y4351274D01*
X1834489Y4349089D01*
X1836674Y4345787D01*
X1837436Y4341876D01*
X1837436Y4310837D01*
X1896770Y4310837D01*
X1896770Y4377791D01*
X1897430Y4381500D01*
X1899462Y4384700D01*
X1902510Y4386935D01*
X1906168Y4387900D01*
X1909927Y4387494D01*
X1913026Y4386529D01*
X1927961Y4383786D01*
X1943100Y4382871D01*
X1958238Y4383786D01*
X1973173Y4386529D01*
X1976272Y4387494D01*
X1980031Y4387900D01*
X1983689Y4386935D01*
X1986737Y4384700D01*
X1988769Y4381500D01*
X1989429Y4377791D01*
X1989429Y4310837D01*
X2048764Y4310837D01*
X2048764Y4353915D01*
X2048052Y4360214D01*
X2046173Y4365599D01*
X2043125Y4370476D01*
X2039061Y4374489D01*
X2034184Y4377537D01*
X2028799Y4379468D01*
X2022551Y4380128D01*
X2009648Y4380128D01*
X2005380Y4381093D01*
X2001926Y4383735D01*
X1999843Y4387596D01*
X1999589Y4391964D01*
X2001215Y4395978D01*
X2004364Y4399026D01*
X2014474Y4405122D01*
X2026412Y4414469D01*
X2037130Y4425188D01*
X2046478Y4437126D01*
X2054352Y4450130D01*
X2060549Y4463948D01*
X2065070Y4478426D01*
X2067814Y4493361D01*
X2068728Y4508500D01*
X2067814Y4523638D01*
X2065070Y4538573D01*
X2060549Y4553051D01*
X2054352Y4566869D01*
X2051557Y4571441D01*
X2050186Y4575403D01*
X2050542Y4579569D01*
X2052472Y4583277D01*
X2055774Y4585817D01*
X2059838Y4586884D01*
X2063953Y4586173D01*
X2067458Y4583887D01*
X2283917Y4367428D01*
X2290114Y4362348D01*
X2296718Y4358792D01*
X2303932Y4356608D01*
X2311908Y4355846D01*
X2328773Y4355846D01*
X2332685Y4355084D01*
X2335987Y4352848D01*
X2338171Y4349597D01*
X2338933Y4345686D01*
X2338933Y4317288D01*
X2339644Y4310989D01*
X2341524Y4305604D01*
X2344572Y4300728D01*
X2348636Y4296714D01*
X2353513Y4293666D01*
X2358898Y4291736D01*
X2365146Y4291025D01*
X2371750Y4291025D01*
X2376017Y4290110D01*
X2379472Y4287469D01*
X2382520Y4283913D01*
X2724912Y3941622D01*
X2731871Y3936339D01*
X2739440Y3932580D01*
X2747518Y3930243D01*
X2756357Y3929430D01*
X4330446Y3929430D01*
X4334916Y3929634D01*
X4339082Y3930243D01*
X4343196Y3931208D01*
X4347210Y3932529D01*
X4351020Y3934256D01*
X4354728Y3936288D01*
X4358182Y3938676D01*
X4361434Y3941368D01*
X4364431Y3944365D01*
X4367123Y3947617D01*
X4369511Y3951071D01*
X4371543Y3954779D01*
X4373270Y3958590D01*
X4374591Y3962603D01*
X4375556Y3966718D01*
X4376166Y3970883D01*
X4376369Y3975354D01*
X4376369Y4019753D01*
X4377029Y4023360D01*
X4378960Y4026509D01*
X4381855Y4028744D01*
X4386376Y4029964D01*
X4390847Y4031487D01*
X4394200Y4032097D01*
X4397552Y4031487D01*
X4402023Y4029964D01*
X4408271Y4029252D01*
X4507128Y4029252D01*
X4513376Y4029964D01*
X4517847Y4031487D01*
X4521200Y4032097D01*
X4524552Y4031487D01*
X4529023Y4029964D01*
X4535271Y4029252D01*
X4634128Y4029252D01*
X4640376Y4029964D01*
X4644847Y4031487D01*
X4648200Y4032097D01*
X4651552Y4031487D01*
X4656023Y4029964D01*
X4662271Y4029252D01*
X4761128Y4029252D01*
X4767376Y4029964D01*
X4771847Y4031487D01*
X4775200Y4032097D01*
X4778552Y4031487D01*
X4783023Y4029964D01*
X4789271Y4029252D01*
X4888128Y4029252D01*
X4894376Y4029964D01*
X4898847Y4031487D01*
X4902200Y4032097D01*
X4905552Y4031487D01*
X4910023Y4029964D01*
X4916271Y4029252D01*
X5015128Y4029252D01*
X5021376Y4029964D01*
X5025847Y4031487D01*
X5029200Y4032097D01*
X5032552Y4031487D01*
X5037023Y4029964D01*
X5043271Y4029252D01*
X5142128Y4029252D01*
X5148376Y4029964D01*
X5152847Y4031487D01*
X5156200Y4032097D01*
X5159552Y4031487D01*
X5164023Y4029964D01*
X5170271Y4029252D01*
X5269128Y4029252D01*
X5275376Y4029964D01*
X5279847Y4031487D01*
X5283200Y4032097D01*
X5286552Y4031487D01*
X5291023Y4029964D01*
X5297271Y4029252D01*
X5396128Y4029252D01*
X5402376Y4029964D01*
X5407812Y4031843D01*
X5412638Y4034891D01*
X5416702Y4038955D01*
X5419750Y4043781D01*
X5420512Y4045915D01*
X5422595Y4049420D01*
X5425897Y4051808D01*
X5429859Y4052722D01*
X5433872Y4052011D01*
X5437276Y4049776D01*
X5634380Y3852722D01*
X5641390Y3847439D01*
X5648909Y3843680D01*
X5657037Y3841343D01*
X5665876Y3840530D01*
X5999073Y3840530D01*
X6002985Y3839768D01*
X6006287Y3837584D01*
X6008471Y3834282D01*
X6009233Y3830370D01*
X6009233Y3809288D01*
X6009944Y3802989D01*
X6011824Y3797604D01*
X6014872Y3792728D01*
X6018936Y3788714D01*
X6023813Y3785666D01*
X6029198Y3783736D01*
X6035446Y3783025D01*
X6134354Y3783025D01*
X6140602Y3783736D01*
X6145987Y3785666D01*
X6150864Y3788714D01*
X6154928Y3792728D01*
X6157976Y3797604D01*
X6159855Y3802989D01*
X6160566Y3809288D01*
X6160566Y3963111D01*
X6159855Y3969410D01*
X6157976Y3974795D01*
X6154928Y3979672D01*
X6150864Y3983685D01*
X6145987Y3986733D01*
X6140602Y3988663D01*
X6134354Y3989374D01*
X6035446Y3989374D01*
X6029198Y3988663D01*
X6023813Y3986733D01*
X6018936Y3983685D01*
X6014872Y3979672D01*
X6011824Y3974795D01*
X6009944Y3969410D01*
X6009233Y3963111D01*
X6009233Y3942029D01*
X6008471Y3938117D01*
X6006287Y3934815D01*
X6002985Y3932631D01*
X5999073Y3931869D01*
X5688533Y3931869D01*
X5684621Y3932631D01*
X5681319Y3934815D01*
X5425338Y4190847D01*
X5423103Y4194149D01*
X5422341Y4198010D01*
X5422341Y4354322D01*
X5421630Y4360570D01*
X5419750Y4366006D01*
X5416702Y4370832D01*
X5412638Y4374896D01*
X5407812Y4377944D01*
X5402376Y4379823D01*
X5396128Y4380534D01*
X5297271Y4380534D01*
X5291023Y4379823D01*
X5286552Y4378299D01*
X5283200Y4377690D01*
X5279847Y4378299D01*
X5270855Y4381042D01*
X5267960Y4383278D01*
X5266029Y4386427D01*
X5265369Y4390034D01*
X5265369Y4447641D01*
X5265826Y4450689D01*
X5268315Y4455058D01*
X5272430Y4463897D01*
X5274970Y4473346D01*
X5275834Y4483100D01*
X5274970Y4492853D01*
X5272430Y4502302D01*
X5268315Y4511141D01*
X5262676Y4519168D01*
X5255768Y4526076D01*
X5247741Y4531715D01*
X5238902Y4535830D01*
X5229453Y4538370D01*
X5219700Y4539234D01*
X5209946Y4538370D01*
X5200497Y4535830D01*
X5191658Y4531715D01*
X5183632Y4526076D01*
X5176723Y4519168D01*
X5171084Y4511141D01*
X5166969Y4502302D01*
X5164429Y4492853D01*
X5163566Y4483100D01*
X5164429Y4473346D01*
X5166969Y4463897D01*
X5171084Y4455058D01*
X5173573Y4450689D01*
X5174030Y4447641D01*
X5174030Y4390034D01*
X5173370Y4386427D01*
X5171440Y4383278D01*
X5168544Y4381042D01*
X5164023Y4379823D01*
X5159552Y4378299D01*
X5156200Y4377690D01*
X5152847Y4378299D01*
X5148376Y4379823D01*
X5142128Y4380534D01*
X5043271Y4380534D01*
X5037023Y4379823D01*
X5032552Y4378299D01*
X5029200Y4377690D01*
X5025847Y4378299D01*
X5021376Y4379823D01*
X5015128Y4380534D01*
X4916271Y4380534D01*
X4910023Y4379823D01*
X4905552Y4378299D01*
X4902200Y4377690D01*
X4898847Y4378299D01*
X4894376Y4379823D01*
X4888128Y4380534D01*
X4789271Y4380534D01*
X4783023Y4379823D01*
X4778552Y4378299D01*
X4775200Y4377690D01*
X4771847Y4378299D01*
X4767376Y4379823D01*
X4761128Y4380534D01*
X4662271Y4380534D01*
X4656023Y4379823D01*
X4651552Y4378299D01*
X4648200Y4377690D01*
X4644847Y4378299D01*
X4640376Y4379823D01*
X4634128Y4380534D01*
X4535271Y4380534D01*
X4529023Y4379823D01*
X4524552Y4378299D01*
X4521200Y4377690D01*
X4517847Y4378299D01*
X4513376Y4379823D01*
X4507128Y4380534D01*
X4408271Y4380534D01*
X4402023Y4379823D01*
X4397552Y4378299D01*
X4394200Y4377690D01*
X4390847Y4378299D01*
X4386376Y4379823D01*
X4380128Y4380534D01*
X4281271Y4380534D01*
X4275023Y4379823D01*
X4270552Y4378299D01*
X4267200Y4377690D01*
X4263847Y4378299D01*
X4259376Y4379823D01*
X4253128Y4380534D01*
X4235043Y4380534D01*
X4235043Y4286250D01*
X4244898Y4286250D01*
X4248759Y4285488D01*
X4252061Y4283252D01*
X4254296Y4279950D01*
X4255058Y4276090D01*
X4255058Y4133697D01*
X4254296Y4129836D01*
X4252061Y4126534D01*
X4248759Y4124299D01*
X4244898Y4123537D01*
X4235043Y4123537D01*
X4235043Y4030929D01*
X4234281Y4027017D01*
X4232097Y4023715D01*
X4228795Y4021531D01*
X4224883Y4020769D01*
X4182516Y4020769D01*
X4178604Y4021531D01*
X4175302Y4023715D01*
X4173118Y4027017D01*
X4172356Y4030929D01*
X4172356Y4123537D01*
X4128058Y4123537D01*
X4128058Y4055465D01*
X4128770Y4049217D01*
X4130649Y4043781D01*
X4133697Y4038955D01*
X4136745Y4034790D01*
X4137507Y4030929D01*
X4136745Y4027017D01*
X4134510Y4023715D01*
X4131259Y4021531D01*
X4127347Y4020769D01*
X2779014Y4020769D01*
X2775153Y4021531D01*
X2771851Y4023715D01*
X2492502Y4303064D01*
X2490724Y4305503D01*
X2489708Y4308348D01*
X2489606Y4311396D01*
X2490266Y4317288D01*
X2490266Y4471111D01*
X2489555Y4477410D01*
X2487676Y4482795D01*
X2484628Y4487672D01*
X2480564Y4491685D01*
X2475687Y4494733D01*
X2470302Y4496663D01*
X2464054Y4497374D01*
X2365146Y4497374D01*
X2358898Y4496663D01*
X2353513Y4494733D01*
X2348636Y4491685D01*
X2344572Y4487672D01*
X2341524Y4482795D01*
X2339644Y4477410D01*
X2338933Y4471111D01*
X2338933Y4445406D01*
X2338171Y4441545D01*
X2335987Y4438243D01*
X2332685Y4436059D01*
X2328773Y4435246D01*
X2324912Y4436059D01*
X2321610Y4438243D01*
X2059736Y4700117D01*
X2057501Y4703521D01*
X2056739Y4707483D01*
X2057654Y4711446D01*
X2060549Y4717948D01*
X2065070Y4732426D01*
X2067814Y4747361D01*
X2068728Y4762500D01*
X2067814Y4777638D01*
X2065070Y4792573D01*
X2060549Y4807051D01*
X2054352Y4820869D01*
X2046478Y4833874D01*
X2044903Y4835906D01*
X2042972Y4839970D01*
X2042972Y4844491D01*
X2044954Y4848555D01*
X2048510Y4851349D01*
X2052878Y4852365D01*
X2204516Y4852365D01*
X2208377Y4851552D01*
X2211679Y4849368D01*
X2335987Y4725111D01*
X2338171Y4721809D01*
X2338933Y4717897D01*
X2338933Y4622088D01*
X2339644Y4615789D01*
X2341524Y4610404D01*
X2344572Y4605528D01*
X2348636Y4601514D01*
X2353513Y4598466D01*
X2358898Y4596536D01*
X2365146Y4595825D01*
X2409291Y4595825D01*
X2413152Y4595063D01*
X2416454Y4592878D01*
X2496312Y4513122D01*
X2503271Y4507839D01*
X2510840Y4504080D01*
X2518918Y4501743D01*
X2527757Y4500930D01*
X2534564Y4500930D01*
X2538780Y4500016D01*
X2542235Y4497476D01*
X2544267Y4493717D01*
X2544622Y4489399D01*
X2543149Y4485386D01*
X2541524Y4482795D01*
X2539644Y4477410D01*
X2538933Y4471111D01*
X2538933Y4317288D01*
X2539644Y4310989D01*
X2541524Y4305604D01*
X2544572Y4300728D01*
X2548636Y4296714D01*
X2553512Y4293666D01*
X2558897Y4291736D01*
X2565146Y4291025D01*
X2664053Y4291025D01*
X2670302Y4291736D01*
X2675686Y4293666D01*
X2680563Y4296714D01*
X2684627Y4300728D01*
X2687675Y4305604D01*
X2689555Y4310989D01*
X2690266Y4317288D01*
X2690266Y4338370D01*
X2691028Y4342282D01*
X2693212Y4345584D01*
X2696514Y4347768D01*
X2700426Y4348530D01*
X2755849Y4348530D01*
X2759456Y4347870D01*
X2762605Y4345940D01*
X2764840Y4343044D01*
X2766060Y4338523D01*
X2767939Y4333087D01*
X2770987Y4328261D01*
X2775051Y4324197D01*
X2779877Y4321149D01*
X2785313Y4319270D01*
X2791561Y4318558D01*
X2880410Y4318558D01*
X2886659Y4319270D01*
X2892094Y4321149D01*
X2896920Y4324197D01*
X2900984Y4328261D01*
X2904032Y4333087D01*
X2905912Y4338523D01*
X2906623Y4344771D01*
X2906623Y4443628D01*
X2905912Y4449876D01*
X2904032Y4455312D01*
X2900984Y4460138D01*
X2896920Y4464202D01*
X2892094Y4467250D01*
X2886659Y4469130D01*
X2880410Y4469841D01*
X2791561Y4469841D01*
X2785313Y4469130D01*
X2779877Y4467250D01*
X2775051Y4464202D01*
X2770987Y4460138D01*
X2767939Y4455312D01*
X2766060Y4449876D01*
X2764840Y4445355D01*
X2762605Y4442460D01*
X2759456Y4440529D01*
X2755849Y4439869D01*
X2700426Y4439869D01*
X2696514Y4440631D01*
X2693212Y4442815D01*
X2691028Y4446117D01*
X2690266Y4450029D01*
X2690266Y4471111D01*
X2689555Y4477410D01*
X2687675Y4482795D01*
X2686050Y4485386D01*
X2684576Y4489399D01*
X2684932Y4493717D01*
X2686964Y4497476D01*
X2690418Y4500016D01*
X2694635Y4500930D01*
X3113786Y4500930D01*
X3117646Y4500168D01*
X3120948Y4497984D01*
X3297580Y4321403D01*
X3304590Y4316120D01*
X3312109Y4312361D01*
X3320237Y4310075D01*
X3329076Y4309262D01*
X3690061Y4309262D01*
X3693668Y4308602D01*
X3696817Y4306671D01*
X3699052Y4303776D01*
X3700272Y4299204D01*
X3702151Y4293819D01*
X3705199Y4288942D01*
X3709263Y4284878D01*
X3714089Y4281830D01*
X3719525Y4279950D01*
X3725773Y4279239D01*
X4024629Y4279239D01*
X4030878Y4279950D01*
X4036314Y4281830D01*
X4041140Y4284878D01*
X4045204Y4288942D01*
X4048251Y4293819D01*
X4050131Y4299204D01*
X4050842Y4305452D01*
X4050842Y4404360D01*
X4050131Y4410608D01*
X4048607Y4415028D01*
X4047998Y4418380D01*
X4048607Y4421784D01*
X4050131Y4426204D01*
X4050842Y4432452D01*
X4050842Y4531360D01*
X4050131Y4537608D01*
X4048607Y4542028D01*
X4047998Y4545380D01*
X4048607Y4548784D01*
X4050131Y4553204D01*
X4050842Y4559452D01*
X4050842Y4658360D01*
X4050131Y4664608D01*
X4048607Y4669028D01*
X4047998Y4672380D01*
X4048607Y4675784D01*
X4050131Y4680204D01*
X4050842Y4686452D01*
X4050842Y4785360D01*
X4050131Y4791608D01*
X4048607Y4796028D01*
X4047998Y4799380D01*
X4048607Y4802784D01*
X4050131Y4807204D01*
X4050842Y4813452D01*
X4050842Y4912360D01*
X4050131Y4918608D01*
X4048607Y4923028D01*
X4047998Y4926380D01*
X4048607Y4929784D01*
X4050131Y4934204D01*
X4051452Y4939639D01*
X4053687Y4942535D01*
X4056786Y4944465D01*
X4060393Y4945176D01*
X4079595Y4945278D01*
X4082643Y4944821D01*
X4086758Y4942535D01*
X4095597Y4938369D01*
X4105046Y4935880D01*
X4114800Y4935016D01*
X4124553Y4935880D01*
X4134002Y4938369D01*
X4142841Y4942535D01*
X4150868Y4948123D01*
X4157776Y4955032D01*
X4163364Y4963058D01*
X4167530Y4971897D01*
X4170019Y4981346D01*
X4170883Y4991100D01*
X4170019Y5000853D01*
X4167530Y5010302D01*
X4163364Y5019141D01*
X4157776Y5027168D01*
X4150868Y5034076D01*
X4142841Y5039664D01*
X4134002Y5043830D01*
X4130344Y5044795D01*
X4126433Y5046827D01*
X4123791Y5050282D01*
X4122826Y5054600D01*
X4123791Y5058918D01*
X4126433Y5062372D01*
X4130344Y5064404D01*
X4134002Y5065369D01*
X4142841Y5069535D01*
X4150868Y5075123D01*
X4157776Y5082032D01*
X4163364Y5090058D01*
X4167530Y5098897D01*
X4170019Y5108346D01*
X4170883Y5118100D01*
X4170019Y5127853D01*
X4167530Y5137302D01*
X4163364Y5146141D01*
X4157776Y5154168D01*
X4150868Y5161076D01*
X4142841Y5166664D01*
X4134002Y5170830D01*
X4124553Y5173319D01*
X4114800Y5174183D01*
X4105046Y5173319D01*
X4095597Y5170830D01*
X4086758Y5166664D01*
X4082186Y5164023D01*
X4079138Y5163566D01*
X4060291Y5163464D01*
X4056684Y5164124D01*
X4053484Y5166055D01*
X4051249Y5168950D01*
X4048607Y5177028D01*
X4047998Y5180380D01*
X4048607Y5183784D01*
X4050131Y5188204D01*
X4050842Y5194452D01*
X4050842Y5293360D01*
X4050131Y5299608D01*
X4048607Y5304028D01*
X4047998Y5307380D01*
X4048607Y5310784D01*
X4050131Y5315204D01*
X4050842Y5321452D01*
X4050842Y5420360D01*
X4050131Y5426608D01*
X4048607Y5431028D01*
X4047998Y5434380D01*
X4048607Y5437784D01*
X4050131Y5442204D01*
X4050842Y5448452D01*
X4050842Y5547360D01*
X4050131Y5553608D01*
X4048607Y5558028D01*
X4047998Y5561380D01*
X4048607Y5564784D01*
X4050131Y5569204D01*
X4051401Y5574588D01*
X4053687Y5577484D01*
X4056786Y5579414D01*
X4060393Y5580126D01*
X4092295Y5580278D01*
X4095343Y5579821D01*
X4099458Y5577535D01*
X4108297Y5573369D01*
X4117746Y5570880D01*
X4127500Y5570016D01*
X4137253Y5570880D01*
X4146702Y5573369D01*
X4155541Y5577535D01*
X4163568Y5583123D01*
X4170476Y5590032D01*
X4176064Y5598058D01*
X4180230Y5606897D01*
X4182719Y5616346D01*
X4183583Y5626100D01*
X4182719Y5635853D01*
X4180230Y5645302D01*
X4176064Y5654141D01*
X4170476Y5662168D01*
X4163568Y5669076D01*
X4155541Y5674664D01*
X4146702Y5678830D01*
X4137253Y5681319D01*
X4127500Y5682183D01*
X4117746Y5681319D01*
X4108297Y5678830D01*
X4099458Y5674664D01*
X4094886Y5672074D01*
X4091889Y5671566D01*
X4060291Y5671413D01*
X4056684Y5672074D01*
X4053535Y5674004D01*
X4051249Y5676900D01*
X4048607Y5685028D01*
X4047998Y5688380D01*
X4048607Y5691784D01*
X4051350Y5700776D01*
X4053586Y5703671D01*
X4056735Y5705602D01*
X4060342Y5706262D01*
X4953558Y5706313D01*
X4962245Y5707532D01*
X4970221Y5710174D01*
X4977587Y5714288D01*
X4984445Y5719978D01*
X5352237Y6087770D01*
X5355590Y6090005D01*
X5359603Y6090716D01*
X5363565Y6089853D01*
X5366867Y6087465D01*
X5368950Y6084011D01*
X5369560Y6079947D01*
X5368493Y6076035D01*
X5367680Y6074359D01*
X5365343Y6066282D01*
X5364530Y6057442D01*
X5364581Y5675122D01*
X5365800Y5666435D01*
X5368493Y5658459D01*
X5372557Y5651144D01*
X5378246Y5644286D01*
X5431180Y5591403D01*
X5438190Y5586120D01*
X5445709Y5582361D01*
X5453837Y5580075D01*
X5462676Y5579262D01*
X5490057Y5579262D01*
X5493664Y5578602D01*
X5496814Y5576671D01*
X5499049Y5573776D01*
X5500268Y5569204D01*
X5501792Y5564784D01*
X5502402Y5561380D01*
X5501792Y5558028D01*
X5500268Y5553608D01*
X5499557Y5547360D01*
X5499557Y5448452D01*
X5500268Y5442204D01*
X5501792Y5437784D01*
X5502402Y5434380D01*
X5501792Y5431028D01*
X5500268Y5426608D01*
X5499557Y5420360D01*
X5499557Y5321452D01*
X5500268Y5315204D01*
X5501792Y5310784D01*
X5502402Y5307380D01*
X5501792Y5304028D01*
X5500268Y5299608D01*
X5499557Y5293360D01*
X5499557Y5194452D01*
X5500268Y5188204D01*
X5501792Y5183784D01*
X5502402Y5180380D01*
X5501792Y5177028D01*
X5500268Y5172608D01*
X5499557Y5166360D01*
X5499557Y5067452D01*
X5500268Y5061204D01*
X5501792Y5056784D01*
X5502402Y5053380D01*
X5501792Y5050028D01*
X5500268Y5045608D01*
X5499557Y5039360D01*
X5499557Y4940452D01*
X5500268Y4934204D01*
X5501792Y4929784D01*
X5502402Y4926380D01*
X5501792Y4923028D01*
X5500268Y4918608D01*
X5499557Y4912360D01*
X5499557Y4813452D01*
X5500268Y4807204D01*
X5501792Y4802784D01*
X5502402Y4799380D01*
X5501792Y4796028D01*
X5500268Y4791608D01*
X5499557Y4785360D01*
X5499557Y4686452D01*
X5500268Y4680204D01*
X5501792Y4675784D01*
X5502402Y4672380D01*
X5501792Y4669028D01*
X5500268Y4664608D01*
X5499557Y4658360D01*
X5499557Y4559452D01*
X5500268Y4553204D01*
X5501792Y4548784D01*
X5502402Y4545380D01*
X5501792Y4542028D01*
X5500268Y4537608D01*
X5499557Y4531360D01*
X5499557Y4432452D01*
X5500268Y4426204D01*
X5501792Y4421784D01*
X5502402Y4418380D01*
X5501792Y4415028D01*
X5500268Y4410608D01*
X5499557Y4404360D01*
X5499557Y4305452D01*
X5500268Y4299204D01*
X5502148Y4293819D01*
X5505196Y4288942D01*
X5509260Y4284878D01*
X5514086Y4281830D01*
X5519521Y4279950D01*
X5525770Y4279239D01*
X5697677Y4279239D01*
X5701538Y4278477D01*
X5704840Y4276293D01*
X5771997Y4209135D01*
X5773572Y4207052D01*
X5774588Y4204614D01*
X5776569Y4197197D01*
X5780735Y4188358D01*
X5786323Y4180332D01*
X5793232Y4173423D01*
X5801258Y4167835D01*
X5810097Y4163669D01*
X5819546Y4161180D01*
X5829300Y4160316D01*
X5839053Y4161180D01*
X5848502Y4163669D01*
X5857341Y4167835D01*
X5865368Y4173423D01*
X5872276Y4180332D01*
X5877864Y4188358D01*
X5882030Y4197197D01*
X5884519Y4206646D01*
X5885383Y4216400D01*
X5884519Y4226153D01*
X5882030Y4235602D01*
X5877864Y4244441D01*
X5872276Y4252468D01*
X5865368Y4259376D01*
X5857341Y4264964D01*
X5843473Y4271365D01*
X5840831Y4274667D01*
X5839714Y4278731D01*
X5840374Y4282897D01*
X5842711Y4286453D01*
X5845200Y4288942D01*
X5848248Y4293819D01*
X5850128Y4299204D01*
X5850839Y4305452D01*
X5850839Y4347057D01*
X5851601Y4350918D01*
X5853836Y4354220D01*
X5857138Y4356455D01*
X5860999Y4357217D01*
X5864910Y4356455D01*
X5868212Y4354220D01*
X5904839Y4317593D01*
X5907074Y4314139D01*
X5907836Y4310126D01*
X5906871Y4306112D01*
X5903569Y4299102D01*
X5901080Y4289653D01*
X5900216Y4279900D01*
X5901080Y4270146D01*
X5903569Y4260697D01*
X5907735Y4251858D01*
X5913323Y4243832D01*
X5920232Y4236923D01*
X5928258Y4231335D01*
X5937097Y4227169D01*
X5946546Y4224680D01*
X5956300Y4223816D01*
X5966053Y4224680D01*
X5975502Y4227169D01*
X5984341Y4231335D01*
X5992368Y4236923D01*
X5999276Y4243832D01*
X6004864Y4251858D01*
X6009030Y4260697D01*
X6011519Y4270146D01*
X6012383Y4279900D01*
X6011773Y4286859D01*
X6012281Y4290974D01*
X6014313Y4294530D01*
X6017615Y4296968D01*
X6021628Y4297934D01*
X6025642Y4297222D01*
X6029096Y4294936D01*
X6115608Y4208424D01*
X6117844Y4205122D01*
X6118606Y4201210D01*
X6118606Y4062018D01*
X6119317Y4055770D01*
X6121196Y4050334D01*
X6124244Y4045508D01*
X6128308Y4041444D01*
X6133134Y4038396D01*
X6138570Y4036517D01*
X6144818Y4035806D01*
X6301181Y4035806D01*
X6307429Y4036517D01*
X6312865Y4038396D01*
X6317691Y4041444D01*
X6321755Y4045508D01*
X6324803Y4050334D01*
X6326682Y4055770D01*
X6327394Y4062018D01*
X6327394Y4218381D01*
X6326682Y4224629D01*
X6324803Y4230065D01*
X6321755Y4234891D01*
X6317691Y4238955D01*
X6312865Y4242003D01*
X6307429Y4243882D01*
X6301181Y4244594D01*
X6212789Y4244594D01*
X6208877Y4245356D01*
X6205575Y4247591D01*
X6171996Y4281170D01*
X6169609Y4284980D01*
X6169050Y4289450D01*
X6170523Y4293717D01*
X6173724Y4296918D01*
X6177940Y4298442D01*
X6182410Y4297984D01*
X6195974Y4293362D01*
X6209385Y4290720D01*
X6223000Y4289806D01*
X6236614Y4290720D01*
X6250025Y4293362D01*
X6262928Y4297781D01*
X6275171Y4303826D01*
X6286550Y4311396D01*
X6296812Y4320387D01*
X6305804Y4330649D01*
X6313373Y4342028D01*
X6319418Y4354271D01*
X6323838Y4367174D01*
X6326479Y4380585D01*
X6327394Y4394200D01*
X6326479Y4407814D01*
X6323838Y4421225D01*
X6319418Y4434128D01*
X6313373Y4446371D01*
X6305804Y4457750D01*
X6296812Y4468012D01*
X6286550Y4477004D01*
X6275171Y4484573D01*
X6262928Y4490618D01*
X6250025Y4495038D01*
X6236614Y4497679D01*
X6223000Y4498594D01*
X6209385Y4497679D01*
X6195974Y4495038D01*
X6183071Y4490618D01*
X6170828Y4484573D01*
X6159449Y4477004D01*
X6149187Y4468012D01*
X6140196Y4457750D01*
X6132626Y4446371D01*
X6126581Y4434128D01*
X6122162Y4421225D01*
X6119520Y4407814D01*
X6118606Y4394200D01*
X6119520Y4380585D01*
X6122162Y4367174D01*
X6126784Y4353610D01*
X6127242Y4349140D01*
X6125718Y4344924D01*
X6122517Y4341723D01*
X6118250Y4340250D01*
X6113780Y4340809D01*
X6109970Y4343196D01*
X5916015Y4537151D01*
X5913831Y4540453D01*
X5913069Y4544314D01*
X5913069Y4863846D01*
X5912815Y4868621D01*
X5912256Y4872431D01*
X5911189Y4876901D01*
X5909970Y4880559D01*
X5908090Y4884724D01*
X5906211Y4888077D01*
X5903620Y4891887D01*
X5901131Y4894834D01*
X5897880Y4898034D01*
X5894933Y4900523D01*
X5891123Y4903063D01*
X5887770Y4904943D01*
X5883554Y4906772D01*
X5879947Y4907991D01*
X5875477Y4909007D01*
X5871667Y4909566D01*
X5866841Y4909769D01*
X5860288Y4909718D01*
X5856681Y4910328D01*
X5853531Y4912207D01*
X5851245Y4915103D01*
X5848604Y4923028D01*
X5847994Y4926380D01*
X5848604Y4929784D01*
X5851347Y4938776D01*
X5853582Y4941671D01*
X5856732Y4943602D01*
X5860338Y4944262D01*
X6023254Y4944262D01*
X6027166Y4943500D01*
X6030468Y4941265D01*
X6090412Y4881422D01*
X6097371Y4876139D01*
X6105042Y4872329D01*
X6110833Y4870500D01*
X6118199Y4869484D01*
X6121755Y4868316D01*
X6124600Y4865928D01*
X6132626Y4850028D01*
X6140196Y4838649D01*
X6149187Y4828387D01*
X6159449Y4819396D01*
X6170828Y4811826D01*
X6183071Y4805781D01*
X6195974Y4801362D01*
X6209385Y4798720D01*
X6223000Y4797806D01*
X6236614Y4798720D01*
X6250025Y4801362D01*
X6262928Y4805781D01*
X6275171Y4811826D01*
X6279896Y4813858D01*
X6284264Y4813604D01*
X6288074Y4811522D01*
X6290716Y4808067D01*
X6291630Y4803800D01*
X6291630Y4785614D01*
X6290868Y4781753D01*
X6288684Y4778451D01*
X6261354Y4751120D01*
X6258306Y4749038D01*
X6254648Y4748174D01*
X6236614Y4751679D01*
X6223000Y4752594D01*
X6209385Y4751679D01*
X6195974Y4749038D01*
X6183071Y4744618D01*
X6170828Y4738573D01*
X6159449Y4731004D01*
X6149187Y4722012D01*
X6140196Y4711750D01*
X6132626Y4700371D01*
X6126581Y4688128D01*
X6122162Y4675225D01*
X6119520Y4661814D01*
X6118606Y4648200D01*
X6119520Y4634585D01*
X6122162Y4621174D01*
X6126581Y4608271D01*
X6132626Y4596028D01*
X6140196Y4584649D01*
X6149187Y4574387D01*
X6159449Y4565396D01*
X6170828Y4557826D01*
X6183071Y4551781D01*
X6195974Y4547362D01*
X6209385Y4544720D01*
X6223000Y4543806D01*
X6236614Y4544720D01*
X6250025Y4547362D01*
X6262928Y4551781D01*
X6275171Y4557826D01*
X6286550Y4565396D01*
X6296812Y4574387D01*
X6305804Y4584649D01*
X6313373Y4596028D01*
X6319418Y4608271D01*
X6323838Y4621174D01*
X6326479Y4634585D01*
X6327394Y4648200D01*
X6326479Y4661814D01*
X6322974Y4679848D01*
X6323838Y4683506D01*
X6325920Y4686554D01*
X6370777Y4731512D01*
X6376060Y4738471D01*
X6379819Y4746040D01*
X6382156Y4754118D01*
X6382969Y4762957D01*
X6382969Y5028946D01*
X6382766Y5033416D01*
X6382156Y5037582D01*
X6381191Y5041696D01*
X6379870Y5045710D01*
X6378143Y5049520D01*
X6376111Y5053228D01*
X6373723Y5056682D01*
X6371031Y5059934D01*
X6368034Y5062931D01*
X6364782Y5065623D01*
X6361328Y5068011D01*
X6357620Y5070043D01*
X6353810Y5071770D01*
X6349796Y5073091D01*
X6345682Y5074056D01*
X6341516Y5074666D01*
X6337046Y5074869D01*
X6312611Y5074869D01*
X6308801Y5075580D01*
X6305600Y5077663D01*
X6303365Y5080812D01*
X6302451Y5084572D01*
X6303010Y5088382D01*
X6313373Y5104028D01*
X6316573Y5110480D01*
X6268720Y5110480D01*
X6268720Y5085029D01*
X6267958Y5081117D01*
X6265722Y5077815D01*
X6262471Y5075631D01*
X6258560Y5074869D01*
X6187440Y5074869D01*
X6183528Y5075631D01*
X6180277Y5077815D01*
X6178042Y5081117D01*
X6177280Y5085029D01*
X6177280Y5110480D01*
X6134303Y5110480D01*
X6130391Y5111242D01*
X6127089Y5113477D01*
X6090158Y5150307D01*
X6083198Y5155590D01*
X6075629Y5159349D01*
X6067552Y5161686D01*
X6058712Y5162499D01*
X5860389Y5162499D01*
X5856732Y5163159D01*
X5853582Y5165090D01*
X5851347Y5167985D01*
X5850128Y5172608D01*
X5848604Y5177028D01*
X5847994Y5180380D01*
X5848604Y5183784D01*
X5850128Y5188204D01*
X5850839Y5194452D01*
X5850839Y5293360D01*
X5850128Y5299608D01*
X5848604Y5304028D01*
X5847994Y5307380D01*
X5848604Y5310784D01*
X5851347Y5319776D01*
X5853582Y5322671D01*
X5856732Y5324602D01*
X5860338Y5325262D01*
X5931458Y5325313D01*
X5940145Y5326532D01*
X5948121Y5329174D01*
X5955487Y5333288D01*
X5962345Y5338978D01*
X6184646Y5561279D01*
X6187694Y5563362D01*
X6191351Y5564225D01*
X6209385Y5560720D01*
X6223000Y5559806D01*
X6236614Y5560720D01*
X6250025Y5563362D01*
X6262928Y5567781D01*
X6275171Y5573826D01*
X6286550Y5581396D01*
X6296812Y5590387D01*
X6305804Y5600649D01*
X6313373Y5612028D01*
X6319418Y5624271D01*
X6323838Y5637174D01*
X6326479Y5650585D01*
X6327394Y5664200D01*
X6326479Y5677814D01*
X6323838Y5691225D01*
X6319418Y5704128D01*
X6313373Y5716371D01*
X6303010Y5732018D01*
X6302451Y5735828D01*
X6303365Y5739536D01*
X6305550Y5742686D01*
X6308801Y5744819D01*
X6312560Y5745530D01*
X6326428Y5745581D01*
X6335064Y5746800D01*
X6343040Y5749493D01*
X6350355Y5753557D01*
X6357213Y5759246D01*
X6489344Y5891377D01*
X6492849Y5893663D01*
X6497167Y5894476D01*
X6497828Y5898642D01*
X6500114Y5902147D01*
X6612077Y6014212D01*
X6617360Y6021171D01*
X6621119Y6028740D01*
X6623456Y6036818D01*
X6624269Y6045657D01*
X6624269Y6208776D01*
X6625081Y6212789D01*
X6627368Y6216142D01*
X6630822Y6218275D01*
X6634835Y6218936D01*
X6638798Y6217970D01*
X6642049Y6215481D01*
X6644487Y6212687D01*
X6654749Y6203696D01*
X6666128Y6196126D01*
X6678371Y6190081D01*
X6691274Y6185662D01*
X6704685Y6183020D01*
X6718300Y6182106D01*
X6731914Y6183020D01*
X6745325Y6185662D01*
X6758228Y6190081D01*
X6770471Y6196126D01*
X6781850Y6203696D01*
X6787134Y6208318D01*
X6790232Y6210198D01*
X6793839Y6210858D01*
X6847941Y6210909D01*
X6856780Y6211722D01*
X6859168Y6212128D01*
X6867804Y6214262D01*
X6870090Y6215024D01*
X6878269Y6218428D01*
X6880504Y6219545D01*
X6888073Y6224117D01*
X6896912Y6231178D01*
X6964121Y6298387D01*
X6971182Y6307226D01*
X6975754Y6314795D01*
X6976872Y6317030D01*
X6980275Y6325209D01*
X6981037Y6327495D01*
X6983171Y6336131D01*
X6983577Y6338519D01*
X6984390Y6347358D01*
X6984390Y7457541D01*
X6983577Y7466380D01*
X6983171Y7468768D01*
X6981037Y7477404D01*
X6980275Y7479690D01*
X6976872Y7487869D01*
X6975754Y7490104D01*
X6971182Y7497673D01*
X6964121Y7506512D01*
X6922312Y7548321D01*
X6913473Y7555382D01*
X6905904Y7559954D01*
X6903669Y7561072D01*
X6895490Y7564475D01*
X6893204Y7565237D01*
X6884568Y7567371D01*
X6882180Y7567777D01*
X6873341Y7568590D01*
X6639559Y7568641D01*
X6635648Y7569403D01*
X6632346Y7571638D01*
X6343091Y7860944D01*
X6340856Y7864195D01*
X6340094Y7868107D01*
X6340094Y7939481D01*
X6339382Y7945729D01*
X6337503Y7951165D01*
X6334455Y7955991D01*
X6330391Y7960055D01*
X6325565Y7963103D01*
X6320129Y7964982D01*
X6313881Y7965694D01*
X6242507Y7965694D01*
X6238595Y7966456D01*
X6235344Y7968691D01*
X6071412Y8132521D01*
X6062573Y8139582D01*
X6055004Y8144154D01*
X6052769Y8145272D01*
X6044590Y8148675D01*
X6042304Y8149437D01*
X6033668Y8151571D01*
X6031280Y8151977D01*
X6022441Y8152790D01*
X5407558Y8152790D01*
X5398719Y8151977D01*
X5396331Y8151571D01*
X5387695Y8149437D01*
X5385409Y8148675D01*
X5377230Y8145272D01*
X5374995Y8144154D01*
X5367426Y8139582D01*
X5358587Y8132521D01*
X4059478Y6833412D01*
X4052417Y6824573D01*
X4047845Y6817004D01*
X4046728Y6814769D01*
X4043324Y6806590D01*
X4042562Y6804304D01*
X4040428Y6795668D01*
X4040022Y6793280D01*
X4039209Y6784441D01*
X4039158Y6091275D01*
X4038244Y6087160D01*
X4035755Y6083706D01*
X4032046Y6081623D01*
X4027830Y6081217D01*
X4024629Y6081572D01*
X3956558Y6081572D01*
X3956558Y6037275D01*
X4028998Y6037275D01*
X4032859Y6036462D01*
X4036161Y6034278D01*
X4038396Y6030976D01*
X4039158Y6027115D01*
X4039158Y5984697D01*
X4038396Y5980836D01*
X4036161Y5977534D01*
X4032859Y5975350D01*
X4028998Y5974537D01*
X3956558Y5974537D01*
X3956558Y5964732D01*
X3955796Y5960821D01*
X3953560Y5957519D01*
X3950258Y5955334D01*
X3946398Y5954572D01*
X3804005Y5954572D01*
X3800144Y5955334D01*
X3796842Y5957519D01*
X3794607Y5960821D01*
X3793845Y5964732D01*
X3793845Y5974537D01*
X3725164Y5974537D01*
X3721252Y5975350D01*
X3717950Y5977534D01*
X3482238Y6213246D01*
X3480003Y6216548D01*
X3479241Y6220460D01*
X3479241Y6228689D01*
X3480104Y6232753D01*
X3482492Y6236157D01*
X3486048Y6238290D01*
X3492195Y6240424D01*
X3497072Y6243472D01*
X3501085Y6247536D01*
X3504133Y6252413D01*
X3506063Y6257798D01*
X3506774Y6264046D01*
X3506774Y6362954D01*
X3506063Y6369202D01*
X3504133Y6374587D01*
X3501085Y6379464D01*
X3497072Y6383528D01*
X3492195Y6386576D01*
X3486810Y6388455D01*
X3480511Y6389166D01*
X3396640Y6389166D01*
X3392779Y6389928D01*
X3389477Y6392113D01*
X3361080Y6420510D01*
X3359048Y6423456D01*
X3358134Y6426911D01*
X3358489Y6430467D01*
X3358489Y6482130D01*
X3300425Y6482130D01*
X3300425Y6469329D01*
X3299663Y6465417D01*
X3297478Y6462115D01*
X3294176Y6459931D01*
X3290265Y6459169D01*
X3237534Y6459169D01*
X3233623Y6459931D01*
X3230321Y6462115D01*
X3228136Y6465417D01*
X3227374Y6469329D01*
X3227374Y6482130D01*
X3169310Y6482130D01*
X3169310Y6469329D01*
X3168548Y6465417D01*
X3166313Y6462115D01*
X3163011Y6459931D01*
X3159150Y6459169D01*
X3089249Y6459169D01*
X3085388Y6459931D01*
X3082086Y6462115D01*
X3079851Y6465417D01*
X3079089Y6469329D01*
X3079089Y6482130D01*
X3021025Y6482130D01*
X3021025Y6469329D01*
X3020263Y6465417D01*
X3018078Y6462115D01*
X3014776Y6459931D01*
X3010865Y6459169D01*
X2980690Y6459169D01*
X2976829Y6459931D01*
X2973527Y6462115D01*
X2963621Y6472021D01*
X2961436Y6475323D01*
X2960674Y6479184D01*
X2960674Y6562953D01*
X2959963Y6569202D01*
X2958033Y6574586D01*
X2954985Y6579463D01*
X2950972Y6583527D01*
X2946095Y6586575D01*
X2940710Y6588455D01*
X2934411Y6589166D01*
X2780588Y6589166D01*
X2774289Y6588455D01*
X2768904Y6586575D01*
X2764028Y6583527D01*
X2760014Y6579463D01*
X2756966Y6574586D01*
X2755036Y6569202D01*
X2754325Y6562953D01*
X2754325Y6464046D01*
X2755036Y6457797D01*
X2756966Y6452412D01*
X2760014Y6447536D01*
X2764028Y6443472D01*
X2768904Y6440424D01*
X2774289Y6438544D01*
X2780588Y6437833D01*
X2864459Y6437833D01*
X2868320Y6437071D01*
X2871622Y6434886D01*
X2900019Y6406489D01*
X2902204Y6403187D01*
X2902966Y6399326D01*
X2902204Y6395415D01*
X2900019Y6392113D01*
X2896717Y6389928D01*
X2892806Y6389166D01*
X2780588Y6389166D01*
X2774391Y6388455D01*
X2767482Y6385915D01*
X2763672Y6385306D01*
X2759964Y6386118D01*
X2756763Y6388252D01*
X2728315Y6416751D01*
X2726131Y6420053D01*
X2725369Y6423914D01*
X2725369Y7629347D01*
X2726131Y7633258D01*
X2728315Y7636560D01*
X3031337Y7939582D01*
X3034639Y7941767D01*
X3038551Y7942529D01*
X3134817Y7942529D01*
X3141065Y7943240D01*
X3146501Y7945170D01*
X3151327Y7948218D01*
X3155391Y7952231D01*
X3158439Y7957108D01*
X3160369Y7962493D01*
X3161030Y7968792D01*
X3161030Y8067649D01*
X3160369Y8073898D01*
X3158439Y8079333D01*
X3155391Y8084159D01*
X3151327Y8088223D01*
X3146501Y8091271D01*
X3141065Y8093151D01*
X3134817Y8093862D01*
X2955950Y8093862D01*
X2949702Y8093151D01*
X2944317Y8091271D01*
X2939440Y8088223D01*
X2935376Y8084159D01*
X2932328Y8079333D01*
X2930448Y8073898D01*
X2929737Y8067649D01*
X2929737Y7971281D01*
X2928975Y7967421D01*
X2926791Y7964119D01*
X2646222Y7683500D01*
X2640939Y7676489D01*
X2637180Y7668971D01*
X2634843Y7660843D01*
X2634030Y7652003D01*
X2634081Y6399022D01*
X2635300Y6390335D01*
X2637993Y6382359D01*
X2642057Y6375044D01*
X2647746Y6368186D01*
X2735986Y6279997D01*
X2743098Y6274663D01*
X2749042Y6271514D01*
X2751632Y6269532D01*
X2753512Y6266840D01*
X2754376Y6263690D01*
X2755036Y6257798D01*
X2756966Y6252413D01*
X2760014Y6247536D01*
X2764028Y6243472D01*
X2768904Y6240424D01*
X2774289Y6238544D01*
X2780588Y6237833D01*
X2934411Y6237833D01*
X2940710Y6238544D01*
X2946095Y6240424D01*
X2950972Y6243472D01*
X2954985Y6247536D01*
X2958033Y6252413D01*
X2959963Y6257798D01*
X2961132Y6262370D01*
X2963367Y6265265D01*
X2966516Y6267196D01*
X2970174Y6267856D01*
X3011525Y6267856D01*
X3015183Y6267196D01*
X3018332Y6265265D01*
X3020568Y6262370D01*
X3021736Y6257798D01*
X3023666Y6252413D01*
X3026714Y6247536D01*
X3030728Y6243472D01*
X3035604Y6240424D01*
X3040989Y6238544D01*
X3047288Y6237833D01*
X3131058Y6237833D01*
X3134969Y6237071D01*
X3138271Y6234887D01*
X3654806Y5718403D01*
X3661765Y5713120D01*
X3669334Y5709361D01*
X3677513Y5707024D01*
X3683863Y5706313D01*
X3690112Y5706262D01*
X3693718Y5705551D01*
X3696868Y5703620D01*
X3699103Y5700725D01*
X3700272Y5696204D01*
X3701796Y5691784D01*
X3702405Y5688380D01*
X3701796Y5685028D01*
X3700272Y5680608D01*
X3699560Y5674360D01*
X3699560Y5575452D01*
X3700272Y5569204D01*
X3701796Y5564784D01*
X3702405Y5561380D01*
X3701796Y5558028D01*
X3700272Y5553608D01*
X3699560Y5547360D01*
X3699560Y5457342D01*
X3698798Y5453481D01*
X3696563Y5450179D01*
X3693261Y5447944D01*
X3689400Y5447182D01*
X3685489Y5447944D01*
X3682187Y5450179D01*
X3223615Y5908751D01*
X3221431Y5912053D01*
X3220669Y5915914D01*
X3220618Y6072378D01*
X3219399Y6081064D01*
X3216706Y6089040D01*
X3212642Y6096355D01*
X3206953Y6103213D01*
X3117088Y6192977D01*
X3110128Y6198260D01*
X3102559Y6202019D01*
X3094482Y6204356D01*
X3085642Y6205169D01*
X2740914Y6205169D01*
X2737053Y6205931D01*
X2733751Y6208115D01*
X1938731Y7003135D01*
X1936546Y7006336D01*
X1935734Y7010095D01*
X1936394Y7013905D01*
X1938426Y7017207D01*
X1941525Y7019493D01*
X1945233Y7020458D01*
X1956714Y7021220D01*
X1970125Y7023862D01*
X1983028Y7028281D01*
X1995271Y7034326D01*
X2006650Y7041896D01*
X2016912Y7050887D01*
X2025904Y7061149D01*
X2033473Y7072528D01*
X2039518Y7084771D01*
X2043938Y7097674D01*
X2046579Y7111085D01*
X2047493Y7124700D01*
X2046579Y7138314D01*
X2043938Y7151725D01*
X2039518Y7164628D01*
X2037181Y7169454D01*
X2036114Y7173366D01*
X2036724Y7177379D01*
X2038807Y7180834D01*
X2042109Y7183221D01*
X2046071Y7184085D01*
X2050084Y7183374D01*
X2053437Y7181138D01*
X2090521Y7144054D01*
X2092858Y7140448D01*
X2093468Y7136180D01*
X2092706Y7124700D01*
X2093620Y7111085D01*
X2096262Y7097674D01*
X2100681Y7084771D01*
X2106726Y7072528D01*
X2114296Y7061149D01*
X2123287Y7050887D01*
X2133549Y7041896D01*
X2144928Y7034326D01*
X2157171Y7028281D01*
X2170074Y7023862D01*
X2183485Y7021220D01*
X2197100Y7020306D01*
X2210714Y7021220D01*
X2224125Y7023862D01*
X2237028Y7028281D01*
X2249271Y7034326D01*
X2260650Y7041896D01*
X2270912Y7050887D01*
X2279904Y7061149D01*
X2287473Y7072528D01*
X2293518Y7084771D01*
X2297938Y7097674D01*
X2300579Y7111085D01*
X2301494Y7124700D01*
X2300579Y7138314D01*
X2297938Y7151725D01*
X2293518Y7164628D01*
X2287473Y7176871D01*
X2279904Y7188250D01*
X2270912Y7198512D01*
X2260650Y7207503D01*
X2249271Y7215073D01*
X2237028Y7221118D01*
X2224125Y7225538D01*
X2206193Y7229144D01*
X2203246Y7231176D01*
X2107641Y7326782D01*
X2098903Y7334250D01*
X2089454Y7340041D01*
X2079243Y7344257D01*
X2068423Y7346848D01*
X2056993Y7347762D01*
X800506Y7347762D01*
X789076Y7346848D01*
X778256Y7344257D01*
X768045Y7340041D01*
X758596Y7334250D01*
X749858Y7326782D01*
X743000Y7319924D01*
X739749Y7317740D01*
X735838Y7316978D01*
X731926Y7317740D01*
X728675Y7319924D01*
X726440Y7323226D01*
X725678Y7327138D01*
X725678Y8164068D01*
X726440Y8167979D01*
X728675Y8171230D01*
X731926Y8173466D01*
X735838Y8174228D01*
X7152386Y8174228D01*
X7156297Y8173466D01*
X7159548Y8171230D01*
X7161784Y8167979D01*
X7162546Y8164068D01*
X7162546Y1735836D01*
X7161784Y1731924D01*
X7159548Y1728673D01*
X7156297Y1726438D01*
X7152386Y1725675D01*
X5590997Y1725675D01*
X5586780Y1726590D01*
X5583326Y1729130D01*
X5581243Y1732889D01*
X5580938Y1737207D01*
X5582412Y1741220D01*
X5583732Y1743405D01*
X5585663Y1748789D01*
X5586374Y1755089D01*
X5586374Y1998675D01*
X5313984Y1998675D01*
X5313984Y1735836D01*
X5313222Y1731924D01*
X5311038Y1728673D01*
X5307736Y1726438D01*
X5303824Y1725675D01*
X4805375Y1725675D01*
X4801463Y1726438D01*
X4798161Y1728673D01*
X4795977Y1731924D01*
X4795215Y1735836D01*
X4795215Y1998675D01*
X4522876Y1998675D01*
X4522876Y1755089D01*
X4523536Y1748789D01*
X4525467Y1743405D01*
X4526788Y1741220D01*
X4528261Y1737207D01*
X4527956Y1732889D01*
X4525873Y1729130D01*
X4522419Y1726590D01*
X4518202Y1725675D01*
X1015034Y1725675D01*
X1010818Y1726590D01*
X1007364Y1729181D01*
X1005281Y1732991D01*
X1004976Y1737309D01*
X1006500Y1741373D01*
X1009548Y1744421D01*
X1013612Y1745894D01*
X1019352Y1746707D01*
X1039672Y1751482D01*
X1059434Y1758086D01*
X1078484Y1766519D01*
X1096670Y1776679D01*
X1113891Y1788414D01*
X1129893Y1801723D01*
X1144676Y1816506D01*
X1157986Y1832508D01*
X1169720Y1849729D01*
X1179880Y1867916D01*
X1188313Y1886966D01*
X1194917Y1906727D01*
X1199692Y1927047D01*
X1202588Y1947672D01*
X1203553Y1968500D01*
X1202588Y1989328D01*
X1199692Y2009952D01*
X1194917Y2030272D01*
X1188313Y2050034D01*
X1179880Y2069084D01*
X1169720Y2087270D01*
X1157986Y2104491D01*
X1144676Y2120493D01*
X1129893Y2135276D01*
X1113891Y2148586D01*
X1096670Y2160320D01*
X1078484Y2170480D01*
X1059434Y2178913D01*
X1039672Y2185517D01*
X1019352Y2190292D01*
X998728Y2193188D01*
X977900Y2194153D01*
X957071Y2193188D01*
X936447Y2190292D01*
X916127Y2185517D01*
X896366Y2178913D01*
X877316Y2170480D01*
X859129Y2160320D01*
X841908Y2148586D01*
X825906Y2135276D01*
X811123Y2120493D01*
X797814Y2104491D01*
X786079Y2087270D01*
X775919Y2069084D01*
X767486Y2050034D01*
X760882Y2030272D01*
X756107Y2009952D01*
X753211Y1989328D01*
X752246Y1968500D01*
X753211Y1947672D01*
X756107Y1927047D01*
X760882Y1906727D01*
X767486Y1886966D01*
X775919Y1867916D01*
X786079Y1849729D01*
X797814Y1832508D01*
X811123Y1816506D01*
X825906Y1801723D01*
X841908Y1788414D01*
X859129Y1776679D01*
X877316Y1766519D01*
X896366Y1758086D01*
X916127Y1751482D01*
X936447Y1746707D01*
X942187Y1745894D01*
X946251Y1744421D01*
X949299Y1741373D01*
X950823Y1737309D01*
X950518Y1732991D01*
X948436Y1729181D01*
X944981Y1726590D01*
X940765Y1725675D01*
G37*

%LPC*%
G36*
X3239770Y8036864D02*
G01*
X3304032Y8036864D01*
X3304032Y8081162D01*
X3265982Y8081162D01*
X3259734Y8080451D01*
X3254298Y8078571D01*
X3249472Y8075523D01*
X3245408Y8071459D01*
X3242360Y8066633D01*
X3240430Y8061198D01*
X3239770Y8054949D01*
G37*
G36*
X3406749Y8036864D02*
G01*
X3471062Y8036864D01*
X3471062Y8054949D01*
X3470351Y8061198D01*
X3468471Y8066633D01*
X3465423Y8071459D01*
X3461359Y8075523D01*
X3456482Y8078571D01*
X3451098Y8080451D01*
X3444849Y8081162D01*
X3406749Y8081162D01*
G37*
G36*
X3265982Y7929829D02*
G01*
X3304032Y7929829D01*
X3304032Y7974177D01*
X3239770Y7974177D01*
X3239770Y7956092D01*
X3240430Y7949793D01*
X3242360Y7944408D01*
X3245408Y7939531D01*
X3249472Y7935518D01*
X3254298Y7932470D01*
X3259734Y7930540D01*
G37*
G36*
X6883400Y1768246D02*
G01*
X6904228Y1769211D01*
X6924852Y1772107D01*
X6945172Y1776882D01*
X6964934Y1783486D01*
X6983984Y1791919D01*
X7002170Y1802079D01*
X7019391Y1813814D01*
X7035393Y1827123D01*
X7050176Y1841906D01*
X7063486Y1857908D01*
X7075220Y1875129D01*
X7085380Y1893316D01*
X7093813Y1912366D01*
X7100417Y1932127D01*
X7105192Y1952447D01*
X7108088Y1973072D01*
X7109053Y1993900D01*
X7108088Y2014728D01*
X7105192Y2035352D01*
X7100417Y2055672D01*
X7093813Y2075434D01*
X7085380Y2094484D01*
X7075220Y2112670D01*
X7063486Y2129891D01*
X7050176Y2145893D01*
X7035393Y2160676D01*
X7019391Y2173986D01*
X7002170Y2185720D01*
X6983984Y2195880D01*
X6964934Y2204313D01*
X6945172Y2210917D01*
X6924852Y2215692D01*
X6904228Y2218588D01*
X6883400Y2219553D01*
X6862572Y2218588D01*
X6841947Y2215692D01*
X6821627Y2210917D01*
X6801866Y2204313D01*
X6782816Y2195880D01*
X6764629Y2185720D01*
X6747408Y2173986D01*
X6731406Y2160676D01*
X6716623Y2145893D01*
X6703314Y2129891D01*
X6691579Y2112670D01*
X6681419Y2094484D01*
X6672986Y2075434D01*
X6666382Y2055672D01*
X6661607Y2035352D01*
X6658711Y2014728D01*
X6657746Y1993900D01*
X6658711Y1973072D01*
X6661607Y1952447D01*
X6666382Y1932127D01*
X6672986Y1912366D01*
X6681419Y1893316D01*
X6691579Y1875129D01*
X6703314Y1857908D01*
X6716623Y1841906D01*
X6731406Y1827123D01*
X6747408Y1813814D01*
X6764629Y1802079D01*
X6782816Y1791919D01*
X6801866Y1783486D01*
X6821627Y1776882D01*
X6841947Y1772107D01*
X6862572Y1769211D01*
G37*
G36*
X5783884Y1776831D02*
G01*
X6382715Y1776831D01*
X6389014Y1777542D01*
X6394399Y1779473D01*
X6399276Y1782521D01*
X6403289Y1786534D01*
X6406337Y1791411D01*
X6408267Y1796796D01*
X6408978Y1803095D01*
X6408978Y2250998D01*
X6409740Y2254859D01*
X6411925Y2258161D01*
X6415227Y2260396D01*
X6419138Y2261158D01*
X6809841Y2261209D01*
X6818680Y2262022D01*
X6821068Y2262428D01*
X6829704Y2264562D01*
X6831990Y2265324D01*
X6840169Y2268728D01*
X6842404Y2269845D01*
X6849973Y2274417D01*
X6858812Y2281478D01*
X6987997Y2410663D01*
X6995058Y2419502D01*
X6999528Y2426868D01*
X7002932Y2434336D01*
X7005675Y2438704D01*
X7007555Y2444089D01*
X7008266Y2450388D01*
X7008266Y3077565D01*
X7007453Y3086404D01*
X7007047Y3088792D01*
X7004913Y3097428D01*
X7004151Y3099714D01*
X7000748Y3107893D01*
X6999630Y3110128D01*
X6995058Y3117697D01*
X6987997Y3126536D01*
X6593738Y3520846D01*
X6591503Y3524148D01*
X6590741Y3528060D01*
X6590690Y5273141D01*
X6589877Y5281980D01*
X6589471Y5284368D01*
X6587337Y5293004D01*
X6586575Y5295290D01*
X6583172Y5303469D01*
X6582054Y5305704D01*
X6577482Y5313273D01*
X6570421Y5322112D01*
X6427012Y5465521D01*
X6418173Y5472582D01*
X6410604Y5477154D01*
X6408369Y5478272D01*
X6400190Y5481675D01*
X6397904Y5482437D01*
X6389268Y5484571D01*
X6386880Y5484977D01*
X6378041Y5485790D01*
X6298539Y5485841D01*
X6294932Y5486501D01*
X6291834Y5488381D01*
X6286550Y5493004D01*
X6275171Y5500573D01*
X6262928Y5506618D01*
X6250025Y5511038D01*
X6236614Y5513679D01*
X6223000Y5514594D01*
X6209385Y5513679D01*
X6195974Y5511038D01*
X6183071Y5506618D01*
X6170828Y5500573D01*
X6159449Y5493004D01*
X6149187Y5484012D01*
X6140196Y5473750D01*
X6132626Y5462371D01*
X6126581Y5450128D01*
X6122162Y5437225D01*
X6119520Y5423814D01*
X6118606Y5410200D01*
X6119520Y5396585D01*
X6122162Y5383174D01*
X6126581Y5370271D01*
X6132626Y5358028D01*
X6140196Y5346649D01*
X6149187Y5336387D01*
X6159449Y5327396D01*
X6170828Y5319826D01*
X6183071Y5313781D01*
X6195974Y5309362D01*
X6209385Y5306720D01*
X6223000Y5305806D01*
X6236614Y5306720D01*
X6250025Y5309362D01*
X6262928Y5313781D01*
X6275171Y5319826D01*
X6286550Y5327396D01*
X6291834Y5332018D01*
X6294932Y5333898D01*
X6298539Y5334558D01*
X6339840Y5334558D01*
X6343751Y5333796D01*
X6347053Y5331561D01*
X6436461Y5242153D01*
X6438696Y5238851D01*
X6439458Y5234940D01*
X6439509Y3489858D01*
X6440322Y3481019D01*
X6440728Y3478631D01*
X6442862Y3469995D01*
X6443624Y3467709D01*
X6447028Y3459530D01*
X6448145Y3457295D01*
X6452717Y3449726D01*
X6459778Y3440887D01*
X6796328Y3104235D01*
X6798614Y3100781D01*
X6799325Y3096717D01*
X6798309Y3092653D01*
X6795770Y3089351D01*
X6792163Y3087370D01*
X6788048Y3086963D01*
X6782053Y3087674D01*
X6763969Y3087674D01*
X6763969Y3029610D01*
X6808266Y3029610D01*
X6808266Y3061411D01*
X6807555Y3067405D01*
X6807962Y3071571D01*
X6809994Y3075178D01*
X6813245Y3077718D01*
X6817309Y3078734D01*
X6821373Y3078022D01*
X6824878Y3075736D01*
X6853986Y3046628D01*
X6856171Y3043326D01*
X6856933Y3039465D01*
X6856933Y2497734D01*
X6856171Y2493873D01*
X6853986Y2490571D01*
X6825589Y2462174D01*
X6822287Y2459990D01*
X6818426Y2459228D01*
X6814515Y2459990D01*
X6811213Y2462174D01*
X6809028Y2465476D01*
X6808266Y2469388D01*
X6808266Y2482189D01*
X6763969Y2482189D01*
X6763969Y2422601D01*
X6763156Y2418740D01*
X6760972Y2415438D01*
X6757670Y2413203D01*
X6753809Y2412441D01*
X6711391Y2412441D01*
X6707530Y2413203D01*
X6704228Y2415438D01*
X6702044Y2418740D01*
X6701231Y2422601D01*
X6701231Y2482189D01*
X6656933Y2482189D01*
X6656933Y2450388D01*
X6657644Y2444089D01*
X6659524Y2438704D01*
X6662572Y2433828D01*
X6666636Y2429814D01*
X6668820Y2426512D01*
X6669633Y2422601D01*
X6668820Y2418740D01*
X6666636Y2415438D01*
X6663334Y2413203D01*
X6659473Y2412441D01*
X6419138Y2412441D01*
X6415227Y2413203D01*
X6411925Y2415438D01*
X6409740Y2418740D01*
X6408978Y2422601D01*
X6408978Y2451912D01*
X6408267Y2458212D01*
X6406337Y2463596D01*
X6403289Y2468473D01*
X6399276Y2472486D01*
X6394399Y2475534D01*
X6389014Y2477465D01*
X6382715Y2478176D01*
X5783884Y2478176D01*
X5777585Y2477465D01*
X5772200Y2475534D01*
X5767324Y2472486D01*
X5763310Y2468473D01*
X5760262Y2463596D01*
X5758332Y2458212D01*
X5757621Y2451912D01*
X5757621Y1803095D01*
X5758332Y1796796D01*
X5760262Y1791411D01*
X5763310Y1786534D01*
X5767324Y1782521D01*
X5772200Y1779473D01*
X5777585Y1777542D01*
G37*
G36*
X4181652Y1848866D02*
G01*
X4209745Y1848866D01*
X4215993Y1849577D01*
X4221429Y1851456D01*
X4226255Y1854504D01*
X4230319Y1858568D01*
X4233367Y1863394D01*
X4235246Y1868830D01*
X4235958Y1875078D01*
X4235958Y1900682D01*
X4181652Y1900682D01*
G37*
G36*
X4070908Y1848866D02*
G01*
X4099001Y1848866D01*
X4099001Y1900682D01*
X4044696Y1900682D01*
X4044696Y1875078D01*
X4045407Y1868830D01*
X4047286Y1863394D01*
X4050334Y1858568D01*
X4054398Y1854504D01*
X4059224Y1851456D01*
X4064660Y1849577D01*
G37*
G36*
X4181652Y1978406D02*
G01*
X4235958Y1978406D01*
X4235958Y2004009D01*
X4235246Y2010257D01*
X4233367Y2015693D01*
X4230319Y2020519D01*
X4226255Y2024583D01*
X4221429Y2027631D01*
X4215993Y2029510D01*
X4209745Y2030222D01*
X4181652Y2030222D01*
G37*
G36*
X4044696Y1978406D02*
G01*
X4099001Y1978406D01*
X4099001Y2030222D01*
X4070908Y2030222D01*
X4064660Y2029510D01*
X4059224Y2027631D01*
X4054398Y2024583D01*
X4050334Y2020519D01*
X4047286Y2015693D01*
X4045407Y2010257D01*
X4044696Y2004009D01*
G37*
G36*
X2017166Y1987499D02*
G01*
X2023618Y1990750D01*
X2036775Y1999386D01*
X2048865Y2009546D01*
X2059686Y2021027D01*
X2069134Y2033676D01*
X2076754Y2046833D01*
X2017166Y2046833D01*
G37*
G36*
X3376066Y1987499D02*
G01*
X3382518Y1990750D01*
X3395675Y1999386D01*
X3407765Y2009546D01*
X3418586Y2021027D01*
X3428034Y2033676D01*
X3435654Y2046833D01*
X3376066Y2046833D01*
G37*
G36*
X1894433Y1987499D02*
G01*
X1894433Y2046833D01*
X1834845Y2046833D01*
X1842465Y2033676D01*
X1851914Y2021027D01*
X1862734Y2009546D01*
X1874824Y1999386D01*
X1887982Y1990750D01*
G37*
G36*
X3253333Y1987499D02*
G01*
X3253333Y2046833D01*
X3193745Y2046833D01*
X3201365Y2033676D01*
X3210814Y2021027D01*
X3221634Y2009546D01*
X3233724Y1999386D01*
X3246882Y1990750D01*
G37*
G36*
X4070908Y2058924D02*
G01*
X4209745Y2058924D01*
X4215993Y2059635D01*
X4221429Y2061514D01*
X4226255Y2064562D01*
X4230319Y2068626D01*
X4233367Y2073452D01*
X4235246Y2078888D01*
X4235958Y2085136D01*
X4235958Y2214067D01*
X4235246Y2220315D01*
X4233367Y2225751D01*
X4230319Y2230577D01*
X4226255Y2234641D01*
X4221429Y2237689D01*
X4215993Y2239568D01*
X4209745Y2240280D01*
X4196029Y2240280D01*
X4192117Y2241042D01*
X4188815Y2243277D01*
X4186631Y2246528D01*
X4185869Y2250440D01*
X4185869Y2354173D01*
X4186631Y2358085D01*
X4188815Y2361387D01*
X4192117Y2363571D01*
X4196029Y2364333D01*
X4217111Y2364333D01*
X4223410Y2365044D01*
X4228795Y2366924D01*
X4233672Y2369972D01*
X4237685Y2374036D01*
X4240733Y2378913D01*
X4242663Y2384298D01*
X4243374Y2390546D01*
X4243374Y2489454D01*
X4242663Y2495702D01*
X4240733Y2501087D01*
X4237685Y2505964D01*
X4233672Y2510028D01*
X4228795Y2513076D01*
X4223410Y2514955D01*
X4217111Y2515666D01*
X4063288Y2515666D01*
X4056989Y2514955D01*
X4051604Y2513076D01*
X4046728Y2510028D01*
X4042714Y2505964D01*
X4039666Y2501087D01*
X4037736Y2495702D01*
X4037025Y2489454D01*
X4037025Y2390546D01*
X4037736Y2384298D01*
X4039666Y2378913D01*
X4042714Y2374036D01*
X4046728Y2369972D01*
X4051604Y2366924D01*
X4056989Y2365044D01*
X4063288Y2364333D01*
X4084370Y2364333D01*
X4088282Y2363571D01*
X4091584Y2361387D01*
X4093768Y2358085D01*
X4094530Y2354173D01*
X4094530Y2250440D01*
X4093768Y2246528D01*
X4091584Y2243277D01*
X4088282Y2241042D01*
X4084370Y2240280D01*
X4070908Y2240280D01*
X4064660Y2239568D01*
X4059224Y2237689D01*
X4054398Y2234641D01*
X4050334Y2230577D01*
X4047286Y2225751D01*
X4045407Y2220315D01*
X4044696Y2214067D01*
X4044696Y2085136D01*
X4045407Y2078888D01*
X4047286Y2073452D01*
X4050334Y2068626D01*
X4054398Y2064562D01*
X4059224Y2061514D01*
X4064660Y2059635D01*
G37*
G36*
X1834845Y2169566D02*
G01*
X1894433Y2169566D01*
X1894433Y2228900D01*
X1887982Y2225649D01*
X1874824Y2217013D01*
X1862734Y2206853D01*
X1851914Y2195372D01*
X1842465Y2182723D01*
G37*
G36*
X2017166Y2169566D02*
G01*
X2076754Y2169566D01*
X2069134Y2182723D01*
X2059686Y2195372D01*
X2048865Y2206853D01*
X2036775Y2217013D01*
X2023618Y2225649D01*
X2017166Y2228900D01*
G37*
G36*
X3193745Y2169566D02*
G01*
X3253333Y2169566D01*
X3253333Y2228900D01*
X3246882Y2225649D01*
X3233724Y2217013D01*
X3221634Y2206853D01*
X3210814Y2195372D01*
X3201365Y2182723D01*
G37*
G36*
X3376066Y2169566D02*
G01*
X3435654Y2169566D01*
X3428034Y2182723D01*
X3418586Y2195372D01*
X3407765Y2206853D01*
X3395675Y2217013D01*
X3382518Y2225649D01*
X3376066Y2228900D01*
G37*
G36*
X3406749Y7929829D02*
G01*
X3444849Y7929829D01*
X3451098Y7930540D01*
X3456482Y7932470D01*
X3461359Y7935518D01*
X3465423Y7939531D01*
X3468471Y7944408D01*
X3470351Y7949793D01*
X3471062Y7956092D01*
X3471062Y7974177D01*
X3406749Y7974177D01*
G37*
G36*
X1612188Y7872933D02*
G01*
X1766011Y7872933D01*
X1772310Y7873644D01*
X1777695Y7875524D01*
X1782572Y7878572D01*
X1786585Y7882636D01*
X1789633Y7887512D01*
X1791563Y7892897D01*
X1792732Y7897469D01*
X1794967Y7900365D01*
X1798116Y7902295D01*
X1801774Y7902956D01*
X2017572Y7903006D01*
X2026259Y7904175D01*
X2034235Y7906867D01*
X2041601Y7910982D01*
X2048408Y7916672D01*
X2071370Y7939582D01*
X2074672Y7941767D01*
X2078532Y7942529D01*
X2174849Y7942529D01*
X2181098Y7943240D01*
X2186482Y7945170D01*
X2191359Y7948218D01*
X2195423Y7952231D01*
X2198471Y7957108D01*
X2200351Y7962493D01*
X2201062Y7968792D01*
X2201062Y8067649D01*
X2200351Y8073898D01*
X2198471Y8079333D01*
X2195423Y8084159D01*
X2191359Y8088223D01*
X2186482Y8091271D01*
X2181098Y8093151D01*
X2174849Y8093862D01*
X1995982Y8093862D01*
X1989734Y8093151D01*
X1984298Y8091271D01*
X1979472Y8088223D01*
X1975408Y8084159D01*
X1972360Y8079333D01*
X1970430Y8073898D01*
X1969770Y8067649D01*
X1969770Y8004403D01*
X1968957Y8000542D01*
X1966772Y7997240D01*
X1963470Y7995005D01*
X1959610Y7994243D01*
X1801774Y7994243D01*
X1798116Y7994903D01*
X1794967Y7996834D01*
X1792732Y7999730D01*
X1791563Y8004302D01*
X1789633Y8009686D01*
X1786585Y8014563D01*
X1782572Y8018627D01*
X1777695Y8021675D01*
X1772310Y8023555D01*
X1766011Y8024266D01*
X1612188Y8024266D01*
X1605889Y8023555D01*
X1600504Y8021675D01*
X1595628Y8018627D01*
X1591614Y8014563D01*
X1588566Y8009686D01*
X1586636Y8004302D01*
X1585925Y7998053D01*
X1585925Y7899146D01*
X1586636Y7892897D01*
X1588566Y7887512D01*
X1591614Y7882636D01*
X1595628Y7878572D01*
X1600504Y7875524D01*
X1605889Y7873644D01*
G37*
G36*
X4533188Y7834833D02*
G01*
X4687011Y7834833D01*
X4693310Y7835544D01*
X4698695Y7837424D01*
X4703572Y7840472D01*
X4707585Y7844536D01*
X4710633Y7849412D01*
X4712563Y7854797D01*
X4713274Y7861046D01*
X4713274Y7959953D01*
X4712563Y7966202D01*
X4710633Y7971586D01*
X4707585Y7976463D01*
X4703572Y7980527D01*
X4698695Y7983575D01*
X4693310Y7985455D01*
X4687011Y7986166D01*
X4533188Y7986166D01*
X4526889Y7985455D01*
X4521504Y7983575D01*
X4516628Y7980527D01*
X4512614Y7976463D01*
X4509566Y7971586D01*
X4507636Y7966202D01*
X4506468Y7961630D01*
X4504232Y7958734D01*
X4501083Y7956803D01*
X4497425Y7956143D01*
X4441190Y7956143D01*
X4437329Y7956905D01*
X4434027Y7959140D01*
X4431842Y7962442D01*
X4431030Y7966303D01*
X4431030Y8054949D01*
X4430369Y8061198D01*
X4428439Y8066633D01*
X4425391Y8071459D01*
X4421327Y8075523D01*
X4416501Y8078571D01*
X4411065Y8080451D01*
X4404817Y8081162D01*
X4225950Y8081162D01*
X4219702Y8080451D01*
X4214317Y8078571D01*
X4209440Y8075523D01*
X4205376Y8071459D01*
X4202328Y8066633D01*
X4200448Y8061198D01*
X4199737Y8054949D01*
X4199737Y7956092D01*
X4200448Y7949793D01*
X4202328Y7944408D01*
X4205376Y7939531D01*
X4209440Y7935518D01*
X4214317Y7932470D01*
X4219702Y7930540D01*
X4225950Y7929829D01*
X4322267Y7929829D01*
X4326178Y7929067D01*
X4329480Y7926882D01*
X4379417Y7876997D01*
X4386376Y7871714D01*
X4393946Y7867954D01*
X4402023Y7865668D01*
X4410862Y7864856D01*
X4497425Y7864856D01*
X4501083Y7864195D01*
X4504232Y7862265D01*
X4506468Y7859369D01*
X4507636Y7854797D01*
X4509566Y7849412D01*
X4512614Y7844536D01*
X4516628Y7840472D01*
X4521504Y7837424D01*
X4526889Y7835544D01*
G37*
G36*
X1947925Y2480818D02*
G01*
X1963674Y2480818D01*
X1979371Y2482646D01*
X1994712Y2486253D01*
X2009546Y2491638D01*
X2023618Y2498750D01*
X2036775Y2507386D01*
X2048865Y2517546D01*
X2059686Y2529027D01*
X2069134Y2541676D01*
X2077008Y2555341D01*
X2083257Y2569819D01*
X2087778Y2584907D01*
X2090521Y2600452D01*
X2091436Y2616200D01*
X2090521Y2631948D01*
X2087778Y2647492D01*
X2083257Y2662580D01*
X2077008Y2677058D01*
X2069134Y2690723D01*
X2059686Y2703372D01*
X2048865Y2714853D01*
X2036775Y2725013D01*
X2023618Y2733649D01*
X2009546Y2740761D01*
X1994712Y2746146D01*
X1979371Y2749753D01*
X1963674Y2751582D01*
X1947925Y2751582D01*
X1932228Y2749753D01*
X1916887Y2746146D01*
X1902053Y2740761D01*
X1887982Y2733649D01*
X1874824Y2725013D01*
X1862734Y2714853D01*
X1851914Y2703372D01*
X1842465Y2690723D01*
X1834591Y2677058D01*
X1828342Y2662580D01*
X1823821Y2647492D01*
X1821078Y2631948D01*
X1820164Y2616200D01*
X1821078Y2600452D01*
X1823821Y2584907D01*
X1828342Y2569819D01*
X1834591Y2555341D01*
X1842465Y2541676D01*
X1851914Y2529027D01*
X1862734Y2517546D01*
X1874824Y2507386D01*
X1887982Y2498750D01*
X1902053Y2491638D01*
X1916887Y2486253D01*
X1932228Y2482646D01*
G37*
G36*
X3306826Y2480818D02*
G01*
X3322574Y2480818D01*
X3338271Y2482646D01*
X3353612Y2486253D01*
X3368446Y2491638D01*
X3382518Y2498750D01*
X3395675Y2507386D01*
X3407765Y2517546D01*
X3418586Y2529027D01*
X3428034Y2541676D01*
X3435908Y2555341D01*
X3437128Y2558186D01*
X3439363Y2561437D01*
X3442665Y2563571D01*
X3446475Y2564333D01*
X4217111Y2564333D01*
X4223410Y2565044D01*
X4228795Y2566924D01*
X4233672Y2569972D01*
X4237685Y2574036D01*
X4240733Y2578912D01*
X4242663Y2584297D01*
X4243120Y2588717D01*
X4244086Y2591968D01*
X4246067Y2594762D01*
X4728464Y3077159D01*
X4731766Y3079343D01*
X4735626Y3080105D01*
X4771593Y3080105D01*
X4775454Y3079343D01*
X4778756Y3077159D01*
X4977587Y2878378D01*
X4986426Y2871317D01*
X4993995Y2866745D01*
X4996230Y2865628D01*
X5004409Y2862224D01*
X5006695Y2861462D01*
X5015331Y2859328D01*
X5017719Y2858922D01*
X5026558Y2858109D01*
X5735828Y2858058D01*
X5739688Y2857296D01*
X5742990Y2855061D01*
X5746191Y2851912D01*
X5748375Y2848610D01*
X5749137Y2844698D01*
X5749137Y2700832D01*
X5749848Y2694584D01*
X5751728Y2689148D01*
X5754776Y2684322D01*
X5758840Y2680258D01*
X5763717Y2677210D01*
X5769102Y2675331D01*
X5775350Y2674620D01*
X5934252Y2674620D01*
X5940501Y2675331D01*
X5945886Y2677210D01*
X5950762Y2680258D01*
X5954826Y2684322D01*
X5957874Y2689148D01*
X5959754Y2694584D01*
X5960465Y2700832D01*
X5960465Y2851962D01*
X5961227Y2855823D01*
X5963412Y2859125D01*
X6134455Y3029966D01*
X6141923Y3038703D01*
X6147714Y3048152D01*
X6151981Y3058414D01*
X6154572Y3069183D01*
X6155436Y3080207D01*
X6155944Y3082645D01*
X6157976Y3086404D01*
X6159855Y3091789D01*
X6160566Y3098088D01*
X6160566Y3734511D01*
X6159855Y3740810D01*
X6157976Y3746195D01*
X6154928Y3751072D01*
X6150864Y3755085D01*
X6145987Y3758133D01*
X6140602Y3760063D01*
X6134354Y3760774D01*
X6035446Y3760774D01*
X6029198Y3760063D01*
X6023813Y3758133D01*
X6018936Y3755085D01*
X6014872Y3751072D01*
X6011824Y3746195D01*
X6009944Y3740810D01*
X6009233Y3734511D01*
X6009233Y3108858D01*
X6008471Y3104946D01*
X6006287Y3101644D01*
X5933440Y3028899D01*
X5930138Y3026664D01*
X5926226Y3025902D01*
X5775350Y3025902D01*
X5769102Y3025190D01*
X5763717Y3023311D01*
X5758840Y3020263D01*
X5754776Y3016199D01*
X5753455Y3014116D01*
X5751220Y3011576D01*
X5748223Y3009900D01*
X5744870Y3009341D01*
X5064760Y3009341D01*
X5060848Y3010103D01*
X5057546Y3012338D01*
X5007102Y3062782D01*
X5004917Y3066084D01*
X5004104Y3069996D01*
X5004917Y3073908D01*
X5007152Y3077210D01*
X5010454Y3079394D01*
X5010454Y3174695D01*
X4953406Y3174695D01*
X4953406Y3141014D01*
X4952593Y3137154D01*
X4950409Y3133852D01*
X4947107Y3131667D01*
X4943246Y3130854D01*
X4939334Y3131667D01*
X4936032Y3133852D01*
X4904790Y3165094D01*
X4902606Y3168396D01*
X4901844Y3172256D01*
X4901844Y3406190D01*
X4901133Y3412490D01*
X4899202Y3417874D01*
X4896154Y3422751D01*
X4892141Y3426764D01*
X4887264Y3429812D01*
X4881880Y3431743D01*
X4875580Y3432403D01*
X4725619Y3432403D01*
X4719320Y3431743D01*
X4713935Y3429812D01*
X4709058Y3426764D01*
X4705045Y3422751D01*
X4701997Y3417874D01*
X4700066Y3412490D01*
X4699406Y3406190D01*
X4699406Y3266236D01*
X4698593Y3262376D01*
X4696409Y3259074D01*
X4155948Y2718612D01*
X4152646Y2716428D01*
X4148785Y2715666D01*
X3410508Y2715666D01*
X3407054Y2716276D01*
X3404006Y2718054D01*
X3395675Y2725013D01*
X3382518Y2733649D01*
X3368446Y2740761D01*
X3353612Y2746146D01*
X3338271Y2749753D01*
X3322574Y2751582D01*
X3306826Y2751582D01*
X3291128Y2749753D01*
X3275787Y2746146D01*
X3260953Y2740761D01*
X3246882Y2733649D01*
X3233724Y2725013D01*
X3221634Y2714853D01*
X3210814Y2703372D01*
X3201365Y2690723D01*
X3193491Y2677058D01*
X3187242Y2662580D01*
X3182721Y2647492D01*
X3179978Y2631948D01*
X3179064Y2616200D01*
X3179978Y2600452D01*
X3182721Y2584907D01*
X3187242Y2569819D01*
X3193491Y2555341D01*
X3201365Y2541676D01*
X3210814Y2529027D01*
X3221634Y2517546D01*
X3233724Y2507386D01*
X3246882Y2498750D01*
X3260953Y2491638D01*
X3275787Y2486253D01*
X3291128Y2482646D01*
G37*
G36*
X1026769Y2504490D02*
G01*
X1032205Y2507081D01*
X1044092Y2514854D01*
X1054862Y2524048D01*
X1064412Y2534513D01*
X1072489Y2546146D01*
X1076960Y2554630D01*
X1026769Y2554630D01*
G37*
G36*
X929030Y2504490D02*
G01*
X929030Y2554630D01*
X878840Y2554630D01*
X883310Y2546146D01*
X891387Y2534513D01*
X900937Y2524048D01*
X911707Y2514854D01*
X923594Y2507081D01*
G37*
G36*
X5313984Y2512364D02*
G01*
X5586374Y2512364D01*
X5586374Y2755950D01*
X5585663Y2762250D01*
X5583732Y2767634D01*
X5580684Y2772511D01*
X5576671Y2776524D01*
X5571794Y2779572D01*
X5566410Y2781503D01*
X5560110Y2782163D01*
X5313984Y2782163D01*
G37*
G36*
X4522876Y2512364D02*
G01*
X4795215Y2512364D01*
X4795215Y2782163D01*
X4549089Y2782163D01*
X4542790Y2781503D01*
X4537405Y2779572D01*
X4532528Y2776524D01*
X4528515Y2772511D01*
X4525467Y2767634D01*
X4523536Y2762250D01*
X4522876Y2755950D01*
G37*
G36*
X6763969Y2572410D02*
G01*
X6808266Y2572410D01*
X6808266Y2604211D01*
X6807555Y2610510D01*
X6805675Y2615895D01*
X6802628Y2620772D01*
X6798564Y2624785D01*
X6793687Y2627833D01*
X6788302Y2629763D01*
X6782053Y2630474D01*
X6763969Y2630474D01*
G37*
G36*
X6656933Y2572410D02*
G01*
X6701231Y2572410D01*
X6701231Y2630474D01*
X6683146Y2630474D01*
X6676898Y2629763D01*
X6671513Y2627833D01*
X6666636Y2624785D01*
X6662572Y2620772D01*
X6659524Y2615895D01*
X6657644Y2610510D01*
X6656933Y2604211D01*
G37*
G36*
X1026769Y2652369D02*
G01*
X1077010Y2652369D01*
X1075994Y2654655D01*
X1068628Y2666796D01*
X1059789Y2677871D01*
X1049629Y2687726D01*
X1038250Y2696210D01*
X1026769Y2702712D01*
G37*
G36*
X878789Y2652369D02*
G01*
X929030Y2652369D01*
X929030Y2702712D01*
X917549Y2696210D01*
X906170Y2687726D01*
X896010Y2677871D01*
X887171Y2666796D01*
X879805Y2654655D01*
G37*
G36*
X6683146Y2652725D02*
G01*
X6701231Y2652725D01*
X6701231Y2710789D01*
X6656933Y2710789D01*
X6656933Y2678988D01*
X6657644Y2672689D01*
X6659524Y2667304D01*
X6662572Y2662428D01*
X6666636Y2658414D01*
X6671513Y2655366D01*
X6676898Y2653436D01*
G37*
G36*
X6763969Y2652725D02*
G01*
X6782053Y2652725D01*
X6788302Y2653436D01*
X6793687Y2655366D01*
X6798564Y2658414D01*
X6802628Y2662428D01*
X6805675Y2667304D01*
X6807555Y2672689D01*
X6808266Y2678988D01*
X6808266Y2710789D01*
X6763969Y2710789D01*
G37*
G36*
X1003300Y7686446D02*
G01*
X1024128Y7687411D01*
X1044752Y7690307D01*
X1065072Y7695082D01*
X1084834Y7701686D01*
X1103884Y7710119D01*
X1122070Y7720279D01*
X1139291Y7732014D01*
X1155293Y7745323D01*
X1170076Y7760106D01*
X1183386Y7776108D01*
X1195120Y7793329D01*
X1205280Y7811516D01*
X1213713Y7830566D01*
X1220317Y7850327D01*
X1225092Y7870647D01*
X1227988Y7891272D01*
X1228953Y7912100D01*
X1227988Y7932928D01*
X1225092Y7953552D01*
X1220317Y7973872D01*
X1213713Y7993634D01*
X1205280Y8012684D01*
X1195120Y8030870D01*
X1183386Y8048091D01*
X1170076Y8064093D01*
X1155293Y8078876D01*
X1139291Y8092186D01*
X1122070Y8103920D01*
X1103884Y8114080D01*
X1084834Y8122513D01*
X1065072Y8129117D01*
X1044752Y8133892D01*
X1024128Y8136788D01*
X1003300Y8137753D01*
X982471Y8136788D01*
X961847Y8133892D01*
X941527Y8129117D01*
X921766Y8122513D01*
X902716Y8114080D01*
X884529Y8103920D01*
X867308Y8092186D01*
X851306Y8078876D01*
X836523Y8064093D01*
X823214Y8048091D01*
X811479Y8030870D01*
X801319Y8012684D01*
X792886Y7993634D01*
X786282Y7973872D01*
X781507Y7953552D01*
X778611Y7932928D01*
X777646Y7912100D01*
X778611Y7891272D01*
X781507Y7870647D01*
X786282Y7850327D01*
X792886Y7830566D01*
X801319Y7811516D01*
X811479Y7793329D01*
X823214Y7776108D01*
X836523Y7760106D01*
X851306Y7745323D01*
X867308Y7732014D01*
X884529Y7720279D01*
X902716Y7710119D01*
X921766Y7701686D01*
X941527Y7695082D01*
X961847Y7690307D01*
X982471Y7687411D01*
G37*
G36*
X6358128Y2675229D02*
G01*
X6391249Y2675229D01*
X6397498Y2675940D01*
X6402882Y2677820D01*
X6407759Y2680868D01*
X6411823Y2684932D01*
X6414871Y2689809D01*
X6416751Y2695194D01*
X6417462Y2701442D01*
X6417462Y2769565D01*
X6358128Y2769565D01*
G37*
G36*
X6232347Y2675229D02*
G01*
X6265468Y2675229D01*
X6265468Y2769565D01*
X6206134Y2769565D01*
X6206134Y2701442D01*
X6206845Y2695194D01*
X6208725Y2689809D01*
X6211773Y2684932D01*
X6215837Y2680868D01*
X6220714Y2677820D01*
X6226098Y2675940D01*
G37*
G36*
X6870700Y7661046D02*
G01*
X6891528Y7662011D01*
X6912152Y7664907D01*
X6932472Y7669682D01*
X6952234Y7676286D01*
X6971284Y7684719D01*
X6989470Y7694879D01*
X7006691Y7706614D01*
X7022693Y7719923D01*
X7037476Y7734706D01*
X7050786Y7750708D01*
X7062520Y7767929D01*
X7072680Y7786116D01*
X7081113Y7805166D01*
X7087717Y7824927D01*
X7092492Y7845247D01*
X7095388Y7865872D01*
X7096353Y7886700D01*
X7095388Y7907528D01*
X7092492Y7928152D01*
X7087717Y7948472D01*
X7081113Y7968234D01*
X7072680Y7987284D01*
X7062520Y8005470D01*
X7050786Y8022691D01*
X7037476Y8038693D01*
X7022693Y8053476D01*
X7006691Y8066786D01*
X6989470Y8078520D01*
X6971284Y8088680D01*
X6952234Y8097113D01*
X6932472Y8103717D01*
X6912152Y8108492D01*
X6891528Y8111388D01*
X6870700Y8112353D01*
X6849872Y8111388D01*
X6829247Y8108492D01*
X6808927Y8103717D01*
X6789166Y8097113D01*
X6770116Y8088680D01*
X6751929Y8078520D01*
X6734708Y8066786D01*
X6718706Y8053476D01*
X6703923Y8038693D01*
X6690614Y8022691D01*
X6678879Y8005470D01*
X6668719Y7987284D01*
X6660286Y7968234D01*
X6653682Y7948472D01*
X6648907Y7928152D01*
X6646011Y7907528D01*
X6645046Y7886700D01*
X6646011Y7865872D01*
X6648907Y7845247D01*
X6653682Y7824927D01*
X6660286Y7805166D01*
X6668719Y7786116D01*
X6678879Y7767929D01*
X6690614Y7750708D01*
X6703923Y7734706D01*
X6718706Y7719923D01*
X6734708Y7706614D01*
X6751929Y7694879D01*
X6770116Y7684719D01*
X6789166Y7676286D01*
X6808927Y7669682D01*
X6829247Y7664907D01*
X6849872Y7662011D01*
G37*
G36*
X2929737Y7659522D02*
G01*
X2994050Y7659522D01*
X2994050Y7703820D01*
X2955950Y7703820D01*
X2949702Y7703159D01*
X2944317Y7701229D01*
X2939440Y7698181D01*
X2935376Y7694168D01*
X2932328Y7689291D01*
X2930448Y7683906D01*
X2929737Y7677607D01*
G37*
G36*
X6763969Y2801010D02*
G01*
X6808266Y2801010D01*
X6808266Y2832811D01*
X6807555Y2839110D01*
X6805675Y2844495D01*
X6802628Y2849372D01*
X6798564Y2853385D01*
X6793687Y2856433D01*
X6788302Y2858363D01*
X6782053Y2859074D01*
X6763969Y2859074D01*
G37*
G36*
X6656933Y2801010D02*
G01*
X6701231Y2801010D01*
X6701231Y2859074D01*
X6683146Y2859074D01*
X6676898Y2858363D01*
X6671513Y2856433D01*
X6666636Y2853385D01*
X6662572Y2849372D01*
X6659524Y2844495D01*
X6657644Y2839110D01*
X6656933Y2832811D01*
G37*
G36*
X6763969Y2881325D02*
G01*
X6782053Y2881325D01*
X6788302Y2882036D01*
X6793687Y2883966D01*
X6798564Y2887014D01*
X6802628Y2891028D01*
X6805675Y2895904D01*
X6807555Y2901289D01*
X6808266Y2907588D01*
X6808266Y2939389D01*
X6763969Y2939389D01*
G37*
G36*
X6683146Y2881325D02*
G01*
X6701231Y2881325D01*
X6701231Y2939389D01*
X6656933Y2939389D01*
X6656933Y2907588D01*
X6657644Y2901289D01*
X6659524Y2895904D01*
X6662572Y2891028D01*
X6666636Y2887014D01*
X6671513Y2883966D01*
X6676898Y2882036D01*
G37*
G36*
X6358128Y2932226D02*
G01*
X6417462Y2932226D01*
X6417462Y3000349D01*
X6416751Y3006598D01*
X6414871Y3011982D01*
X6411823Y3016859D01*
X6407759Y3020923D01*
X6402882Y3023971D01*
X6397498Y3025851D01*
X6391249Y3026562D01*
X6358128Y3026562D01*
G37*
G36*
X6206134Y2932226D02*
G01*
X6265468Y2932226D01*
X6265468Y3026562D01*
X6232347Y3026562D01*
X6226098Y3025851D01*
X6220714Y3023971D01*
X6215837Y3020923D01*
X6211773Y3016859D01*
X6208725Y3011982D01*
X6206845Y3006598D01*
X6206134Y3000349D01*
G37*
G36*
X3096768Y7659522D02*
G01*
X3161030Y7659522D01*
X3161030Y7677607D01*
X3160369Y7683906D01*
X3158439Y7689291D01*
X3155391Y7694168D01*
X3151327Y7698181D01*
X3146501Y7701229D01*
X3141065Y7703159D01*
X3134817Y7703820D01*
X3096768Y7703820D01*
G37*
G36*
X6656933Y3029610D02*
G01*
X6701231Y3029610D01*
X6701231Y3087674D01*
X6683146Y3087674D01*
X6676898Y3086963D01*
X6671513Y3085033D01*
X6666636Y3081985D01*
X6662572Y3077972D01*
X6659524Y3073095D01*
X6657644Y3067710D01*
X6656933Y3061411D01*
G37*
G36*
X1995982Y7552537D02*
G01*
X2174849Y7552537D01*
X2181098Y7553248D01*
X2186482Y7555128D01*
X2191359Y7558176D01*
X2195423Y7562240D01*
X2198471Y7567066D01*
X2200351Y7572502D01*
X2201062Y7578750D01*
X2201062Y7677607D01*
X2200351Y7683906D01*
X2198471Y7689291D01*
X2195423Y7694168D01*
X2191359Y7698181D01*
X2186482Y7701229D01*
X2181098Y7703159D01*
X2174849Y7703820D01*
X2078532Y7703820D01*
X2074621Y7704632D01*
X2071319Y7706817D01*
X1995982Y7782102D01*
X1989023Y7787386D01*
X1981454Y7791145D01*
X1973376Y7793431D01*
X1964537Y7794244D01*
X1801774Y7794244D01*
X1798116Y7794904D01*
X1794967Y7796834D01*
X1792732Y7799730D01*
X1791563Y7804302D01*
X1789633Y7809687D01*
X1786585Y7814564D01*
X1782572Y7818628D01*
X1777695Y7821675D01*
X1772310Y7823555D01*
X1766011Y7824266D01*
X1612188Y7824266D01*
X1605889Y7823555D01*
X1600504Y7821675D01*
X1595628Y7818628D01*
X1591614Y7814564D01*
X1588566Y7809687D01*
X1586636Y7804302D01*
X1585925Y7798053D01*
X1585925Y7699146D01*
X1586636Y7692898D01*
X1588566Y7687513D01*
X1591614Y7682636D01*
X1595628Y7678572D01*
X1600504Y7675524D01*
X1605889Y7673644D01*
X1612188Y7672933D01*
X1766011Y7672933D01*
X1772310Y7673644D01*
X1777695Y7675524D01*
X1782572Y7678572D01*
X1786585Y7682636D01*
X1789633Y7687513D01*
X1791563Y7692898D01*
X1792732Y7697470D01*
X1794967Y7700365D01*
X1798116Y7702296D01*
X1801774Y7702956D01*
X1941880Y7702956D01*
X1945741Y7702194D01*
X1949043Y7699959D01*
X1966772Y7682230D01*
X1968957Y7678978D01*
X1969770Y7675067D01*
X1969770Y7578750D01*
X1970430Y7572502D01*
X1972360Y7567066D01*
X1975408Y7562240D01*
X1979472Y7558176D01*
X1984298Y7555128D01*
X1989734Y7553248D01*
G37*
G36*
X6235446Y3071825D02*
G01*
X6253530Y3071825D01*
X6253530Y3129889D01*
X6209233Y3129889D01*
X6209233Y3098088D01*
X6209944Y3091789D01*
X6211824Y3086404D01*
X6214872Y3081528D01*
X6218936Y3077514D01*
X6223812Y3074466D01*
X6229197Y3072536D01*
G37*
G36*
X6316268Y3071825D02*
G01*
X6334353Y3071825D01*
X6340602Y3072536D01*
X6345986Y3074466D01*
X6350863Y3077514D01*
X6354927Y3081528D01*
X6357975Y3086404D01*
X6359855Y3091789D01*
X6360566Y3098088D01*
X6360566Y3129889D01*
X6316268Y3129889D01*
G37*
G36*
X5098745Y3080105D02*
G01*
X5129580Y3080105D01*
X5135880Y3080816D01*
X5141264Y3082747D01*
X5146141Y3085795D01*
X5150154Y3089808D01*
X5153202Y3094685D01*
X5155133Y3100070D01*
X5155844Y3106369D01*
X5155844Y3174695D01*
X5098745Y3174695D01*
G37*
G36*
X5233619Y3080105D02*
G01*
X5383580Y3080105D01*
X5389880Y3080816D01*
X5395264Y3082747D01*
X5400141Y3085795D01*
X5404154Y3089808D01*
X5407202Y3094685D01*
X5409133Y3100070D01*
X5409844Y3106369D01*
X5409844Y3178098D01*
X5410606Y3181959D01*
X5412790Y3185261D01*
X5416092Y3187496D01*
X5420004Y3188258D01*
X5552592Y3188309D01*
X5561330Y3189122D01*
X5564124Y3189579D01*
X5572353Y3191662D01*
X5575350Y3192678D01*
X5582869Y3195828D01*
X5585917Y3197402D01*
X5592622Y3201466D01*
X5595670Y3203651D01*
X5601411Y3208528D01*
X5604357Y3211372D01*
X5609082Y3216808D01*
X5611723Y3220313D01*
X5615432Y3226155D01*
X5617667Y3230270D01*
X5620359Y3236315D01*
X5621985Y3241040D01*
X5623661Y3247085D01*
X5624677Y3252317D01*
X5625338Y3258261D01*
X5625541Y3263900D01*
X5625338Y3269538D01*
X5624677Y3275482D01*
X5623661Y3280714D01*
X5621985Y3286760D01*
X5620359Y3291484D01*
X5617667Y3297529D01*
X5615432Y3301644D01*
X5611723Y3307486D01*
X5609082Y3310991D01*
X5604357Y3316427D01*
X5601411Y3319272D01*
X5595670Y3324148D01*
X5592622Y3326333D01*
X5585917Y3330397D01*
X5582869Y3331972D01*
X5575350Y3335121D01*
X5572353Y3336137D01*
X5564124Y3338220D01*
X5561330Y3338677D01*
X5552592Y3339490D01*
X5420004Y3339541D01*
X5416092Y3340303D01*
X5412790Y3342538D01*
X5410606Y3345840D01*
X5409844Y3349701D01*
X5409844Y3406190D01*
X5409133Y3412490D01*
X5407202Y3417874D01*
X5404154Y3422751D01*
X5400141Y3426764D01*
X5395264Y3429812D01*
X5389880Y3431743D01*
X5383580Y3432403D01*
X5364327Y3432403D01*
X5360466Y3433216D01*
X5357164Y3435400D01*
X5354929Y3438702D01*
X5353456Y3450285D01*
X5351119Y3458362D01*
X5347309Y3465880D01*
X5342229Y3472586D01*
X5185714Y3626053D01*
X5178704Y3631336D01*
X5171135Y3635095D01*
X5163058Y3637432D01*
X5154218Y3638245D01*
X4290974Y3638245D01*
X4287316Y3638905D01*
X4284167Y3640836D01*
X4281932Y3643731D01*
X4280763Y3648201D01*
X4278833Y3653586D01*
X4275785Y3658463D01*
X4271772Y3662527D01*
X4266895Y3665575D01*
X4261510Y3667455D01*
X4255211Y3668166D01*
X4101388Y3668166D01*
X4095089Y3667455D01*
X4089704Y3665575D01*
X4084828Y3662527D01*
X4080814Y3658463D01*
X4077766Y3653586D01*
X4075836Y3648201D01*
X4074668Y3643629D01*
X4072432Y3640734D01*
X4069283Y3638804D01*
X4065625Y3638143D01*
X4024274Y3638143D01*
X4020616Y3638804D01*
X4017467Y3640734D01*
X4015232Y3643629D01*
X4014063Y3648201D01*
X4012133Y3653586D01*
X4009085Y3658463D01*
X4005072Y3662527D01*
X4000195Y3665575D01*
X3994810Y3667455D01*
X3988511Y3668166D01*
X3834688Y3668166D01*
X3828389Y3667455D01*
X3823004Y3665575D01*
X3818128Y3662527D01*
X3814114Y3658463D01*
X3811066Y3653586D01*
X3809136Y3648201D01*
X3808425Y3641953D01*
X3808425Y3585108D01*
X3807663Y3581247D01*
X3805478Y3577945D01*
X3765397Y3537864D01*
X3762095Y3535679D01*
X3758234Y3534867D01*
X3754323Y3535679D01*
X3751021Y3537864D01*
X3748836Y3541166D01*
X3748074Y3545027D01*
X3748074Y3641953D01*
X3747363Y3648201D01*
X3745433Y3653586D01*
X3742385Y3658463D01*
X3738372Y3662527D01*
X3733495Y3665575D01*
X3728110Y3667455D01*
X3721811Y3668166D01*
X3700729Y3668166D01*
X3696817Y3668928D01*
X3693515Y3671112D01*
X3691331Y3674414D01*
X3690569Y3678326D01*
X3690569Y3799992D01*
X3691026Y3803040D01*
X3693464Y3807358D01*
X3697630Y3816197D01*
X3700119Y3825646D01*
X3700983Y3835400D01*
X3700119Y3845153D01*
X3697630Y3854602D01*
X3693464Y3863441D01*
X3687876Y3871468D01*
X3680968Y3878376D01*
X3672941Y3883964D01*
X3664102Y3888130D01*
X3654653Y3890619D01*
X3644900Y3891483D01*
X3635146Y3890619D01*
X3625697Y3888130D01*
X3616858Y3883964D01*
X3608832Y3878376D01*
X3601923Y3871468D01*
X3596335Y3863441D01*
X3592169Y3854602D01*
X3589680Y3845153D01*
X3588816Y3835400D01*
X3589680Y3825646D01*
X3592169Y3816197D01*
X3596335Y3807358D01*
X3598773Y3803040D01*
X3599230Y3799992D01*
X3599230Y3678326D01*
X3598468Y3674414D01*
X3596284Y3671112D01*
X3592982Y3668928D01*
X3589070Y3668166D01*
X3567988Y3668166D01*
X3561689Y3667455D01*
X3556304Y3665575D01*
X3551428Y3662527D01*
X3547414Y3658463D01*
X3544366Y3653586D01*
X3542436Y3648201D01*
X3541268Y3643629D01*
X3539032Y3640734D01*
X3535883Y3638804D01*
X3532225Y3638143D01*
X3478174Y3638143D01*
X3474516Y3638804D01*
X3471367Y3640734D01*
X3469132Y3643629D01*
X3467963Y3648201D01*
X3466033Y3653586D01*
X3462985Y3658463D01*
X3458972Y3662527D01*
X3454095Y3665575D01*
X3448710Y3667455D01*
X3442411Y3668166D01*
X3288588Y3668166D01*
X3282289Y3667455D01*
X3276904Y3665575D01*
X3272028Y3662527D01*
X3268014Y3658463D01*
X3264966Y3653586D01*
X3263036Y3648201D01*
X3262325Y3641953D01*
X3262325Y3543046D01*
X3263036Y3536797D01*
X3264966Y3531412D01*
X3268014Y3526536D01*
X3272028Y3522472D01*
X3276904Y3519424D01*
X3282289Y3517544D01*
X3288588Y3516833D01*
X3442411Y3516833D01*
X3448710Y3517544D01*
X3454095Y3519424D01*
X3458972Y3522472D01*
X3462985Y3526536D01*
X3466033Y3531412D01*
X3467963Y3536797D01*
X3469132Y3541369D01*
X3471367Y3544265D01*
X3474516Y3546195D01*
X3478174Y3546856D01*
X3532225Y3546856D01*
X3535883Y3546195D01*
X3539032Y3544265D01*
X3541268Y3541369D01*
X3542436Y3536797D01*
X3544366Y3531412D01*
X3547414Y3526536D01*
X3551428Y3522472D01*
X3556304Y3519424D01*
X3561689Y3517544D01*
X3567988Y3516833D01*
X3719829Y3516833D01*
X3723741Y3516071D01*
X3727043Y3513886D01*
X3729228Y3510584D01*
X3729990Y3506673D01*
X3729228Y3502812D01*
X3727043Y3499510D01*
X3698646Y3471113D01*
X3695344Y3468928D01*
X3691483Y3468166D01*
X3567988Y3468166D01*
X3561689Y3467455D01*
X3556304Y3465576D01*
X3551428Y3462528D01*
X3547414Y3458464D01*
X3544366Y3453587D01*
X3542436Y3448202D01*
X3541725Y3441954D01*
X3541725Y3343046D01*
X3542436Y3336798D01*
X3544366Y3331413D01*
X3547414Y3326536D01*
X3551428Y3322472D01*
X3556304Y3319424D01*
X3561689Y3317544D01*
X3567988Y3316833D01*
X3721811Y3316833D01*
X3728110Y3317544D01*
X3733495Y3319424D01*
X3738372Y3322472D01*
X3742385Y3326536D01*
X3745433Y3331413D01*
X3747363Y3336798D01*
X3748074Y3343046D01*
X3748074Y3387191D01*
X3748836Y3391052D01*
X3751021Y3394354D01*
X3791102Y3434435D01*
X3794404Y3436620D01*
X3798265Y3437432D01*
X3802176Y3436620D01*
X3805478Y3434435D01*
X3807663Y3431133D01*
X3808425Y3427272D01*
X3808425Y3423869D01*
X3866489Y3423869D01*
X3866489Y3468166D01*
X3849370Y3468166D01*
X3845458Y3468928D01*
X3842156Y3471113D01*
X3839972Y3474415D01*
X3839210Y3478326D01*
X3839972Y3482187D01*
X3842156Y3485489D01*
X3870553Y3513886D01*
X3873855Y3516071D01*
X3877716Y3516833D01*
X3988511Y3516833D01*
X3994810Y3517544D01*
X4000195Y3519424D01*
X4005072Y3522472D01*
X4009085Y3526536D01*
X4012133Y3531412D01*
X4014063Y3536797D01*
X4015232Y3541369D01*
X4017467Y3544265D01*
X4020616Y3546195D01*
X4024274Y3546856D01*
X4065625Y3546856D01*
X4069283Y3546195D01*
X4072432Y3544265D01*
X4074668Y3541369D01*
X4075836Y3536797D01*
X4077766Y3531412D01*
X4080814Y3526536D01*
X4084828Y3522472D01*
X4089704Y3519424D01*
X4095089Y3517544D01*
X4101388Y3516833D01*
X4255211Y3516833D01*
X4261510Y3517544D01*
X4266895Y3519424D01*
X4271772Y3522472D01*
X4275785Y3526536D01*
X4278833Y3531412D01*
X4280763Y3536797D01*
X4281932Y3541420D01*
X4284218Y3544315D01*
X4287367Y3546246D01*
X4290974Y3546906D01*
X5131866Y3546906D01*
X5135727Y3546144D01*
X5138978Y3544011D01*
X5235600Y3449320D01*
X5237784Y3446221D01*
X5238648Y3442512D01*
X5238089Y3438753D01*
X5236210Y3435451D01*
X5233263Y3433114D01*
X5229606Y3431997D01*
X5227320Y3431743D01*
X5221935Y3429812D01*
X5217058Y3426764D01*
X5213045Y3422751D01*
X5209997Y3417874D01*
X5208066Y3412490D01*
X5207406Y3406190D01*
X5207406Y3106369D01*
X5208066Y3100070D01*
X5209997Y3094685D01*
X5213045Y3089808D01*
X5217058Y3085795D01*
X5221935Y3082747D01*
X5227320Y3080816D01*
G37*
G36*
X2955950Y7552537D02*
G01*
X2994050Y7552537D01*
X2994050Y7596835D01*
X2929737Y7596835D01*
X2929737Y7578750D01*
X2930448Y7572502D01*
X2932328Y7567066D01*
X2935376Y7562240D01*
X2939440Y7558176D01*
X2944317Y7555128D01*
X2949702Y7553248D01*
G37*
G36*
X3096768Y7552537D02*
G01*
X3134817Y7552537D01*
X3141065Y7553248D01*
X3146501Y7555128D01*
X3151327Y7558176D01*
X3155391Y7562240D01*
X3158439Y7567066D01*
X3160369Y7572502D01*
X3161030Y7578750D01*
X3161030Y7596835D01*
X3096768Y7596835D01*
G37*
G36*
X1701800Y3197606D02*
G01*
X1715414Y3198520D01*
X1728825Y3201162D01*
X1741728Y3205581D01*
X1753971Y3211626D01*
X1765350Y3219196D01*
X1775612Y3228187D01*
X1784604Y3238449D01*
X1792173Y3249828D01*
X1798218Y3262071D01*
X1802638Y3274974D01*
X1805279Y3288385D01*
X1806193Y3302000D01*
X1805279Y3315614D01*
X1802638Y3329025D01*
X1798218Y3341928D01*
X1792173Y3354171D01*
X1784604Y3365550D01*
X1775612Y3375812D01*
X1765350Y3384804D01*
X1753971Y3392373D01*
X1741728Y3398418D01*
X1728825Y3402837D01*
X1715414Y3405479D01*
X1701800Y3406394D01*
X1688185Y3405479D01*
X1674774Y3402837D01*
X1661871Y3398418D01*
X1649628Y3392373D01*
X1638249Y3384804D01*
X1627987Y3375812D01*
X1618996Y3365550D01*
X1611426Y3354171D01*
X1605381Y3341928D01*
X1600962Y3329025D01*
X1598320Y3315614D01*
X1597406Y3302000D01*
X1598320Y3288385D01*
X1600962Y3274974D01*
X1605381Y3262071D01*
X1611426Y3249828D01*
X1618996Y3238449D01*
X1627987Y3228187D01*
X1638249Y3219196D01*
X1649628Y3211626D01*
X1661871Y3205581D01*
X1674774Y3201162D01*
X1688185Y3198520D01*
G37*
G36*
X1447800Y3197606D02*
G01*
X1461414Y3198520D01*
X1474825Y3201162D01*
X1487728Y3205581D01*
X1499971Y3211626D01*
X1511350Y3219196D01*
X1521612Y3228187D01*
X1530604Y3238449D01*
X1538173Y3249828D01*
X1544218Y3262071D01*
X1548638Y3274974D01*
X1551279Y3288385D01*
X1552194Y3302000D01*
X1551279Y3315614D01*
X1548638Y3329025D01*
X1544218Y3341928D01*
X1538173Y3354171D01*
X1530604Y3365550D01*
X1521612Y3375812D01*
X1511350Y3384804D01*
X1499971Y3392373D01*
X1487728Y3398418D01*
X1474825Y3402837D01*
X1461414Y3405479D01*
X1447800Y3406394D01*
X1434185Y3405479D01*
X1420774Y3402837D01*
X1407871Y3398418D01*
X1395628Y3392373D01*
X1384249Y3384804D01*
X1373987Y3375812D01*
X1364996Y3365550D01*
X1357426Y3354171D01*
X1351381Y3341928D01*
X1346962Y3329025D01*
X1344320Y3315614D01*
X1343406Y3302000D01*
X1344320Y3288385D01*
X1346962Y3274974D01*
X1351381Y3262071D01*
X1357426Y3249828D01*
X1364996Y3238449D01*
X1373987Y3228187D01*
X1384249Y3219196D01*
X1395628Y3211626D01*
X1407871Y3205581D01*
X1420774Y3201162D01*
X1434185Y3198520D01*
G37*
G36*
X4225950Y7539837D02*
G01*
X4404817Y7539837D01*
X4411065Y7540548D01*
X4416501Y7542428D01*
X4421327Y7545476D01*
X4425391Y7549540D01*
X4428439Y7554366D01*
X4430369Y7559802D01*
X4431030Y7566050D01*
X4431030Y7654696D01*
X4431842Y7658557D01*
X4434027Y7661859D01*
X4437329Y7664094D01*
X4441190Y7664856D01*
X4497425Y7664856D01*
X4501083Y7664196D01*
X4504232Y7662265D01*
X4506468Y7659370D01*
X4507636Y7654798D01*
X4509566Y7649413D01*
X4512614Y7644536D01*
X4516628Y7640472D01*
X4521504Y7637424D01*
X4526889Y7635544D01*
X4533188Y7634833D01*
X4687011Y7634833D01*
X4693310Y7635544D01*
X4698695Y7637424D01*
X4703572Y7640472D01*
X4707585Y7644536D01*
X4710633Y7649413D01*
X4712563Y7654798D01*
X4713274Y7661046D01*
X4713274Y7759953D01*
X4712563Y7766202D01*
X4710633Y7771587D01*
X4707585Y7776464D01*
X4703572Y7780528D01*
X4698695Y7783575D01*
X4693310Y7785455D01*
X4687011Y7786166D01*
X4533188Y7786166D01*
X4526889Y7785455D01*
X4521504Y7783575D01*
X4516628Y7780528D01*
X4512614Y7776464D01*
X4509566Y7771587D01*
X4507636Y7766202D01*
X4506468Y7761630D01*
X4504232Y7758734D01*
X4501083Y7756804D01*
X4497425Y7756144D01*
X4408678Y7756093D01*
X4399991Y7754924D01*
X4392015Y7752232D01*
X4384649Y7748117D01*
X4377842Y7742428D01*
X4329480Y7694117D01*
X4326178Y7691932D01*
X4322318Y7691120D01*
X4225950Y7691120D01*
X4219702Y7690459D01*
X4214317Y7688529D01*
X4209440Y7685481D01*
X4205376Y7681468D01*
X4202328Y7676591D01*
X4200448Y7671206D01*
X4199737Y7664907D01*
X4199737Y7566050D01*
X4200448Y7559802D01*
X4202328Y7554366D01*
X4205376Y7549540D01*
X4209440Y7545476D01*
X4214317Y7542428D01*
X4219702Y7540548D01*
G37*
G36*
X3265982Y7539837D02*
G01*
X3444849Y7539837D01*
X3451098Y7540548D01*
X3456482Y7542428D01*
X3461359Y7545476D01*
X3465423Y7549540D01*
X3468471Y7554366D01*
X3470351Y7559802D01*
X3471062Y7566050D01*
X3471062Y7664907D01*
X3470351Y7671206D01*
X3468471Y7676591D01*
X3465423Y7681468D01*
X3461359Y7685481D01*
X3456482Y7688529D01*
X3451098Y7690459D01*
X3444849Y7691120D01*
X3411220Y7691120D01*
X3407359Y7691932D01*
X3404057Y7694117D01*
X3401822Y7697419D01*
X3401060Y7701280D01*
X3401060Y7765440D01*
X3401974Y7769606D01*
X3406190Y7778953D01*
X3408578Y7788249D01*
X3409442Y7797800D01*
X3408578Y7807350D01*
X3406190Y7816646D01*
X3402228Y7825435D01*
X3396843Y7833359D01*
X3390188Y7840319D01*
X3382467Y7846009D01*
X3373932Y7850327D01*
X3364737Y7853172D01*
X3355187Y7854391D01*
X3345586Y7853934D01*
X3336239Y7851952D01*
X3327298Y7848346D01*
X3319119Y7843316D01*
X3311906Y7836966D01*
X3305911Y7829499D01*
X3301187Y7821117D01*
X3297986Y7812074D01*
X3296361Y7802625D01*
X3296361Y7792974D01*
X3297986Y7783525D01*
X3301187Y7774482D01*
X3305911Y7766100D01*
X3307486Y7764119D01*
X3309162Y7761071D01*
X3309772Y7757718D01*
X3309772Y7701280D01*
X3309010Y7697419D01*
X3306775Y7694117D01*
X3303473Y7691932D01*
X3299612Y7691120D01*
X3265982Y7691120D01*
X3259734Y7690459D01*
X3254298Y7688529D01*
X3249472Y7685481D01*
X3245408Y7681468D01*
X3242360Y7676591D01*
X3240430Y7671206D01*
X3239770Y7664907D01*
X3239770Y7566050D01*
X3240430Y7559802D01*
X3242360Y7554366D01*
X3245408Y7549540D01*
X3249472Y7545476D01*
X3254298Y7542428D01*
X3259734Y7540548D01*
G37*
G36*
X1148080Y3208426D02*
G01*
X1148080Y3256279D01*
X1100226Y3256279D01*
X1103426Y3249828D01*
X1110996Y3238449D01*
X1119987Y3228187D01*
X1130249Y3219196D01*
X1141628Y3211626D01*
G37*
G36*
X1239520Y3208426D02*
G01*
X1245971Y3211626D01*
X1257350Y3219196D01*
X1267612Y3228187D01*
X1276604Y3238449D01*
X1284173Y3249828D01*
X1287373Y3256279D01*
X1239520Y3256279D01*
G37*
G36*
X6209233Y3220110D02*
G01*
X6253530Y3220110D01*
X6253530Y3278174D01*
X6235446Y3278174D01*
X6229197Y3277463D01*
X6223812Y3275533D01*
X6218936Y3272485D01*
X6214872Y3268472D01*
X6211824Y3263595D01*
X6209944Y3258210D01*
X6209233Y3251911D01*
G37*
G36*
X6316268Y3220110D02*
G01*
X6360566Y3220110D01*
X6360566Y3251911D01*
X6359855Y3258210D01*
X6357975Y3263595D01*
X6354927Y3268472D01*
X6350863Y3272485D01*
X6345986Y3275533D01*
X6340602Y3277463D01*
X6334353Y3278174D01*
X6316268Y3278174D01*
G37*
G36*
X6235446Y3313125D02*
G01*
X6253530Y3313125D01*
X6253530Y3371189D01*
X6209233Y3371189D01*
X6209233Y3339388D01*
X6209944Y3333089D01*
X6211824Y3327704D01*
X6214872Y3322828D01*
X6218936Y3318814D01*
X6223812Y3315766D01*
X6229197Y3313836D01*
G37*
G36*
X6316268Y3313125D02*
G01*
X6334353Y3313125D01*
X6340602Y3313836D01*
X6345986Y3315766D01*
X6350863Y3318814D01*
X6354927Y3322828D01*
X6357975Y3327704D01*
X6359855Y3333089D01*
X6360566Y3339388D01*
X6360566Y3371189D01*
X6316268Y3371189D01*
G37*
G36*
X4101388Y3316833D02*
G01*
X4133189Y3316833D01*
X4133189Y3361131D01*
X4075125Y3361131D01*
X4075125Y3343046D01*
X4075836Y3336798D01*
X4077766Y3331413D01*
X4080814Y3326536D01*
X4084828Y3322472D01*
X4089704Y3319424D01*
X4095089Y3317544D01*
G37*
G36*
X4223410Y3316833D02*
G01*
X4255211Y3316833D01*
X4261510Y3317544D01*
X4266895Y3319424D01*
X4271772Y3322472D01*
X4275785Y3326536D01*
X4278833Y3331413D01*
X4280763Y3336798D01*
X4281474Y3343046D01*
X4281474Y3361131D01*
X4223410Y3361131D01*
G37*
G36*
X3956710Y3316833D02*
G01*
X3988511Y3316833D01*
X3994810Y3317544D01*
X4000195Y3319424D01*
X4005072Y3322472D01*
X4009085Y3326536D01*
X4012133Y3331413D01*
X4014063Y3336798D01*
X4014774Y3343046D01*
X4014774Y3361131D01*
X3956710Y3361131D01*
G37*
G36*
X3410610Y3316833D02*
G01*
X3442411Y3316833D01*
X3448710Y3317544D01*
X3454095Y3319424D01*
X3458972Y3322472D01*
X3462985Y3326536D01*
X3466033Y3331413D01*
X3467963Y3336798D01*
X3468674Y3343046D01*
X3468674Y3361131D01*
X3410610Y3361131D01*
G37*
G36*
X3834688Y3316833D02*
G01*
X3866489Y3316833D01*
X3866489Y3361131D01*
X3808425Y3361131D01*
X3808425Y3343046D01*
X3809136Y3336798D01*
X3811066Y3331413D01*
X3814114Y3326536D01*
X3818128Y3322472D01*
X3823004Y3319424D01*
X3828389Y3317544D01*
G37*
G36*
X3288588Y3316833D02*
G01*
X3320389Y3316833D01*
X3320389Y3361131D01*
X3262325Y3361131D01*
X3262325Y3343046D01*
X3263036Y3336798D01*
X3264966Y3331413D01*
X3268014Y3326536D01*
X3272028Y3322472D01*
X3276904Y3319424D01*
X3282289Y3317544D01*
G37*
G36*
X3169310Y6544868D02*
G01*
X3227374Y6544868D01*
X3227374Y6562953D01*
X3226663Y6569202D01*
X3224733Y6574586D01*
X3221685Y6579463D01*
X3217672Y6583527D01*
X3212795Y6586575D01*
X3207410Y6588455D01*
X3201111Y6589166D01*
X3169310Y6589166D01*
G37*
G36*
X5098745Y3337864D02*
G01*
X5155844Y3337864D01*
X5155844Y3406190D01*
X5155133Y3412490D01*
X5153202Y3417874D01*
X5150154Y3422751D01*
X5146141Y3426764D01*
X5141264Y3429812D01*
X5135880Y3431743D01*
X5129580Y3432403D01*
X5098745Y3432403D01*
G37*
G36*
X4953406Y3337864D02*
G01*
X5010454Y3337864D01*
X5010454Y3432403D01*
X4979619Y3432403D01*
X4973320Y3431743D01*
X4967935Y3429812D01*
X4963058Y3426764D01*
X4959045Y3422751D01*
X4955997Y3417874D01*
X4954066Y3412490D01*
X4953406Y3406190D01*
G37*
G36*
X1239520Y3347720D02*
G01*
X1287373Y3347720D01*
X1284173Y3354171D01*
X1276604Y3365550D01*
X1267612Y3375812D01*
X1257350Y3384804D01*
X1245971Y3392373D01*
X1239520Y3395573D01*
G37*
G36*
X4075125Y3423869D02*
G01*
X4133189Y3423869D01*
X4133189Y3468166D01*
X4101388Y3468166D01*
X4095089Y3467455D01*
X4089704Y3465576D01*
X4084828Y3462528D01*
X4080814Y3458464D01*
X4077766Y3453587D01*
X4075836Y3448202D01*
X4075125Y3441954D01*
G37*
G36*
X4223410Y3423869D02*
G01*
X4281474Y3423869D01*
X4281474Y3441954D01*
X4280763Y3448202D01*
X4278833Y3453587D01*
X4275785Y3458464D01*
X4271772Y3462528D01*
X4266895Y3465576D01*
X4261510Y3467455D01*
X4255211Y3468166D01*
X4223410Y3468166D01*
G37*
G36*
X3410610Y3423869D02*
G01*
X3468674Y3423869D01*
X3468674Y3441954D01*
X3467963Y3448202D01*
X3466033Y3453587D01*
X3462985Y3458464D01*
X3458972Y3462528D01*
X3454095Y3465576D01*
X3448710Y3467455D01*
X3442411Y3468166D01*
X3410610Y3468166D01*
G37*
G36*
X3956710Y3423869D02*
G01*
X4014774Y3423869D01*
X4014774Y3441954D01*
X4014063Y3448202D01*
X4012133Y3453587D01*
X4009085Y3458464D01*
X4005072Y3462528D01*
X4000195Y3465576D01*
X3994810Y3467455D01*
X3988511Y3468166D01*
X3956710Y3468166D01*
G37*
G36*
X3262325Y3423869D02*
G01*
X3320389Y3423869D01*
X3320389Y3468166D01*
X3288588Y3468166D01*
X3282289Y3467455D01*
X3276904Y3465576D01*
X3272028Y3462528D01*
X3268014Y3458464D01*
X3264966Y3453587D01*
X3263036Y3448202D01*
X3262325Y3441954D01*
G37*
G36*
X3300425Y6544868D02*
G01*
X3358489Y6544868D01*
X3358489Y6589166D01*
X3326688Y6589166D01*
X3320389Y6588455D01*
X3315004Y6586575D01*
X3310128Y6583527D01*
X3306114Y6579463D01*
X3303066Y6574586D01*
X3301136Y6569202D01*
X3300425Y6562953D01*
G37*
G36*
X6316268Y3461410D02*
G01*
X6360566Y3461410D01*
X6360566Y3493211D01*
X6359855Y3499510D01*
X6357975Y3504895D01*
X6354927Y3509772D01*
X6350863Y3513785D01*
X6345986Y3516833D01*
X6340602Y3518763D01*
X6334353Y3519474D01*
X6316268Y3519474D01*
G37*
G36*
X6209233Y3461410D02*
G01*
X6253530Y3461410D01*
X6253530Y3519474D01*
X6235446Y3519474D01*
X6229197Y3518763D01*
X6223812Y3516833D01*
X6218936Y3513785D01*
X6214872Y3509772D01*
X6211824Y3504895D01*
X6209944Y3499510D01*
X6209233Y3493211D01*
G37*
G36*
X3021025Y6544868D02*
G01*
X3079089Y6544868D01*
X3079089Y6589166D01*
X3047288Y6589166D01*
X3040989Y6588455D01*
X3035604Y6586575D01*
X3030728Y6583527D01*
X3026714Y6579463D01*
X3023666Y6574586D01*
X3021736Y6569202D01*
X3021025Y6562953D01*
G37*
G36*
X3448710Y6544868D02*
G01*
X3506774Y6544868D01*
X3506774Y6562953D01*
X3506063Y6569202D01*
X3504133Y6574586D01*
X3501085Y6579463D01*
X3497072Y6583527D01*
X3492195Y6586575D01*
X3486810Y6588455D01*
X3480511Y6589166D01*
X3448710Y6589166D01*
G37*
G36*
X3448710Y6437833D02*
G01*
X3480511Y6437833D01*
X3486810Y6438544D01*
X3492195Y6440424D01*
X3497072Y6443472D01*
X3501085Y6447536D01*
X3504133Y6452412D01*
X3506063Y6457797D01*
X3506774Y6464046D01*
X3506774Y6482130D01*
X3448710Y6482130D01*
G37*
G36*
X6316268Y3554425D02*
G01*
X6334353Y3554425D01*
X6340602Y3555136D01*
X6345986Y3557066D01*
X6350863Y3560114D01*
X6354927Y3564128D01*
X6357975Y3569004D01*
X6359855Y3574389D01*
X6360566Y3580688D01*
X6360566Y3612489D01*
X6316268Y3612489D01*
G37*
G36*
X6235446Y3554425D02*
G01*
X6253530Y3554425D01*
X6253530Y3612489D01*
X6209233Y3612489D01*
X6209233Y3580688D01*
X6209944Y3574389D01*
X6211824Y3569004D01*
X6214872Y3564128D01*
X6218936Y3560114D01*
X6223812Y3557066D01*
X6229197Y3555136D01*
G37*
G36*
X3699560Y6037275D02*
G01*
X3793845Y6037275D01*
X3793845Y6081572D01*
X3725773Y6081572D01*
X3719525Y6080861D01*
X3714089Y6078982D01*
X3709263Y6075934D01*
X3705199Y6071870D01*
X3702151Y6066993D01*
X3700272Y6061608D01*
X3699560Y6055360D01*
G37*
G36*
X6500825Y5846368D02*
G01*
X6558889Y5846368D01*
X6558889Y5890666D01*
X6527088Y5890666D01*
X6520789Y5889955D01*
X6515404Y5888075D01*
X6512712Y5886348D01*
X6508750Y5884926D01*
X6506413Y5885078D01*
X6506565Y5882741D01*
X6505143Y5878779D01*
X6503466Y5876086D01*
X6501536Y5870702D01*
X6500825Y5864453D01*
G37*
G36*
X6649110Y5846368D02*
G01*
X6707174Y5846368D01*
X6707174Y5864453D01*
X6706463Y5870702D01*
X6704533Y5876086D01*
X6701485Y5880963D01*
X6697472Y5885027D01*
X6692595Y5888075D01*
X6687210Y5889955D01*
X6680911Y5890666D01*
X6649110Y5890666D01*
G37*
G36*
X6649110Y5739333D02*
G01*
X6680911Y5739333D01*
X6687210Y5740044D01*
X6692595Y5741924D01*
X6697472Y5744972D01*
X6701485Y5749036D01*
X6704533Y5753912D01*
X6706463Y5759297D01*
X6707174Y5765546D01*
X6707174Y5783630D01*
X6649110Y5783630D01*
G37*
G36*
X6527088Y5739333D02*
G01*
X6558889Y5739333D01*
X6558889Y5783630D01*
X6500825Y5783630D01*
X6500825Y5765546D01*
X6501536Y5759297D01*
X6503466Y5753912D01*
X6506514Y5749036D01*
X6510528Y5744972D01*
X6515404Y5741924D01*
X6520789Y5740044D01*
G37*
G36*
X1946249Y3698951D02*
G01*
X1995576Y3698951D01*
X1995576Y3727043D01*
X1994865Y3733292D01*
X1992934Y3738727D01*
X1989886Y3743553D01*
X1985873Y3747617D01*
X1980996Y3750665D01*
X1975612Y3752545D01*
X1969312Y3753256D01*
X1946249Y3753256D01*
G37*
G36*
X6316268Y3702710D02*
G01*
X6360566Y3702710D01*
X6360566Y3734511D01*
X6359855Y3740810D01*
X6357975Y3746195D01*
X6354927Y3751072D01*
X6350863Y3755085D01*
X6345986Y3758133D01*
X6340602Y3760063D01*
X6334353Y3760774D01*
X6316268Y3760774D01*
G37*
G36*
X6209233Y3702710D02*
G01*
X6253530Y3702710D01*
X6253530Y3760774D01*
X6235446Y3760774D01*
X6229197Y3760063D01*
X6223812Y3758133D01*
X6218936Y3755085D01*
X6214872Y3751072D01*
X6211824Y3746195D01*
X6209944Y3740810D01*
X6209233Y3734511D01*
G37*
G36*
X7016242Y5438851D02*
G01*
X7088936Y5438851D01*
X7087819Y5441492D01*
X7081012Y5452618D01*
X7072782Y5462778D01*
X7063231Y5471668D01*
X7052564Y5479186D01*
X7040981Y5485180D01*
X7028688Y5489549D01*
X7016242Y5492140D01*
G37*
G36*
X6316268Y3783025D02*
G01*
X6334353Y3783025D01*
X6340602Y3783736D01*
X6345986Y3785666D01*
X6350863Y3788714D01*
X6354927Y3792728D01*
X6357975Y3797604D01*
X6359855Y3802989D01*
X6360566Y3809288D01*
X6360566Y3841089D01*
X6316268Y3841089D01*
G37*
G36*
X6235446Y3783025D02*
G01*
X6253530Y3783025D01*
X6253530Y3841089D01*
X6209233Y3841089D01*
X6209233Y3809288D01*
X6209944Y3802989D01*
X6211824Y3797604D01*
X6214872Y3792728D01*
X6218936Y3788714D01*
X6223812Y3785666D01*
X6229197Y3783736D01*
G37*
G36*
X6804863Y5438851D02*
G01*
X6877558Y5438851D01*
X6877558Y5492140D01*
X6865112Y5489549D01*
X6852818Y5485180D01*
X6841236Y5479186D01*
X6830568Y5471668D01*
X6821017Y5462778D01*
X6812788Y5452618D01*
X6805980Y5441492D01*
G37*
G36*
X1850491Y3854043D02*
G01*
X1873554Y3854043D01*
X1873554Y3908348D01*
X1824228Y3908348D01*
X1824228Y3880256D01*
X1824939Y3874008D01*
X1826869Y3868572D01*
X1829917Y3863746D01*
X1833930Y3859682D01*
X1838807Y3856634D01*
X1844192Y3854754D01*
G37*
G36*
X1946249Y3854043D02*
G01*
X1969312Y3854043D01*
X1975612Y3854754D01*
X1980996Y3856634D01*
X1985873Y3859682D01*
X1989886Y3863746D01*
X1992934Y3868572D01*
X1994865Y3874008D01*
X1995576Y3880256D01*
X1995576Y3908348D01*
X1946249Y3908348D01*
G37*
G36*
X4449572Y5411266D02*
G01*
X4568850Y5411266D01*
X4568850Y5530545D01*
X4475784Y5530545D01*
X4469485Y5529884D01*
X4464100Y5527954D01*
X4459224Y5524906D01*
X4455210Y5520893D01*
X4452162Y5516016D01*
X4450232Y5510631D01*
X4449572Y5504332D01*
G37*
G36*
X6316268Y3931310D02*
G01*
X6360566Y3931310D01*
X6360566Y3963111D01*
X6359855Y3969410D01*
X6357975Y3974795D01*
X6354927Y3979672D01*
X6350863Y3983685D01*
X6345986Y3986733D01*
X6340602Y3988663D01*
X6334353Y3989374D01*
X6316268Y3989374D01*
G37*
G36*
X6209233Y3931310D02*
G01*
X6253530Y3931310D01*
X6253530Y3989374D01*
X6235446Y3989374D01*
X6229197Y3988663D01*
X6223812Y3986733D01*
X6218936Y3983685D01*
X6214872Y3979672D01*
X6211824Y3974795D01*
X6209944Y3969410D01*
X6209233Y3963111D01*
G37*
G36*
X4781550Y5411266D02*
G01*
X4900879Y5411266D01*
X4900879Y5504332D01*
X4900168Y5510631D01*
X4898237Y5516016D01*
X4895189Y5520893D01*
X4891176Y5524906D01*
X4886299Y5527954D01*
X4880914Y5529884D01*
X4874615Y5530545D01*
X4781550Y5530545D01*
G37*
G36*
X1824228Y3991051D02*
G01*
X1873554Y3991051D01*
X1873554Y4045356D01*
X1850491Y4045356D01*
X1844192Y4044645D01*
X1838807Y4042765D01*
X1833930Y4039717D01*
X1829917Y4035653D01*
X1826869Y4030827D01*
X1824939Y4025392D01*
X1824228Y4019143D01*
G37*
G36*
X1946249Y3991051D02*
G01*
X1995576Y3991051D01*
X1995576Y4019143D01*
X1994865Y4025392D01*
X1992934Y4030827D01*
X1989886Y4035653D01*
X1985873Y4039717D01*
X1980996Y4042765D01*
X1975612Y4044645D01*
X1969312Y4045356D01*
X1946249Y4045356D01*
G37*
G36*
X7016242Y5302859D02*
G01*
X7028688Y5305450D01*
X7040981Y5309819D01*
X7052564Y5315813D01*
X7063231Y5323332D01*
X7072782Y5332222D01*
X7081012Y5342382D01*
X7087819Y5353507D01*
X7088936Y5356148D01*
X7016242Y5356148D01*
G37*
G36*
X6129426Y5201920D02*
G01*
X6177280Y5201920D01*
X6177280Y5249773D01*
X6170828Y5246573D01*
X6159449Y5239004D01*
X6149187Y5230012D01*
X6140196Y5219750D01*
X6132626Y5208371D01*
G37*
G36*
X6268720Y5201920D02*
G01*
X6316573Y5201920D01*
X6313373Y5208371D01*
X6305804Y5219750D01*
X6296812Y5230012D01*
X6286550Y5239004D01*
X6275171Y5246573D01*
X6268720Y5249773D01*
G37*
G36*
X4781550Y5079238D02*
G01*
X4874615Y5079238D01*
X4880914Y5079949D01*
X4886299Y5081879D01*
X4891176Y5084927D01*
X4895189Y5088940D01*
X4898237Y5093817D01*
X4900168Y5099202D01*
X4900879Y5105501D01*
X4900879Y5198567D01*
X4781550Y5198567D01*
G37*
G36*
X4475784Y5079238D02*
G01*
X4568850Y5079238D01*
X4568850Y5198567D01*
X4449572Y5198567D01*
X4449572Y5105501D01*
X4450232Y5099202D01*
X4452162Y5093817D01*
X4455210Y5088940D01*
X4459224Y5084927D01*
X4464100Y5081879D01*
X4469485Y5079949D01*
G37*
G36*
X6891223Y5047843D02*
G01*
X7002576Y5047843D01*
X7015937Y5048758D01*
X7028688Y5051450D01*
X7040981Y5055819D01*
X7052564Y5061813D01*
X7063231Y5069332D01*
X7072782Y5078222D01*
X7081012Y5088382D01*
X7087819Y5099507D01*
X7093000Y5111496D01*
X7096506Y5124043D01*
X7098284Y5136997D01*
X7098284Y5150002D01*
X7096506Y5162956D01*
X7093000Y5175504D01*
X7087819Y5187492D01*
X7081012Y5198618D01*
X7072782Y5208778D01*
X7063231Y5217668D01*
X7052564Y5225186D01*
X7040981Y5231180D01*
X7028688Y5235549D01*
X7015937Y5238242D01*
X7002576Y5239105D01*
X6920026Y5239105D01*
X6916166Y5239918D01*
X6912864Y5242102D01*
X6869480Y5285486D01*
X6867194Y5288889D01*
X6866483Y5292902D01*
X6867398Y5296865D01*
X6869785Y5300167D01*
X6873290Y5302300D01*
X6877558Y5302808D01*
X6877558Y5356148D01*
X6803034Y5356148D01*
X6799122Y5356910D01*
X6795820Y5359146D01*
X6652615Y5502351D01*
X6650431Y5505653D01*
X6649669Y5509514D01*
X6649669Y5529173D01*
X6650431Y5533085D01*
X6652615Y5536387D01*
X6655917Y5538571D01*
X6659829Y5539333D01*
X6680911Y5539333D01*
X6687210Y5540044D01*
X6692595Y5541924D01*
X6697472Y5544972D01*
X6701485Y5549036D01*
X6704533Y5553913D01*
X6706463Y5559298D01*
X6707174Y5565546D01*
X6707174Y5664454D01*
X6706463Y5670702D01*
X6704533Y5676087D01*
X6701485Y5680964D01*
X6697472Y5685028D01*
X6692595Y5688076D01*
X6687210Y5689955D01*
X6680911Y5690666D01*
X6527088Y5690666D01*
X6520789Y5689955D01*
X6515404Y5688076D01*
X6510528Y5685028D01*
X6506514Y5680964D01*
X6503466Y5676087D01*
X6501536Y5670702D01*
X6500825Y5664454D01*
X6500825Y5565546D01*
X6501536Y5559298D01*
X6503466Y5553913D01*
X6506514Y5549036D01*
X6510528Y5544972D01*
X6515404Y5541924D01*
X6520789Y5540044D01*
X6527088Y5539333D01*
X6548170Y5539333D01*
X6552082Y5538571D01*
X6555384Y5536387D01*
X6557568Y5533085D01*
X6558330Y5529173D01*
X6558381Y5484622D01*
X6559600Y5475935D01*
X6562293Y5467959D01*
X6566357Y5460644D01*
X6572046Y5453786D01*
X6812788Y5213045D01*
X6814870Y5209997D01*
X6815734Y5206390D01*
X6815226Y5202732D01*
X6805980Y5187492D01*
X6800799Y5175504D01*
X6797294Y5162956D01*
X6795516Y5150002D01*
X6795516Y5136997D01*
X6797294Y5124043D01*
X6800799Y5111496D01*
X6805980Y5099507D01*
X6812788Y5088382D01*
X6821017Y5078222D01*
X6830568Y5069332D01*
X6841236Y5061813D01*
X6852818Y5055819D01*
X6865112Y5051450D01*
X6877862Y5048758D01*
G37*
G36*
X6891223Y4793843D02*
G01*
X7002576Y4793843D01*
X7015937Y4794758D01*
X7028688Y4797450D01*
X7040981Y4801819D01*
X7052564Y4807813D01*
X7063231Y4815332D01*
X7072782Y4824222D01*
X7081012Y4834382D01*
X7087819Y4845507D01*
X7093000Y4857496D01*
X7096506Y4870043D01*
X7098284Y4882997D01*
X7098284Y4896002D01*
X7096506Y4908956D01*
X7093000Y4921504D01*
X7087819Y4933492D01*
X7081012Y4944618D01*
X7072782Y4954778D01*
X7063231Y4963668D01*
X7052564Y4971186D01*
X7040981Y4977180D01*
X7028688Y4981549D01*
X7015937Y4984242D01*
X7002576Y4985105D01*
X6891223Y4985105D01*
X6877862Y4984242D01*
X6865112Y4981549D01*
X6852818Y4977180D01*
X6841236Y4971186D01*
X6830568Y4963668D01*
X6821017Y4954778D01*
X6812788Y4944618D01*
X6805980Y4933492D01*
X6800799Y4921504D01*
X6797294Y4908956D01*
X6795516Y4896002D01*
X6795516Y4882997D01*
X6797294Y4870043D01*
X6800799Y4857496D01*
X6805980Y4845507D01*
X6812788Y4834382D01*
X6821017Y4824222D01*
X6830568Y4815332D01*
X6841236Y4807813D01*
X6852818Y4801819D01*
X6865112Y4797450D01*
X6877862Y4794758D01*
G37*
G36*
X6891223Y4539843D02*
G01*
X7002576Y4539843D01*
X7015937Y4540758D01*
X7028688Y4543450D01*
X7040981Y4547819D01*
X7052564Y4553813D01*
X7063231Y4561332D01*
X7072782Y4570222D01*
X7081012Y4580382D01*
X7087819Y4591507D01*
X7093000Y4603496D01*
X7096506Y4616043D01*
X7098284Y4628997D01*
X7098284Y4642002D01*
X7096506Y4654956D01*
X7093000Y4667504D01*
X7087819Y4679492D01*
X7081012Y4690618D01*
X7072782Y4700778D01*
X7063231Y4709668D01*
X7052564Y4717186D01*
X7040981Y4723180D01*
X7028688Y4727549D01*
X7015937Y4730242D01*
X7002576Y4731105D01*
X6891223Y4731105D01*
X6877862Y4730242D01*
X6865112Y4727549D01*
X6852818Y4723180D01*
X6841236Y4717186D01*
X6830568Y4709668D01*
X6821017Y4700778D01*
X6812788Y4690618D01*
X6805980Y4679492D01*
X6800799Y4667504D01*
X6797294Y4654956D01*
X6795516Y4642002D01*
X6795516Y4628997D01*
X6797294Y4616043D01*
X6800799Y4603496D01*
X6805980Y4591507D01*
X6812788Y4580382D01*
X6821017Y4570222D01*
X6830568Y4561332D01*
X6841236Y4553813D01*
X6852818Y4547819D01*
X6865112Y4543450D01*
X6877862Y4540758D01*
G37*
G36*
X3034842Y4425543D02*
G01*
X3076651Y4425543D01*
X3076651Y4443628D01*
X3075940Y4449876D01*
X3074060Y4455312D01*
X3071012Y4460138D01*
X3066948Y4464202D01*
X3062071Y4467250D01*
X3056686Y4469130D01*
X3050438Y4469841D01*
X3034842Y4469841D01*
G37*
G36*
X2935325Y4425543D02*
G01*
X2977134Y4425543D01*
X2977134Y4469841D01*
X2961589Y4469841D01*
X2955290Y4469130D01*
X2949905Y4467250D01*
X2945028Y4464202D01*
X2940964Y4460138D01*
X2937916Y4455312D01*
X2936036Y4449876D01*
X2935325Y4443628D01*
G37*
G36*
X3034842Y4318558D02*
G01*
X3050438Y4318558D01*
X3056686Y4319270D01*
X3062071Y4321149D01*
X3066948Y4324197D01*
X3071012Y4328261D01*
X3074060Y4333087D01*
X3075940Y4338523D01*
X3076651Y4344771D01*
X3076651Y4362856D01*
X3034842Y4362856D01*
G37*
G36*
X1863648Y4128820D02*
G01*
X1896770Y4128820D01*
X1896770Y4198162D01*
X1837436Y4198162D01*
X1837436Y4155084D01*
X1838147Y4148785D01*
X1840026Y4143400D01*
X1843074Y4138523D01*
X1847138Y4134510D01*
X1852015Y4131462D01*
X1857400Y4129532D01*
G37*
G36*
X1989429Y4128820D02*
G01*
X2022551Y4128820D01*
X2028799Y4129532D01*
X2034184Y4131462D01*
X2039061Y4134510D01*
X2043125Y4138523D01*
X2046173Y4143400D01*
X2048052Y4148785D01*
X2048764Y4155084D01*
X2048764Y4198162D01*
X1989429Y4198162D01*
G37*
G36*
X2961589Y4318558D02*
G01*
X2977134Y4318558D01*
X2977134Y4362856D01*
X2935325Y4362856D01*
X2935325Y4344771D01*
X2936036Y4338523D01*
X2937916Y4333087D01*
X2940964Y4328261D01*
X2945028Y4324197D01*
X2949905Y4321149D01*
X2955290Y4319270D01*
G37*
G36*
X4128058Y4286250D02*
G01*
X4172356Y4286250D01*
X4172356Y4380534D01*
X4154271Y4380534D01*
X4148023Y4379823D01*
X4142587Y4377944D01*
X4137761Y4374896D01*
X4133697Y4370832D01*
X4130649Y4366006D01*
X4128770Y4360570D01*
X4128058Y4354322D01*
G37*

%LPD*%
D11*
X6084824Y3175000D02*
G01*
X6084824Y3080257D01*
X5854700Y2850387D01*
D12*
X6932675Y2527300D02*
G01*
X6932675Y2462276D01*
X6807200Y2336800D01*
X6083300Y2336800D01*
X6083300Y2127504D01*
X6932599Y2755900D02*
G01*
X6932599Y2527300D01*
X6932599Y2984500D02*
G01*
X6932599Y2755900D01*
X6084900Y3416300D02*
G01*
X6084900Y3175000D01*
X6084900Y3657600D02*
G01*
X6084900Y3416300D01*
X6235700Y7861300D02*
G01*
X6604000Y7493000D01*
X6870700Y7493000D01*
X6908800Y7454900D01*
X6908800Y6350000D01*
X6845300Y6286500D01*
X6718300Y6286500D01*
D13*
X2835986Y5981700D02*
G01*
X2614599Y5981700D01*
X2614599Y5321300D02*
G01*
X2835986Y5321300D01*
X4127500Y5626100D02*
G01*
X3875277Y5624829D01*
X5675198Y4481906D02*
G01*
X5805093Y4481906D01*
X5956300Y4330700D01*
X5956300Y4279900D01*
D10*
X1943100Y4762500D02*
G01*
X2311400Y4394200D01*
X2414600Y4394200D01*
D14*
X1435100Y4889500D02*
G01*
X2224100Y4889500D01*
X2414600Y4699000D01*
X1435100Y5397500D02*
G01*
X2338400Y5397500D01*
X2414600Y5321300D01*
X1435100Y5651500D02*
G01*
X2006600Y5651500D01*
X2336800Y5981700D01*
X2414524Y5981700D01*
D13*
X3875277Y5370829D02*
G01*
X3696970Y5370829D01*
X3175000Y5892800D01*
X3175000Y6070600D01*
X3086100Y6159500D01*
X2717800Y6159500D01*
X2565400Y6311900D01*
X1752600Y7124700D01*
X1689100Y7124700D01*
X1435100Y7124700D02*
G01*
X1574800Y6985000D01*
X1765300Y6985000D01*
X2362200Y6388100D01*
X2362200Y6184900D01*
D10*
X1943100Y5016500D02*
G01*
X1955800Y5003800D01*
X2414600Y5003800D01*
X1943100Y5524500D02*
G01*
X2070100Y5651500D01*
X2414600Y5651500D01*
D13*
X3644900Y3835400D02*
G01*
X3644900Y3592499D01*
X4114800Y4991100D02*
G01*
X3875277Y4989829D01*
X4114800Y5118100D02*
G01*
X3875277Y5116829D01*
X5675198Y4354906D02*
G01*
X5690793Y4354906D01*
X5829300Y4216400D01*
D12*
X5854801Y2850261D02*
G01*
X5771362Y2933700D01*
X5029200Y2933700D01*
X4800600Y3162300D01*
X4800600Y3256279D01*
D13*
X5308600Y3256279D02*
G01*
X5308600Y3441700D01*
X5154675Y3592576D01*
X4178300Y3592576D01*
X6946900Y5143500D02*
G01*
X6604000Y5486400D01*
X6604000Y5615000D01*
X4140200Y2439923D02*
G01*
X4140200Y2149602D01*
D12*
X5308600Y3256279D02*
G01*
X5316220Y3263900D01*
X5549900Y3263900D01*
X4800600Y3256279D02*
G01*
X4184319Y2639999D01*
X4140200Y2639999D01*
X3314700Y2616189D02*
G01*
X3338509Y2639999D01*
X4140200Y2639999D01*
D13*
X1435100Y4635500D02*
G01*
X1431696Y4632096D01*
X1049197Y4632096D01*
X1376502Y6680200D02*
G01*
X1544497Y6680200D01*
D11*
X1544573Y6400800D02*
G01*
X1536700Y6408673D01*
X1536700Y6515100D01*
X1511300Y6540500D01*
X1257300Y6540500D01*
X1168400Y6565900D01*
X1168400Y6781800D01*
X990600Y6959600D01*
X838200Y6959600D01*
X774700Y7023100D01*
X774700Y7251700D01*
X800100Y7277100D01*
X2057400Y7277100D01*
X2197100Y7137400D01*
X2197100Y7124700D01*
X927100Y7124700D02*
G01*
X977900Y7124700D01*
X1376426Y6726173D01*
X1376426Y6680200D01*
D12*
X1036497Y6680200D02*
G01*
X1036497Y6400800D01*
X1036497Y6400800D02*
G01*
X1049197Y6388100D01*
X1049197Y3949700D01*
D11*
X1435100Y5905500D02*
G01*
X1376502Y5964097D01*
X1376502Y6400800D01*
X1376502Y6400800D02*
G01*
X1544497Y6400800D01*
X1544497Y6680200D02*
G01*
X1714500Y6510197D01*
X1714500Y5930900D01*
X1866900Y5778500D01*
X1943100Y5778500D01*
D12*
X1049197Y3949700D02*
G01*
X1049197Y3657600D01*
X977900Y2857500D02*
G01*
X787400Y3048000D01*
X787400Y3479800D01*
X965200Y3657600D01*
X1049273Y3657600D01*
D11*
X1389202Y3657600D02*
G01*
X1295400Y3657600D01*
X939800Y3302000D01*
X1569897Y3657600D02*
G01*
X1389202Y3657600D01*
X1569895Y3949700D02*
G01*
X1389204Y3949700D01*
X1569973Y3949700D02*
G01*
X1752600Y3767073D01*
X1752600Y3492500D01*
X2019300Y3492500D01*
X2209800Y3302000D01*
X1569973Y3949700D02*
G01*
X1569973Y4198873D01*
X1713484Y4342384D01*
X1879600Y4508500D01*
X1943100Y4508500D01*
X1389126Y3657600D02*
G01*
X1244600Y3802126D01*
X1244600Y4191000D01*
X1435100Y4381500D01*
D13*
X3365500Y3592499D02*
G01*
X3644900Y3592499D01*
X3644900Y3392423D02*
G01*
X3684524Y3392423D01*
X3884675Y3592576D01*
X3911600Y3592576D01*
D12*
X6932599Y2984500D02*
G01*
X6932599Y3049600D01*
X6932675Y2986023D02*
G01*
X6932675Y3074923D01*
X6515100Y3492500D01*
X6515100Y5270500D01*
X6375400Y5410200D01*
X6223000Y5410200D01*
D13*
X2085416Y8018195D02*
G01*
X2015815Y7948599D01*
X1689100Y7948599D01*
X2085416Y7628178D02*
G01*
X1964989Y7748600D01*
X1689100Y7748600D01*
X4315406Y7615478D02*
G01*
X4410435Y7710500D01*
X4610100Y7710500D01*
X4315406Y8005495D02*
G01*
X4410410Y7910499D01*
X4610100Y7910499D01*
X3352800Y7797800D02*
G01*
X3355416Y7795183D01*
X3355416Y7615478D01*
X2857500Y6313500D02*
G01*
X3124200Y6313500D01*
X2614599Y5003800D02*
G01*
X2835981Y5003800D01*
X2614599Y5651500D02*
G01*
X2835981Y5651500D01*
X2614599Y4394200D02*
G01*
X2835986Y4394200D01*
X2614599Y4699000D02*
G01*
X2835986Y4699000D01*
X4330700Y4204970D02*
G01*
X4330700Y3975100D01*
X2755900Y3975100D01*
X2414524Y4316476D01*
X2414524Y4394200D01*
X3875201Y4354906D02*
G01*
X3328593Y4354906D01*
X3136900Y4546600D01*
X2527300Y4546600D01*
X2414600Y4659299D01*
X2414600Y4699000D01*
X3875201Y4481906D02*
G01*
X3480993Y4481906D01*
X3111500Y4851400D01*
X2527300Y4851400D01*
X2414600Y4964099D01*
X2414600Y5003800D01*
X3875201Y4608906D02*
G01*
X3671493Y4608906D01*
X3124200Y5156200D01*
X2527300Y5156200D01*
X2414600Y5268899D01*
X2414600Y5321300D01*
X5346700Y4204893D02*
G01*
X5665393Y3886200D01*
X6084900Y3886200D01*
X6223000Y4902200D02*
G01*
X6210300Y4914900D01*
X6121400Y4914900D01*
X6046393Y4989906D01*
X5675198Y4989906D01*
X5675122Y5116829D02*
G01*
X6059170Y5116829D01*
X6146800Y5029200D01*
X6337300Y5029200D01*
X6337300Y4762500D01*
X6223000Y4648200D01*
X5675198Y5370906D02*
G01*
X5929706Y5370906D01*
X6223000Y5664200D01*
X5675198Y5497906D02*
G01*
X5878906Y5497906D01*
X6172200Y5791200D01*
X6324600Y5791200D01*
X6578600Y6045200D01*
X6578600Y6451600D01*
X6667500Y6540500D01*
X6718300Y6540500D01*
X5675198Y5751906D02*
G01*
X6031306Y5751906D01*
X6197600Y5918200D01*
X6223000Y5918200D01*
X5675198Y5624906D02*
G01*
X5462193Y5624906D01*
X5410200Y5676900D01*
X5410200Y6057900D01*
X6146800Y6794500D01*
X6718300Y6794500D01*
X5675122Y5878829D02*
G01*
X5956300Y5880100D01*
D12*
X6235700Y7861300D02*
G01*
X6019800Y8077200D01*
X5410200Y8077200D01*
X4114800Y6781800D01*
X4114800Y5930900D01*
X4062806Y5878906D01*
X3875201Y5878906D01*
D13*
X3124200Y6313500D02*
G01*
X3685793Y5751906D01*
X3875201Y5751906D01*
D12*
X3403600Y6313500D02*
G01*
X3403600Y6184900D01*
X3709593Y5878906D01*
X3875201Y5878906D01*
D13*
X3403600Y6313426D02*
G01*
X3303526Y6413500D01*
X2957573Y6413500D01*
X2857500Y6513573D01*
X5675122Y4862829D02*
G01*
X5867400Y4864100D01*
X5867400Y4521200D01*
X6223000Y4165600D01*
X6223000Y4140200D01*
X6718300Y7048500D02*
G01*
X6248400Y7048500D01*
X4951806Y5751906D01*
X3875201Y5751906D01*
X3045409Y8018195D02*
G01*
X2679700Y7652486D01*
X2679700Y6400800D01*
X2766999Y6313500D01*
X2857500Y6313500D01*
X5219700Y4483100D02*
G01*
X5219700Y4204893D01*
D10*
X3251200Y4572000D02*
G01*
X3124200Y4699000D01*
X3005988Y4699000D01*
X3251200Y4864100D02*
G01*
X3111500Y5003800D01*
X3005988Y5003800D01*
X3251200Y4203700D02*
G01*
X3060700Y4394200D01*
X3005988Y4394200D01*
D13*
X3875277Y4862829D02*
G01*
X3709670Y4862829D01*
X3632200Y4940300D01*
X3632200Y5245100D01*
X3073400Y5803900D01*
X2514600Y5803900D01*
X2414524Y5903976D01*
X2414524Y5981700D01*
X2414524Y5651500D02*
G01*
X2414524Y5535676D01*
X2514600Y5486400D01*
X3251200Y5486400D01*
X3530600Y5207000D01*
X3530600Y4876800D01*
X3671570Y4735829D01*
X3875277Y4735829D01*
X4178300Y3592499D02*
G01*
X3911600Y3592499D01*
D18*
G01*
X4315409Y7615478D03*
G01*
X3355416Y7615478D03*
G01*
X4315409Y8005495D03*
G01*
X3355416Y8005495D03*
G36*
X1995403Y8068208D02*
G01*
X2175403Y8068208D01*
X2175403Y7968208D01*
X1995403Y7968208D01*
G37*
G36*
X2955396Y8068208D02*
G01*
X3135396Y8068208D01*
X3135396Y7968208D01*
X2955396Y7968208D01*
G37*
G36*
X1995403Y7678191D02*
G01*
X2175403Y7678191D01*
X2175403Y7578191D01*
X1995403Y7578191D01*
G37*
G36*
X2955396Y7678191D02*
G01*
X3135396Y7678191D01*
X3135396Y7578191D01*
X2955396Y7578191D01*
G37*
D19*
G01*
X3005988Y4699000D03*
G01*
X2835986Y4699000D03*
G01*
X3005988Y5651500D03*
G01*
X2835986Y5651500D03*
G36*
X6034900Y3252500D02*
G01*
X6134900Y3252500D01*
X6134900Y3097499D01*
X6034900Y3097499D01*
G37*
G36*
X6234899Y3252500D02*
G01*
X6334899Y3252500D01*
X6334899Y3097499D01*
X6234899Y3097499D01*
G37*
G01*
X3005988Y4394200D03*
G01*
X2835986Y4394200D03*
G01*
X3005988Y5003800D03*
G01*
X2835986Y5003800D03*
G01*
X3005988Y5321300D03*
G01*
X2835986Y5321300D03*
G01*
X3005988Y5981700D03*
G01*
X2835986Y5981700D03*
G36*
X989200Y3727599D02*
G01*
X1109200Y3727599D01*
X1109200Y3587600D01*
X989200Y3587600D01*
G37*
G36*
X1329199Y3727599D02*
G01*
X1449199Y3727599D01*
X1449199Y3587600D01*
X1329199Y3587600D01*
G37*
G36*
X989200Y4019699D02*
G01*
X1109200Y4019699D01*
X1109200Y3879700D01*
X989200Y3879700D01*
G37*
G36*
X1329199Y4019699D02*
G01*
X1449199Y4019699D01*
X1449199Y3879700D01*
X1329199Y3879700D01*
G37*
G36*
X1509900Y4019699D02*
G01*
X1629900Y4019699D01*
X1629900Y3879700D01*
X1509900Y3879700D01*
G37*
G36*
X1849899Y4019699D02*
G01*
X1969899Y4019699D01*
X1969899Y3879700D01*
X1849899Y3879700D01*
G37*
G36*
X1509900Y3727599D02*
G01*
X1629900Y3727599D01*
X1629900Y3587600D01*
X1509900Y3587600D01*
G37*
G36*
X1849899Y3727599D02*
G01*
X1969899Y3727599D01*
X1969899Y3587600D01*
X1849899Y3587600D01*
G37*
G36*
X1484500Y6750199D02*
G01*
X1604500Y6750199D01*
X1604500Y6610200D01*
X1484500Y6610200D01*
G37*
G36*
X1824499Y6750199D02*
G01*
X1944499Y6750199D01*
X1944499Y6610200D01*
X1824499Y6610200D01*
G37*
G36*
X1484500Y6470799D02*
G01*
X1604500Y6470799D01*
X1604500Y6330800D01*
X1484500Y6330800D01*
G37*
G36*
X1824499Y6470799D02*
G01*
X1944499Y6470799D01*
X1944499Y6330800D01*
X1824499Y6330800D01*
G37*
G36*
X976500Y6750199D02*
G01*
X1096500Y6750199D01*
X1096500Y6610200D01*
X976500Y6610200D01*
G37*
G36*
X1316499Y6750199D02*
G01*
X1436499Y6750199D01*
X1436499Y6610200D01*
X1316499Y6610200D01*
G37*
G36*
X976500Y6470799D02*
G01*
X1096500Y6470799D01*
X1096500Y6330800D01*
X976500Y6330800D01*
G37*
G36*
X1316499Y6470799D02*
G01*
X1436499Y6470799D01*
X1436499Y6330800D01*
X1316499Y6330800D01*
G37*
G36*
X5774786Y3000375D02*
G01*
X5934806Y3000375D01*
X5934806Y2700146D01*
X5774786Y2700146D01*
G37*
D22*
G01*
X6311798Y2850895D03*
G36*
X6383274Y1802511D02*
G01*
X5783325Y1802511D01*
X5783325Y2452496D01*
X6383274Y2452496D01*
G37*
D24*
G01*
X4140200Y2440000D03*
G01*
X4140200Y2639999D03*
G36*
X2564599Y4471700D02*
G01*
X2664599Y4471700D01*
X2664599Y4316699D01*
X2564599Y4316699D01*
G37*
G36*
X2364600Y4471700D02*
G01*
X2464600Y4471700D01*
X2464600Y4316699D01*
X2364600Y4316699D01*
G37*
G36*
X2564599Y5081300D02*
G01*
X2664599Y5081300D01*
X2664599Y4926299D01*
X2564599Y4926299D01*
G37*
G36*
X2364600Y5081300D02*
G01*
X2464600Y5081300D01*
X2464600Y4926299D01*
X2364600Y4926299D01*
G37*
G36*
X2564599Y5398800D02*
G01*
X2664599Y5398800D01*
X2664599Y5243799D01*
X2564599Y5243799D01*
G37*
G36*
X2364600Y5398800D02*
G01*
X2464600Y5398800D01*
X2464600Y5243799D01*
X2364600Y5243799D01*
G37*
G36*
X2564599Y6059200D02*
G01*
X2664599Y6059200D01*
X2664599Y5904199D01*
X2564599Y5904199D01*
G37*
G36*
X2364600Y6059200D02*
G01*
X2464600Y6059200D01*
X2464600Y5904199D01*
X2364600Y5904199D01*
G37*
G36*
X2564599Y4776500D02*
G01*
X2664599Y4776500D01*
X2664599Y4621499D01*
X2564599Y4621499D01*
G37*
G36*
X2364600Y4776500D02*
G01*
X2464600Y4776500D01*
X2464600Y4621499D01*
X2364600Y4621499D01*
G37*
G36*
X2564599Y5729000D02*
G01*
X2664599Y5729000D01*
X2664599Y5573999D01*
X2564599Y5573999D01*
G37*
G36*
X2364600Y5729000D02*
G01*
X2464600Y5729000D01*
X2464600Y5573999D01*
X2364600Y5573999D01*
G37*
G01*
X2857500Y6513499D03*
G01*
X2857500Y6313500D03*
G01*
X3644900Y3392500D03*
G01*
X3644900Y3592499D03*
G01*
X3365500Y3592499D03*
G01*
X3365500Y3392500D03*
G36*
X6682600Y3062000D02*
G01*
X6782600Y3062000D01*
X6782600Y2906999D01*
X6682600Y2906999D01*
G37*
G36*
X6882599Y3062000D02*
G01*
X6982599Y3062000D01*
X6982599Y2906999D01*
X6882599Y2906999D01*
G37*
G01*
X3403600Y6313500D03*
G01*
X3403600Y6513499D03*
G01*
X4610100Y7710500D03*
G01*
X4610100Y7910499D03*
G01*
X1689100Y7948599D03*
G01*
X1689100Y7748600D03*
G01*
X3124200Y6513499D03*
G01*
X3124200Y6313500D03*
G01*
X6604000Y5615000D03*
G01*
X6604000Y5814999D03*
G36*
X6234899Y3963700D02*
G01*
X6334899Y3963700D01*
X6334899Y3808699D01*
X6234899Y3808699D01*
G37*
G36*
X6034900Y3963700D02*
G01*
X6134900Y3963700D01*
X6134900Y3808699D01*
X6034900Y3808699D01*
G37*
G36*
X4979034Y3406775D02*
G01*
X5130165Y3406775D01*
X5130165Y3105785D01*
X4979034Y3105785D01*
G37*
G36*
X5233034Y3406775D02*
G01*
X5384165Y3406775D01*
X5384165Y3105785D01*
X5233034Y3105785D01*
G37*
G36*
X4725034Y3406775D02*
G01*
X4876165Y3406775D01*
X4876165Y3105785D01*
X4725034Y3105785D01*
G37*
G36*
X4548504Y2756535D02*
G01*
X5560695Y2756535D01*
X5560695Y1754504D01*
X4548504Y1754504D01*
G37*
G36*
X6682600Y2604800D02*
G01*
X6782600Y2604800D01*
X6782600Y2449799D01*
X6682600Y2449799D01*
G37*
G36*
X6882599Y2604800D02*
G01*
X6982599Y2604800D01*
X6982599Y2449799D01*
X6882599Y2449799D01*
G37*
G01*
X3911600Y3592499D03*
G01*
X3911600Y3392500D03*
G36*
X6034900Y3493800D02*
G01*
X6134900Y3493800D01*
X6134900Y3338799D01*
X6034900Y3338799D01*
G37*
G36*
X6234899Y3493800D02*
G01*
X6334899Y3493800D01*
X6334899Y3338799D01*
X6234899Y3338799D01*
G37*
G36*
X6682600Y2833400D02*
G01*
X6782600Y2833400D01*
X6782600Y2678399D01*
X6682600Y2678399D01*
G37*
G36*
X6882599Y2833400D02*
G01*
X6982599Y2833400D01*
X6982599Y2678399D01*
X6882599Y2678399D01*
G37*
D20*
G01*
X6284899Y3657600D03*
G01*
X6084900Y3657600D03*
D24*
G01*
X4178300Y3592499D03*
G01*
X4178300Y3392500D03*
D27*
G01*
X4140327Y2149602D03*
G01*
X4140327Y1939544D03*
G36*
X4475190Y5504916D02*
G01*
X4875189Y5504916D01*
X4875189Y5104917D01*
X4475190Y5104917D01*
G37*
G36*
X5525195Y6055906D02*
G01*
X5825195Y6055906D01*
X5825195Y5955906D01*
X5525195Y5955906D01*
G37*
G36*
X5525195Y5928906D02*
G01*
X5825195Y5928906D01*
X5825195Y5828906D01*
X5525195Y5828906D01*
G37*
G36*
X5525195Y5801906D02*
G01*
X5825195Y5801906D01*
X5825195Y5701906D01*
X5525195Y5701906D01*
G37*
G36*
X5525195Y5674906D02*
G01*
X5825195Y5674906D01*
X5825195Y5574906D01*
X5525195Y5574906D01*
G37*
G36*
X5525195Y5547906D02*
G01*
X5825195Y5547906D01*
X5825195Y5447906D01*
X5525195Y5447906D01*
G37*
G36*
X5525195Y5420906D02*
G01*
X5825195Y5420906D01*
X5825195Y5320906D01*
X5525195Y5320906D01*
G37*
G36*
X5525195Y5293906D02*
G01*
X5825195Y5293906D01*
X5825195Y5193906D01*
X5525195Y5193906D01*
G37*
G36*
X5525195Y5166906D02*
G01*
X5825195Y5166906D01*
X5825195Y5066906D01*
X5525195Y5066906D01*
G37*
G36*
X5525195Y5039906D02*
G01*
X5825195Y5039906D01*
X5825195Y4939906D01*
X5525195Y4939906D01*
G37*
G36*
X5525195Y4912906D02*
G01*
X5825195Y4912906D01*
X5825195Y4812906D01*
X5525195Y4812906D01*
G37*
G36*
X5525195Y4785906D02*
G01*
X5825195Y4785906D01*
X5825195Y4685906D01*
X5525195Y4685906D01*
G37*
G36*
X5525195Y4658906D02*
G01*
X5825195Y4658906D01*
X5825195Y4558906D01*
X5525195Y4558906D01*
G37*
G36*
X5525195Y4531906D02*
G01*
X5825195Y4531906D01*
X5825195Y4431906D01*
X5525195Y4431906D01*
G37*
G36*
X5525195Y4404906D02*
G01*
X5825195Y4404906D01*
X5825195Y4304906D01*
X5525195Y4304906D01*
G37*
G36*
X3725199Y4404906D02*
G01*
X4025198Y4404906D01*
X4025198Y4304906D01*
X3725199Y4304906D01*
G37*
G36*
X3725199Y4531906D02*
G01*
X4025198Y4531906D01*
X4025198Y4431906D01*
X3725199Y4431906D01*
G37*
G36*
X3725199Y4658906D02*
G01*
X4025198Y4658906D01*
X4025198Y4558906D01*
X3725199Y4558906D01*
G37*
G36*
X3725199Y4785906D02*
G01*
X4025198Y4785906D01*
X4025198Y4685906D01*
X3725199Y4685906D01*
G37*
G36*
X3725199Y4912906D02*
G01*
X4025198Y4912906D01*
X4025198Y4812906D01*
X3725199Y4812906D01*
G37*
G36*
X3725199Y5039906D02*
G01*
X4025198Y5039906D01*
X4025198Y4939906D01*
X3725199Y4939906D01*
G37*
G36*
X3725199Y5166906D02*
G01*
X4025198Y5166906D01*
X4025198Y5066906D01*
X3725199Y5066906D01*
G37*
G36*
X3725199Y5293906D02*
G01*
X4025198Y5293906D01*
X4025198Y5193906D01*
X3725199Y5193906D01*
G37*
G36*
X3725199Y5420906D02*
G01*
X4025198Y5420906D01*
X4025198Y5320906D01*
X3725199Y5320906D01*
G37*
G36*
X3725199Y5547906D02*
G01*
X4025198Y5547906D01*
X4025198Y5447906D01*
X3725199Y5447906D01*
G37*
G36*
X3725199Y5674906D02*
G01*
X4025198Y5674906D01*
X4025198Y5574906D01*
X3725199Y5574906D01*
G37*
G36*
X3725199Y5801906D02*
G01*
X4025198Y5801906D01*
X4025198Y5701906D01*
X3725199Y5701906D01*
G37*
G36*
X3725199Y5928906D02*
G01*
X4025198Y5928906D01*
X4025198Y5828906D01*
X3725199Y5828906D01*
G37*
G36*
X3725199Y6055906D02*
G01*
X4025198Y6055906D01*
X4025198Y5955906D01*
X3725199Y5955906D01*
G37*
G36*
X5296700Y4354893D02*
G01*
X5396699Y4354893D01*
X5396699Y4054894D01*
X5296700Y4054894D01*
G37*
G36*
X5169700Y4354893D02*
G01*
X5269699Y4354893D01*
X5269699Y4054894D01*
X5169700Y4054894D01*
G37*
G36*
X5042700Y4354893D02*
G01*
X5142699Y4354893D01*
X5142699Y4054894D01*
X5042700Y4054894D01*
G37*
G36*
X4915700Y4354893D02*
G01*
X5015699Y4354893D01*
X5015699Y4054894D01*
X4915700Y4054894D01*
G37*
G36*
X4788700Y4354893D02*
G01*
X4888699Y4354893D01*
X4888699Y4054894D01*
X4788700Y4054894D01*
G37*
G36*
X4661700Y4354893D02*
G01*
X4761699Y4354893D01*
X4761699Y4054894D01*
X4661700Y4054894D01*
G37*
G36*
X4534700Y4354893D02*
G01*
X4634699Y4354893D01*
X4634699Y4054894D01*
X4534700Y4054894D01*
G37*
G36*
X4407700Y4354893D02*
G01*
X4507699Y4354893D01*
X4507699Y4054894D01*
X4407700Y4054894D01*
G37*
G36*
X4280700Y4354893D02*
G01*
X4380699Y4354893D01*
X4380699Y4054894D01*
X4280700Y4054894D01*
G37*
G36*
X4153700Y4354893D02*
G01*
X4253699Y4354893D01*
X4253699Y4054894D01*
X4153700Y4054894D01*
G37*
D31*
G01*
X1943100Y6032500D03*
G01*
X1435100Y5905500D03*
G01*
X1943100Y5778500D03*
G01*
X1435100Y5651500D03*
G01*
X1943100Y5524500D03*
G01*
X1435100Y5397500D03*
G01*
X1943100Y5270500D03*
G01*
X1435100Y5143500D03*
G01*
X1943100Y5016500D03*
G01*
X1435100Y4889500D03*
G01*
X1943100Y4762500D03*
G01*
X1435100Y4635500D03*
G01*
X1943100Y4508500D03*
G01*
X1435100Y4381500D03*
D32*
G01*
X1943100Y4254500D03*
D33*
G01*
X2209800Y3302000D03*
G01*
X1955800Y3302000D03*
G01*
X1701800Y3302000D03*
G01*
X1447800Y3302000D03*
G01*
X1193800Y3302000D03*
G36*
X861060Y3380739D02*
G01*
X1018539Y3380739D01*
X1018539Y3223260D01*
X861060Y3223260D01*
G37*
G01*
X2197100Y7124700D03*
G01*
X1943100Y7124700D03*
G01*
X1689100Y7124700D03*
G01*
X1435100Y7124700D03*
G01*
X1181100Y7124700D03*
G36*
X848360Y7203439D02*
G01*
X1005839Y7203439D01*
X1005839Y7045960D01*
X848360Y7045960D01*
G37*
D34*
G01*
X6223000Y4140200D03*
D33*
G01*
X6223000Y4394200D03*
G01*
X6223000Y4648200D03*
G01*
X6223000Y4902200D03*
G01*
X6223000Y5156200D03*
G01*
X6223000Y5410200D03*
G01*
X6223000Y5664200D03*
G01*
X6223000Y5918200D03*
D35*
G01*
X977900Y2857500D03*
D36*
G01*
X977900Y2603500D03*
D33*
G01*
X6718300Y6286500D03*
G01*
X6718300Y6540500D03*
G01*
X6718300Y6794500D03*
G01*
X6718300Y7048500D03*
D34*
G01*
X6718300Y7302500D03*
D37*
G01*
X1955800Y2616200D03*
G01*
X1955800Y2108200D03*
G01*
X3314700Y2616200D03*
G01*
X3314700Y2108200D03*
D34*
G01*
X6235700Y7861300D03*
D33*
G01*
X5981700Y7861300D03*
G01*
X5727700Y7861300D03*
G01*
X5473700Y7861300D03*
D15*
G01*
X3352800Y7797800D03*
D12*
G01*
X5549900Y3263900D03*
D16*
G01*
X5956300Y5880100D03*
G01*
X2362200Y6184900D03*
G01*
X5219700Y4483100D03*
D17*
G01*
X5829300Y4216400D03*
G01*
X5956300Y4279900D03*
G01*
X4114800Y5118100D03*
G01*
X4114800Y4991100D03*
G01*
X3644900Y3835400D03*
G01*
X4127500Y5626100D03*
G01*
X3149600Y5575300D03*
G01*
X3251200Y4864100D03*
G01*
X3251200Y4203700D03*
G01*
X3251200Y4572000D03*
G01*
X3251200Y5207000D03*
D16*
G01*
X4246524Y6396253D03*
G01*
X4754524Y6904253D03*
G01*
X4754524Y6396253D03*
G01*
X4754524Y5888253D03*
G01*
X5262524Y7412253D03*
G01*
X5262524Y6904253D03*
G01*
X5262524Y6396253D03*
G01*
X6278524Y7412253D03*
G01*
X6157722Y6159550D03*
G01*
X1203452Y6406134D03*
G01*
X1203452Y5898134D03*
G01*
X1203452Y5390134D03*
G01*
X1203452Y4882134D03*
G01*
X806983Y7584922D03*
G01*
X806983Y2504922D03*
G01*
X1314983Y8092922D03*
G01*
X1314983Y7584922D03*
G01*
X1314983Y1996922D03*
G01*
X1822983Y8092922D03*
G01*
X1822983Y7584922D03*
G01*
X2330983Y8092922D03*
G01*
X2330983Y7584922D03*
G01*
X2330983Y1996922D03*
G01*
X2838983Y7584922D03*
G01*
X2838983Y7076922D03*
G01*
X2838983Y3012922D03*
G01*
X2838983Y1996922D03*
G01*
X3346983Y3012922D03*
G01*
X3854983Y7584922D03*
G01*
X3854983Y7076922D03*
G01*
X3854983Y6568922D03*
G01*
X3854983Y3012922D03*
G01*
X3854983Y1996922D03*
G01*
X4362983Y4536922D03*
G01*
X4362983Y3012922D03*
G01*
X4362983Y1996922D03*
G01*
X4870983Y4536922D03*
G01*
X4870983Y2504922D03*
G01*
X4870983Y1996922D03*
G01*
X5378983Y5552922D03*
G01*
X5378983Y5044922D03*
G01*
X5886983Y4028922D03*
G01*
X6394983Y8092922D03*
G01*
X6902983Y6060922D03*
G01*
X6902983Y5552922D03*
G01*
X6902983Y3520922D03*
G01*
X4246524Y6396253D03*
G01*
X4754524Y6904253D03*
G01*
X4754524Y6396253D03*
G01*
X4754524Y5888253D03*
G01*
X5262524Y7412253D03*
G01*
X5262524Y6904253D03*
G01*
X5262524Y6396253D03*
G01*
X6278524Y7412253D03*
G01*
X6157722Y6159550D03*
G01*
X1203452Y6406134D03*
G01*
X1203452Y5898134D03*
G01*
X1203452Y5390134D03*
G01*
X1203452Y4882134D03*
G01*
X806983Y7584922D03*
G01*
X806983Y2504922D03*
G01*
X1314983Y8092922D03*
G01*
X1314983Y7584922D03*
G01*
X1314983Y1996922D03*
G01*
X1822983Y8092922D03*
G01*
X1822983Y7584922D03*
G01*
X2330983Y8092922D03*
G01*
X2330983Y7584922D03*
G01*
X2330983Y1996922D03*
G01*
X2838983Y7584922D03*
G01*
X2838983Y7076922D03*
G01*
X2838983Y3012922D03*
G01*
X2838983Y1996922D03*
G01*
X3346983Y3012922D03*
G01*
X3854983Y7584922D03*
G01*
X3854983Y7076922D03*
G01*
X3854983Y6568922D03*
G01*
X3854983Y3012922D03*
G01*
X3854983Y1996922D03*
G01*
X4362983Y4536922D03*
G01*
X4362983Y3012922D03*
G01*
X4362983Y1996922D03*
G01*
X4870983Y4536922D03*
G01*
X4870983Y2504922D03*
G01*
X4870983Y1996922D03*
G01*
X5378983Y5552922D03*
G01*
X5378983Y5044922D03*
G01*
X5886983Y4028922D03*
G01*
X6394983Y8092922D03*
G01*
X6902983Y6060922D03*
G01*
X6902983Y5552922D03*
G01*
X6902983Y3520922D03*
D38*
X7002906Y4635500D02*
G01*
X6890893Y4635500D01*
X7002906Y4889500D02*
G01*
X6890893Y4889500D01*
X7002906Y5143500D02*
G01*
X6890893Y5143500D01*
X7002906Y5397500D02*
G01*
X6890893Y5397500D01*
M02*
