G04 Layer: TopSilkLayer*
G04 EasyEDA v6.4.19.3, 2021-04-15T18:17:59+02:00*
G04 27ca5f04d03341a3abaed076034c1fd4,b26f2b340a5143eda07d108a38fc4859,10*
G04 Gerber Generator version 0.2*
G04 Scale: 100 percent, Rotated: No, Reflected: No *
G04 Dimensions in millimeters *
G04 leading zeros omitted , absolute positions ,4 integer and 5 decimal *
%FSLAX45Y45*%
%MOMM*%

%ADD10C,0.2540*%
%ADD13C,0.4000*%
%ADD39C,0.1500*%
%ADD40C,0.2032*%
%ADD41C,0.2030*%
%ADD42C,0.2000*%
%ADD43C,0.3988*%
%ADD44C,0.1524*%

%LPD*%
D44*
X3314700Y7392415D02*
G01*
X3314700Y7283450D01*
X3314700Y7392415D02*
G01*
X3382263Y7392415D01*
X3314700Y7340600D02*
G01*
X3356356Y7340600D01*
X3416554Y7392415D02*
G01*
X3416554Y7283450D01*
X3416554Y7283450D02*
G01*
X3478784Y7283450D01*
X3554729Y7392415D02*
G01*
X3513074Y7283450D01*
X3554729Y7392415D02*
G01*
X3596386Y7283450D01*
X3528822Y7319771D02*
G01*
X3580638Y7319771D01*
X3703320Y7376921D02*
G01*
X3692906Y7387336D01*
X3677411Y7392415D01*
X3656584Y7392415D01*
X3641090Y7387336D01*
X3630675Y7376921D01*
X3630675Y7366508D01*
X3635756Y7356094D01*
X3641090Y7350760D01*
X3651250Y7345679D01*
X3682491Y7335265D01*
X3692906Y7330186D01*
X3698240Y7324852D01*
X3703320Y7314437D01*
X3703320Y7298944D01*
X3692906Y7288529D01*
X3677411Y7283450D01*
X3656584Y7283450D01*
X3641090Y7288529D01*
X3630675Y7298944D01*
X3737609Y7392415D02*
G01*
X3737609Y7283450D01*
X3810254Y7392415D02*
G01*
X3810254Y7283450D01*
X3737609Y7340600D02*
G01*
X3810254Y7340600D01*
X3844543Y7246873D02*
G01*
X3938270Y7246873D01*
X3972559Y7392415D02*
G01*
X3972559Y7283450D01*
X3972559Y7392415D02*
G01*
X4013961Y7283450D01*
X4055618Y7392415D02*
G01*
X4013961Y7283450D01*
X4055618Y7392415D02*
G01*
X4055618Y7283450D01*
X4121150Y7392415D02*
G01*
X4110736Y7387336D01*
X4100322Y7376921D01*
X4094988Y7366508D01*
X4089908Y7350760D01*
X4089908Y7324852D01*
X4094988Y7309358D01*
X4100322Y7298944D01*
X4110736Y7288529D01*
X4121150Y7283450D01*
X4141724Y7283450D01*
X4152138Y7288529D01*
X4162552Y7298944D01*
X4167886Y7309358D01*
X4172965Y7324852D01*
X4172965Y7350760D01*
X4167886Y7366508D01*
X4162552Y7376921D01*
X4152138Y7387336D01*
X4141724Y7392415D01*
X4121150Y7392415D01*
X4207256Y7392415D02*
G01*
X4207256Y7283450D01*
X4207256Y7392415D02*
G01*
X4243577Y7392415D01*
X4259325Y7387336D01*
X4269740Y7376921D01*
X4274820Y7366508D01*
X4279900Y7350760D01*
X4279900Y7324852D01*
X4274820Y7309358D01*
X4269740Y7298944D01*
X4259325Y7288529D01*
X4243577Y7283450D01*
X4207256Y7283450D01*
X4314190Y7392415D02*
G01*
X4314190Y7283450D01*
X4314190Y7392415D02*
G01*
X4381754Y7392415D01*
X4314190Y7340600D02*
G01*
X4355845Y7340600D01*
X4314190Y7283450D02*
G01*
X4381754Y7283450D01*
X2336812Y7417803D02*
G01*
X2336812Y7308837D01*
X2336812Y7417803D02*
G01*
X2383548Y7417803D01*
X2399042Y7412723D01*
X2404376Y7407389D01*
X2409456Y7396975D01*
X2409456Y7386561D01*
X2404376Y7376147D01*
X2399042Y7371067D01*
X2383548Y7365987D01*
X2336812Y7365987D01*
X2373134Y7365987D02*
G01*
X2409456Y7308837D01*
X2443746Y7417803D02*
G01*
X2443746Y7308837D01*
X2443746Y7417803D02*
G01*
X2511310Y7417803D01*
X2443746Y7365987D02*
G01*
X2485402Y7365987D01*
X2443746Y7308837D02*
G01*
X2511310Y7308837D01*
X2618498Y7402309D02*
G01*
X2608084Y7412723D01*
X2592336Y7417803D01*
X2571762Y7417803D01*
X2556014Y7412723D01*
X2545600Y7402309D01*
X2545600Y7391895D01*
X2550934Y7381481D01*
X2556014Y7376147D01*
X2566428Y7371067D01*
X2597670Y7360653D01*
X2608084Y7355573D01*
X2613164Y7350239D01*
X2618498Y7339825D01*
X2618498Y7324331D01*
X2608084Y7313917D01*
X2592336Y7308837D01*
X2571762Y7308837D01*
X2556014Y7313917D01*
X2545600Y7324331D01*
X2652788Y7417803D02*
G01*
X2652788Y7308837D01*
X2652788Y7417803D02*
G01*
X2720352Y7417803D01*
X2652788Y7365987D02*
G01*
X2694190Y7365987D01*
X2652788Y7308837D02*
G01*
X2720352Y7308837D01*
X2790964Y7417803D02*
G01*
X2790964Y7308837D01*
X2754642Y7417803D02*
G01*
X2827286Y7417803D01*
X3162300Y4763515D02*
G01*
X3162300Y4654550D01*
X3162300Y4654550D02*
G01*
X3224529Y4654550D01*
X3258820Y4763515D02*
G01*
X3258820Y4654550D01*
X3258820Y4763515D02*
G01*
X3326384Y4763515D01*
X3258820Y4711700D02*
G01*
X3300475Y4711700D01*
X3258820Y4654550D02*
G01*
X3326384Y4654550D01*
X3360674Y4763515D02*
G01*
X3360674Y4654550D01*
X3360674Y4763515D02*
G01*
X3397250Y4763515D01*
X3412743Y4758436D01*
X3423158Y4748021D01*
X3428238Y4737607D01*
X3433572Y4721860D01*
X3433572Y4695952D01*
X3428238Y4680457D01*
X3423158Y4670044D01*
X3412743Y4659629D01*
X3397250Y4654550D01*
X3360674Y4654550D01*
X3530091Y4748021D02*
G01*
X3525011Y4758436D01*
X3509263Y4763515D01*
X3498850Y4763515D01*
X3483356Y4758436D01*
X3472941Y4742687D01*
X3467861Y4716779D01*
X3467861Y4690871D01*
X3472941Y4670044D01*
X3483356Y4659629D01*
X3498850Y4654550D01*
X3504184Y4654550D01*
X3519677Y4659629D01*
X3530091Y4670044D01*
X3535425Y4685537D01*
X3535425Y4690871D01*
X3530091Y4706365D01*
X3519677Y4716779D01*
X3504184Y4721860D01*
X3498850Y4721860D01*
X3483356Y4716779D01*
X3472941Y4706365D01*
X3467861Y4690871D01*
X3149600Y5703315D02*
G01*
X3149600Y5594350D01*
X3149600Y5594350D02*
G01*
X3211829Y5594350D01*
X3246120Y5703315D02*
G01*
X3246120Y5594350D01*
X3246120Y5703315D02*
G01*
X3313684Y5703315D01*
X3246120Y5651500D02*
G01*
X3287775Y5651500D01*
X3246120Y5594350D02*
G01*
X3313684Y5594350D01*
X3347974Y5703315D02*
G01*
X3347974Y5594350D01*
X3347974Y5703315D02*
G01*
X3384550Y5703315D01*
X3400043Y5698236D01*
X3410458Y5687821D01*
X3415538Y5677407D01*
X3420872Y5661660D01*
X3420872Y5635752D01*
X3415538Y5620257D01*
X3410458Y5609844D01*
X3400043Y5599429D01*
X3384550Y5594350D01*
X3347974Y5594350D01*
X3527806Y5703315D02*
G01*
X3475990Y5594350D01*
X3455161Y5703315D02*
G01*
X3527806Y5703315D01*
X837184Y5130800D02*
G01*
X946150Y5130800D01*
X946150Y5130800D02*
G01*
X946150Y5193029D01*
X863092Y5232654D02*
G01*
X858012Y5232654D01*
X847597Y5237734D01*
X842263Y5243068D01*
X837184Y5253481D01*
X837184Y5274310D01*
X842263Y5284470D01*
X847597Y5289804D01*
X858012Y5294884D01*
X868426Y5294884D01*
X878839Y5289804D01*
X894334Y5279389D01*
X946150Y5227320D01*
X946150Y5300218D01*
X873505Y5402071D02*
G01*
X889000Y5396737D01*
X899413Y5386323D01*
X904747Y5370829D01*
X904747Y5365750D01*
X899413Y5350002D01*
X889000Y5339587D01*
X873505Y5334507D01*
X868426Y5334507D01*
X852678Y5339587D01*
X842263Y5350002D01*
X837184Y5365750D01*
X837184Y5370829D01*
X842263Y5386323D01*
X852678Y5396737D01*
X873505Y5402071D01*
X899413Y5402071D01*
X925576Y5396737D01*
X941070Y5386323D01*
X946150Y5370829D01*
X946150Y5360415D01*
X941070Y5344921D01*
X930655Y5339587D01*
X837184Y5462270D02*
G01*
X842263Y5446776D01*
X852678Y5441442D01*
X863092Y5441442D01*
X873505Y5446776D01*
X878839Y5457189D01*
X883920Y5477763D01*
X889000Y5493512D01*
X899413Y5503926D01*
X909828Y5509005D01*
X925576Y5509005D01*
X935989Y5503926D01*
X941070Y5498592D01*
X946150Y5483097D01*
X946150Y5462270D01*
X941070Y5446776D01*
X935989Y5441442D01*
X925576Y5436362D01*
X909828Y5436362D01*
X899413Y5441442D01*
X889000Y5451855D01*
X883920Y5467350D01*
X878839Y5488178D01*
X873505Y5498592D01*
X863092Y5503926D01*
X852678Y5503926D01*
X842263Y5498592D01*
X837184Y5483097D01*
X837184Y5462270D01*
X837184Y5543295D02*
G01*
X946150Y5543295D01*
X837184Y5543295D02*
G01*
X946150Y5615939D01*
X837184Y5615939D02*
G01*
X946150Y5615939D01*
X2247900Y3087115D02*
G01*
X2247900Y2978150D01*
X2247900Y3087115D02*
G01*
X2289556Y2978150D01*
X2330958Y3087115D02*
G01*
X2289556Y2978150D01*
X2330958Y3087115D02*
G01*
X2330958Y2978150D01*
X2396490Y3087115D02*
G01*
X2386075Y3082036D01*
X2375661Y3071621D01*
X2370581Y3061207D01*
X2365247Y3045460D01*
X2365247Y3019552D01*
X2370581Y3004057D01*
X2375661Y2993644D01*
X2386075Y2983229D01*
X2396490Y2978150D01*
X2417318Y2978150D01*
X2427731Y2983229D01*
X2438145Y2993644D01*
X2443225Y3004057D01*
X2448559Y3019552D01*
X2448559Y3045460D01*
X2443225Y3061207D01*
X2438145Y3071621D01*
X2427731Y3082036D01*
X2417318Y3087115D01*
X2396490Y3087115D01*
X2519172Y3087115D02*
G01*
X2519172Y2978150D01*
X2482850Y3087115D02*
G01*
X2555493Y3087115D01*
X2621025Y3087115D02*
G01*
X2610611Y3082036D01*
X2600197Y3071621D01*
X2594863Y3061207D01*
X2589784Y3045460D01*
X2589784Y3019552D01*
X2594863Y3004057D01*
X2600197Y2993644D01*
X2610611Y2983229D01*
X2621025Y2978150D01*
X2641600Y2978150D01*
X2652013Y2983229D01*
X2662427Y2993644D01*
X2667761Y3004057D01*
X2672841Y3019552D01*
X2672841Y3045460D01*
X2667761Y3061207D01*
X2662427Y3071621D01*
X2652013Y3082036D01*
X2641600Y3087115D01*
X2621025Y3087115D01*
X2707131Y3087115D02*
G01*
X2707131Y2978150D01*
X2707131Y3087115D02*
G01*
X2753868Y3087115D01*
X2769615Y3082036D01*
X2774695Y3076702D01*
X2780029Y3066287D01*
X2780029Y3055873D01*
X2774695Y3045460D01*
X2769615Y3040379D01*
X2753868Y3035300D01*
X2707131Y3035300D01*
X2743454Y3035300D02*
G01*
X2780029Y2978150D01*
X2814320Y3066287D02*
G01*
X2824479Y3071621D01*
X2840227Y3087115D01*
X2840227Y2978150D01*
X2413000Y7176515D02*
G01*
X2413000Y7067550D01*
X2413000Y7176515D02*
G01*
X2454656Y7067550D01*
X2496058Y7176515D02*
G01*
X2454656Y7067550D01*
X2496058Y7176515D02*
G01*
X2496058Y7067550D01*
X2561590Y7176515D02*
G01*
X2551175Y7171436D01*
X2540761Y7161021D01*
X2535681Y7150608D01*
X2530347Y7134860D01*
X2530347Y7108952D01*
X2535681Y7093458D01*
X2540761Y7083044D01*
X2551175Y7072629D01*
X2561590Y7067550D01*
X2582418Y7067550D01*
X2592831Y7072629D01*
X2603245Y7083044D01*
X2608325Y7093458D01*
X2613659Y7108952D01*
X2613659Y7134860D01*
X2608325Y7150608D01*
X2603245Y7161021D01*
X2592831Y7171436D01*
X2582418Y7176515D01*
X2561590Y7176515D01*
X2684272Y7176515D02*
G01*
X2684272Y7067550D01*
X2647950Y7176515D02*
G01*
X2720593Y7176515D01*
X2786125Y7176515D02*
G01*
X2775711Y7171436D01*
X2765297Y7161021D01*
X2759963Y7150608D01*
X2754884Y7134860D01*
X2754884Y7108952D01*
X2759963Y7093458D01*
X2765297Y7083044D01*
X2775711Y7072629D01*
X2786125Y7067550D01*
X2806700Y7067550D01*
X2817113Y7072629D01*
X2827527Y7083044D01*
X2832861Y7093458D01*
X2837941Y7108952D01*
X2837941Y7134860D01*
X2832861Y7150608D01*
X2827527Y7161021D01*
X2817113Y7171436D01*
X2806700Y7176515D01*
X2786125Y7176515D01*
X2872231Y7176515D02*
G01*
X2872231Y7067550D01*
X2872231Y7176515D02*
G01*
X2918968Y7176515D01*
X2934715Y7171436D01*
X2939795Y7166102D01*
X2945129Y7155687D01*
X2945129Y7145273D01*
X2939795Y7134860D01*
X2934715Y7129779D01*
X2918968Y7124700D01*
X2872231Y7124700D01*
X2908554Y7124700D02*
G01*
X2945129Y7067550D01*
X2984500Y7150608D02*
G01*
X2984500Y7155687D01*
X2989579Y7166102D01*
X2994913Y7171436D01*
X3005327Y7176515D01*
X3026156Y7176515D01*
X3036570Y7171436D01*
X3041650Y7166102D01*
X3046729Y7155687D01*
X3046729Y7145273D01*
X3041650Y7134860D01*
X3031236Y7119365D01*
X2979420Y7067550D01*
X3052063Y7067550D01*
X6197091Y6186678D02*
G01*
X6186677Y6181344D01*
X6176263Y6170929D01*
X6171184Y6160770D01*
X6171184Y6139942D01*
X6176263Y6129528D01*
X6186677Y6119113D01*
X6197091Y6113779D01*
X6212840Y6108700D01*
X6238747Y6108700D01*
X6254241Y6113779D01*
X6264656Y6119113D01*
X6275070Y6129528D01*
X6280150Y6139942D01*
X6280150Y6160770D01*
X6275070Y6170929D01*
X6264656Y6181344D01*
X6254241Y6186678D01*
X6171184Y6262370D02*
G01*
X6280150Y6220968D01*
X6171184Y6262370D02*
G01*
X6280150Y6304026D01*
X6243827Y6236462D02*
G01*
X6243827Y6288531D01*
X6171184Y6338315D02*
G01*
X6280150Y6338315D01*
X6171184Y6338315D02*
G01*
X6280150Y6379971D01*
X6171184Y6421373D02*
G01*
X6280150Y6379971D01*
X6171184Y6421373D02*
G01*
X6280150Y6421373D01*
X6171184Y6455663D02*
G01*
X6280150Y6455663D01*
X6171184Y6455663D02*
G01*
X6171184Y6523228D01*
X6223000Y6455663D02*
G01*
X6223000Y6497320D01*
X6280150Y6455663D02*
G01*
X6280150Y6523228D01*
X6171184Y6557518D02*
G01*
X6280150Y6557518D01*
X6171184Y6557518D02*
G01*
X6171184Y6604254D01*
X6176263Y6620002D01*
X6181597Y6625081D01*
X6192011Y6630415D01*
X6202425Y6630415D01*
X6212840Y6625081D01*
X6217920Y6620002D01*
X6223000Y6604254D01*
X6223000Y6557518D01*
X6223000Y6593839D02*
G01*
X6280150Y6630415D01*
X6171184Y6706108D02*
G01*
X6280150Y6664705D01*
X6171184Y6706108D02*
G01*
X6280150Y6747763D01*
X6243827Y6680200D02*
G01*
X6243827Y6732270D01*
X5843777Y3200907D02*
G01*
X5838443Y3211321D01*
X5828029Y3221736D01*
X5817870Y3226815D01*
X5797041Y3226815D01*
X5786627Y3221736D01*
X5776213Y3211321D01*
X5770879Y3200907D01*
X5765800Y3185160D01*
X5765800Y3159252D01*
X5770879Y3143757D01*
X5776213Y3133344D01*
X5786627Y3122929D01*
X5797041Y3117850D01*
X5817870Y3117850D01*
X5828029Y3122929D01*
X5838443Y3133344D01*
X5843777Y3143757D01*
X5940297Y3226815D02*
G01*
X5888481Y3226815D01*
X5883147Y3180079D01*
X5888481Y3185160D01*
X5903975Y3190494D01*
X5919470Y3190494D01*
X5935218Y3185160D01*
X5945631Y3175000D01*
X5950711Y3159252D01*
X5950711Y3148837D01*
X5945631Y3133344D01*
X5935218Y3122929D01*
X5919470Y3117850D01*
X5903975Y3117850D01*
X5888481Y3122929D01*
X5883147Y3128010D01*
X5878068Y3138423D01*
X1283715Y2971800D02*
G01*
X1174750Y2971800D01*
X1283715Y2971800D02*
G01*
X1283715Y2925063D01*
X1278636Y2909570D01*
X1273302Y2904236D01*
X1262887Y2899155D01*
X1247394Y2899155D01*
X1236979Y2904236D01*
X1231900Y2909570D01*
X1226565Y2925063D01*
X1226565Y2971800D01*
X1283715Y2833623D02*
G01*
X1278636Y2844037D01*
X1268221Y2854452D01*
X1257807Y2859531D01*
X1242060Y2864865D01*
X1216152Y2864865D01*
X1200657Y2859531D01*
X1190244Y2854452D01*
X1179829Y2844037D01*
X1174750Y2833623D01*
X1174750Y2812795D01*
X1179829Y2802381D01*
X1190244Y2791968D01*
X1200657Y2786887D01*
X1216152Y2781554D01*
X1242060Y2781554D01*
X1257807Y2786887D01*
X1268221Y2791968D01*
X1278636Y2802381D01*
X1283715Y2812795D01*
X1283715Y2833623D01*
X1283715Y2747263D02*
G01*
X1174750Y2721355D01*
X1283715Y2695447D02*
G01*
X1174750Y2721355D01*
X1283715Y2695447D02*
G01*
X1174750Y2669539D01*
X1283715Y2643378D02*
G01*
X1174750Y2669539D01*
X1283715Y2609087D02*
G01*
X1174750Y2609087D01*
X1283715Y2609087D02*
G01*
X1283715Y2541523D01*
X1231900Y2609087D02*
G01*
X1231900Y2567686D01*
X1174750Y2609087D02*
G01*
X1174750Y2541523D01*
X1283715Y2507234D02*
G01*
X1174750Y2507234D01*
X1283715Y2507234D02*
G01*
X1283715Y2460497D01*
X1278636Y2445004D01*
X1273302Y2439670D01*
X1262887Y2434589D01*
X1252473Y2434589D01*
X1242060Y2439670D01*
X1236979Y2445004D01*
X1231900Y2460497D01*
X1231900Y2507234D01*
X1231900Y2470912D02*
G01*
X1174750Y2434589D01*
X6958584Y6604000D02*
G01*
X7036561Y6604000D01*
X7052056Y6609079D01*
X7062470Y6619494D01*
X7067550Y6635242D01*
X7067550Y6645655D01*
X7062470Y6661150D01*
X7052056Y6671563D01*
X7036561Y6676644D01*
X6958584Y6676644D01*
X6958584Y6752589D02*
G01*
X7067550Y6710934D01*
X6958584Y6752589D02*
G01*
X7067550Y6794245D01*
X7031227Y6726681D02*
G01*
X7031227Y6778497D01*
X6958584Y6828536D02*
G01*
X7067550Y6828536D01*
X6958584Y6828536D02*
G01*
X6958584Y6875271D01*
X6963663Y6890765D01*
X6968997Y6896100D01*
X6979411Y6901179D01*
X6989825Y6901179D01*
X7000240Y6896100D01*
X7005320Y6890765D01*
X7010400Y6875271D01*
X7010400Y6828536D01*
X7010400Y6864858D02*
G01*
X7067550Y6901179D01*
X6958584Y6971792D02*
G01*
X7067550Y6971792D01*
X6958584Y6935470D02*
G01*
X6958584Y7008113D01*
X2362708Y2309621D02*
G01*
X2373122Y2314955D01*
X2383536Y2325370D01*
X2388615Y2335529D01*
X2388615Y2356357D01*
X2383536Y2366771D01*
X2373122Y2377186D01*
X2362708Y2382520D01*
X2346959Y2387600D01*
X2321052Y2387600D01*
X2305558Y2382520D01*
X2295143Y2377186D01*
X2284729Y2366771D01*
X2279650Y2356357D01*
X2279650Y2335529D01*
X2284729Y2325370D01*
X2295143Y2314955D01*
X2305558Y2309621D01*
X2367788Y2275331D02*
G01*
X2373122Y2264918D01*
X2388615Y2249423D01*
X2279650Y2249423D01*
X3670808Y2335021D02*
G01*
X3681222Y2340355D01*
X3691636Y2350770D01*
X3696715Y2360929D01*
X3696715Y2381757D01*
X3691636Y2392171D01*
X3681222Y2402586D01*
X3670808Y2407920D01*
X3655059Y2413000D01*
X3629152Y2413000D01*
X3613658Y2407920D01*
X3603243Y2402586D01*
X3592829Y2392171D01*
X3587750Y2381757D01*
X3587750Y2360929D01*
X3592829Y2350770D01*
X3603243Y2340355D01*
X3613658Y2335021D01*
X3670808Y2295652D02*
G01*
X3675888Y2295652D01*
X3686302Y2290318D01*
X3691636Y2285237D01*
X3696715Y2274823D01*
X3696715Y2253995D01*
X3691636Y2243581D01*
X3686302Y2238502D01*
X3675888Y2233168D01*
X3665474Y2233168D01*
X3655059Y2238502D01*
X3639565Y2248915D01*
X3587750Y2300731D01*
X3587750Y2228087D01*
X3175000Y4446015D02*
G01*
X3175000Y4337050D01*
X3175000Y4337050D02*
G01*
X3237229Y4337050D01*
X3271520Y4446015D02*
G01*
X3271520Y4337050D01*
X3271520Y4446015D02*
G01*
X3339084Y4446015D01*
X3271520Y4394200D02*
G01*
X3313175Y4394200D01*
X3271520Y4337050D02*
G01*
X3339084Y4337050D01*
X3373374Y4446015D02*
G01*
X3373374Y4337050D01*
X3373374Y4446015D02*
G01*
X3409950Y4446015D01*
X3425443Y4440936D01*
X3435858Y4430521D01*
X3440938Y4420107D01*
X3446272Y4404360D01*
X3446272Y4378452D01*
X3440938Y4362957D01*
X3435858Y4352544D01*
X3425443Y4342129D01*
X3409950Y4337050D01*
X3373374Y4337050D01*
X3485641Y4420107D02*
G01*
X3485641Y4425187D01*
X3490975Y4435602D01*
X3496056Y4440936D01*
X3506470Y4446015D01*
X3527297Y4446015D01*
X3537711Y4440936D01*
X3542791Y4435602D01*
X3548125Y4425187D01*
X3548125Y4414773D01*
X3542791Y4404360D01*
X3532377Y4388865D01*
X3480561Y4337050D01*
X3553206Y4337050D01*
X3162300Y5055615D02*
G01*
X3162300Y4946650D01*
X3162300Y4946650D02*
G01*
X3224529Y4946650D01*
X3258820Y5055615D02*
G01*
X3258820Y4946650D01*
X3258820Y5055615D02*
G01*
X3326384Y5055615D01*
X3258820Y5003800D02*
G01*
X3300475Y5003800D01*
X3258820Y4946650D02*
G01*
X3326384Y4946650D01*
X3360674Y5055615D02*
G01*
X3360674Y4946650D01*
X3360674Y5055615D02*
G01*
X3397250Y5055615D01*
X3412743Y5050536D01*
X3423158Y5040121D01*
X3428238Y5029707D01*
X3433572Y5013960D01*
X3433572Y4988052D01*
X3428238Y4972557D01*
X3423158Y4962144D01*
X3412743Y4951729D01*
X3397250Y4946650D01*
X3360674Y4946650D01*
X3478275Y5055615D02*
G01*
X3535425Y5055615D01*
X3504184Y5013960D01*
X3519677Y5013960D01*
X3530091Y5008879D01*
X3535425Y5003800D01*
X3540506Y4988052D01*
X3540506Y4977637D01*
X3535425Y4962144D01*
X3525011Y4951729D01*
X3509263Y4946650D01*
X3493770Y4946650D01*
X3478275Y4951729D01*
X3472941Y4956810D01*
X3467861Y4967223D01*
X3162300Y5373115D02*
G01*
X3162300Y5264150D01*
X3162300Y5264150D02*
G01*
X3224529Y5264150D01*
X3258820Y5373115D02*
G01*
X3258820Y5264150D01*
X3258820Y5373115D02*
G01*
X3326384Y5373115D01*
X3258820Y5321300D02*
G01*
X3300475Y5321300D01*
X3258820Y5264150D02*
G01*
X3326384Y5264150D01*
X3360674Y5373115D02*
G01*
X3360674Y5264150D01*
X3360674Y5373115D02*
G01*
X3397250Y5373115D01*
X3412743Y5368036D01*
X3423158Y5357621D01*
X3428238Y5347207D01*
X3433572Y5331460D01*
X3433572Y5305552D01*
X3428238Y5290057D01*
X3423158Y5279644D01*
X3412743Y5269229D01*
X3397250Y5264150D01*
X3360674Y5264150D01*
X3519677Y5373115D02*
G01*
X3467861Y5300471D01*
X3545840Y5300471D01*
X3519677Y5373115D02*
G01*
X3519677Y5264150D01*
X3162292Y6033508D02*
G01*
X3162292Y5924542D01*
X3162292Y5924542D02*
G01*
X3224522Y5924542D01*
X3258812Y6033508D02*
G01*
X3258812Y5924542D01*
X3258812Y6033508D02*
G01*
X3326376Y6033508D01*
X3258812Y5981692D02*
G01*
X3300468Y5981692D01*
X3258812Y5924542D02*
G01*
X3326376Y5924542D01*
X3360666Y6033508D02*
G01*
X3360666Y5924542D01*
X3360666Y6033508D02*
G01*
X3397242Y6033508D01*
X3412736Y6028428D01*
X3423150Y6018014D01*
X3428230Y6007600D01*
X3433564Y5991852D01*
X3433564Y5965944D01*
X3428230Y5950450D01*
X3423150Y5940036D01*
X3412736Y5929622D01*
X3397242Y5924542D01*
X3360666Y5924542D01*
X3530084Y6033508D02*
G01*
X3478268Y6033508D01*
X3472934Y5986772D01*
X3478268Y5991852D01*
X3493762Y5997186D01*
X3509256Y5997186D01*
X3525004Y5991852D01*
X3535418Y5981692D01*
X3540498Y5965944D01*
X3540498Y5955530D01*
X3535418Y5940036D01*
X3525004Y5929622D01*
X3509256Y5924542D01*
X3493762Y5924542D01*
X3478268Y5929622D01*
X3472934Y5934702D01*
X3467854Y5945116D01*
X762000Y3734815D02*
G01*
X762000Y3625850D01*
X762000Y3734815D02*
G01*
X798321Y3734815D01*
X814070Y3729736D01*
X824229Y3719321D01*
X829563Y3708907D01*
X834644Y3693160D01*
X834644Y3667252D01*
X829563Y3651757D01*
X824229Y3641344D01*
X814070Y3630929D01*
X798321Y3625850D01*
X762000Y3625850D01*
X868934Y3713987D02*
G01*
X879347Y3719321D01*
X895095Y3734815D01*
X895095Y3625850D01*
X762000Y4014215D02*
G01*
X762000Y3905250D01*
X762000Y4014215D02*
G01*
X798321Y4014215D01*
X814070Y4009136D01*
X824229Y3998721D01*
X829563Y3988307D01*
X834644Y3972560D01*
X834644Y3946652D01*
X829563Y3931157D01*
X824229Y3920744D01*
X814070Y3910329D01*
X798321Y3905250D01*
X762000Y3905250D01*
X874268Y3988307D02*
G01*
X874268Y3993387D01*
X879347Y4003802D01*
X884681Y4009136D01*
X895095Y4014215D01*
X915670Y4014215D01*
X926084Y4009136D01*
X931418Y4003802D01*
X936497Y3993387D01*
X936497Y3982973D01*
X931418Y3972560D01*
X921004Y3957065D01*
X868934Y3905250D01*
X941831Y3905250D01*
X2019300Y4001515D02*
G01*
X2019300Y3892550D01*
X2019300Y4001515D02*
G01*
X2055622Y4001515D01*
X2071370Y3996436D01*
X2081529Y3986021D01*
X2086863Y3975607D01*
X2091943Y3959860D01*
X2091943Y3933952D01*
X2086863Y3918457D01*
X2081529Y3908044D01*
X2071370Y3897629D01*
X2055622Y3892550D01*
X2019300Y3892550D01*
X2136647Y4001515D02*
G01*
X2193797Y4001515D01*
X2162809Y3959860D01*
X2178304Y3959860D01*
X2188718Y3954779D01*
X2193797Y3949700D01*
X2199131Y3933952D01*
X2199131Y3923537D01*
X2193797Y3908044D01*
X2183384Y3897629D01*
X2167890Y3892550D01*
X2152395Y3892550D01*
X2136647Y3897629D01*
X2131568Y3902710D01*
X2126234Y3913123D01*
X2032000Y3722115D02*
G01*
X2032000Y3613150D01*
X2032000Y3722115D02*
G01*
X2068322Y3722115D01*
X2084070Y3717036D01*
X2094229Y3706621D01*
X2099563Y3696207D01*
X2104643Y3680460D01*
X2104643Y3654552D01*
X2099563Y3639057D01*
X2094229Y3628644D01*
X2084070Y3618229D01*
X2068322Y3613150D01*
X2032000Y3613150D01*
X2191004Y3722115D02*
G01*
X2138934Y3649471D01*
X2216911Y3649471D01*
X2191004Y3722115D02*
G01*
X2191004Y3613150D01*
X1993900Y6732015D02*
G01*
X1993900Y6623050D01*
X1993900Y6732015D02*
G01*
X2030222Y6732015D01*
X2045970Y6726936D01*
X2056129Y6716521D01*
X2061463Y6706108D01*
X2066543Y6690360D01*
X2066543Y6664452D01*
X2061463Y6648958D01*
X2056129Y6638544D01*
X2045970Y6628129D01*
X2030222Y6623050D01*
X1993900Y6623050D01*
X2163318Y6732015D02*
G01*
X2111247Y6732015D01*
X2106168Y6685279D01*
X2111247Y6690360D01*
X2126995Y6695694D01*
X2142490Y6695694D01*
X2157984Y6690360D01*
X2168397Y6680200D01*
X2173731Y6664452D01*
X2173731Y6654037D01*
X2168397Y6638544D01*
X2157984Y6628129D01*
X2142490Y6623050D01*
X2126995Y6623050D01*
X2111247Y6628129D01*
X2106168Y6633210D01*
X2100834Y6643623D01*
X2006600Y6452615D02*
G01*
X2006600Y6343650D01*
X2006600Y6452615D02*
G01*
X2042922Y6452615D01*
X2058670Y6447536D01*
X2068829Y6437121D01*
X2074163Y6426707D01*
X2079243Y6410960D01*
X2079243Y6385052D01*
X2074163Y6369557D01*
X2068829Y6359144D01*
X2058670Y6348729D01*
X2042922Y6343650D01*
X2006600Y6343650D01*
X2176018Y6437121D02*
G01*
X2170684Y6447536D01*
X2155190Y6452615D01*
X2144775Y6452615D01*
X2129281Y6447536D01*
X2118868Y6431787D01*
X2113534Y6405879D01*
X2113534Y6379971D01*
X2118868Y6359144D01*
X2129281Y6348729D01*
X2144775Y6343650D01*
X2150109Y6343650D01*
X2165604Y6348729D01*
X2176018Y6359144D01*
X2181097Y6374637D01*
X2181097Y6379971D01*
X2176018Y6395465D01*
X2165604Y6405879D01*
X2150109Y6410960D01*
X2144775Y6410960D01*
X2129281Y6405879D01*
X2118868Y6395465D01*
X2113534Y6379971D01*
X736600Y6732015D02*
G01*
X736600Y6623050D01*
X736600Y6732015D02*
G01*
X772921Y6732015D01*
X788670Y6726936D01*
X798829Y6716521D01*
X804163Y6706108D01*
X809244Y6690360D01*
X809244Y6664452D01*
X804163Y6648958D01*
X798829Y6638544D01*
X788670Y6628129D01*
X772921Y6623050D01*
X736600Y6623050D01*
X916431Y6732015D02*
G01*
X864362Y6623050D01*
X843534Y6732015D02*
G01*
X916431Y6732015D01*
X736600Y6465315D02*
G01*
X736600Y6356350D01*
X736600Y6465315D02*
G01*
X772921Y6465315D01*
X788670Y6460236D01*
X798829Y6449821D01*
X804163Y6439407D01*
X809244Y6423660D01*
X809244Y6397752D01*
X804163Y6382257D01*
X798829Y6371844D01*
X788670Y6361429D01*
X772921Y6356350D01*
X736600Y6356350D01*
X869695Y6465315D02*
G01*
X853947Y6460236D01*
X848868Y6449821D01*
X848868Y6439407D01*
X853947Y6428994D01*
X864362Y6423660D01*
X885189Y6418579D01*
X900684Y6413500D01*
X911097Y6403086D01*
X916431Y6392671D01*
X916431Y6376923D01*
X911097Y6366510D01*
X906018Y6361429D01*
X890270Y6356350D01*
X869695Y6356350D01*
X853947Y6361429D01*
X848868Y6366510D01*
X843534Y6376923D01*
X843534Y6392671D01*
X848868Y6403086D01*
X859281Y6413500D01*
X874776Y6418579D01*
X895604Y6423660D01*
X906018Y6428994D01*
X911097Y6439407D01*
X911097Y6449821D01*
X906018Y6460236D01*
X890270Y6465315D01*
X869695Y6465315D01*
X6488684Y1765300D02*
G01*
X6597650Y1765300D01*
X6597650Y1765300D02*
G01*
X6597650Y1827529D01*
X6488684Y1861820D02*
G01*
X6597650Y1861820D01*
X6488684Y1861820D02*
G01*
X6597650Y1903476D01*
X6488684Y1945131D02*
G01*
X6597650Y1903476D01*
X6488684Y1945131D02*
G01*
X6597650Y1945131D01*
X6509511Y1979421D02*
G01*
X6504177Y1989836D01*
X6488684Y2005329D01*
X6597650Y2005329D01*
X6509511Y2039620D02*
G01*
X6504177Y2050034D01*
X6488684Y2065528D01*
X6597650Y2065528D01*
X6509511Y2099818D02*
G01*
X6504177Y2110231D01*
X6488684Y2125979D01*
X6597650Y2125979D01*
X6488684Y2232913D02*
G01*
X6597650Y2180844D01*
X6488684Y2160270D02*
G01*
X6488684Y2232913D01*
X6488684Y2267204D02*
G01*
X6597650Y2267204D01*
X6488684Y2267204D02*
G01*
X6488684Y2303526D01*
X6493763Y2319020D01*
X6504177Y2329434D01*
X6514591Y2334768D01*
X6530340Y2339847D01*
X6556247Y2339847D01*
X6571741Y2334768D01*
X6582156Y2329434D01*
X6592570Y2319020D01*
X6597650Y2303526D01*
X6597650Y2267204D01*
X6488684Y2410460D02*
G01*
X6597650Y2410460D01*
X6488684Y2374137D02*
G01*
X6488684Y2447036D01*
X4192015Y2895600D02*
G01*
X4083050Y2895600D01*
X4192015Y2895600D02*
G01*
X4192015Y2848863D01*
X4186936Y2833370D01*
X4181602Y2828036D01*
X4171188Y2822955D01*
X4160774Y2822955D01*
X4150359Y2828036D01*
X4145279Y2833370D01*
X4140200Y2848863D01*
X4140200Y2895600D01*
X4140200Y2859278D02*
G01*
X4083050Y2822955D01*
X4171188Y2788665D02*
G01*
X4176522Y2778252D01*
X4192015Y2762504D01*
X4083050Y2762504D01*
X2120900Y4446015D02*
G01*
X2120900Y4337050D01*
X2120900Y4446015D02*
G01*
X2167636Y4446015D01*
X2183129Y4440936D01*
X2188463Y4435602D01*
X2193543Y4425187D01*
X2193543Y4414773D01*
X2188463Y4404360D01*
X2183129Y4399279D01*
X2167636Y4394200D01*
X2120900Y4394200D01*
X2157222Y4394200D02*
G01*
X2193543Y4337050D01*
X2238247Y4446015D02*
G01*
X2295397Y4446015D01*
X2264409Y4404360D01*
X2279904Y4404360D01*
X2290318Y4399279D01*
X2295397Y4394200D01*
X2300731Y4378452D01*
X2300731Y4368037D01*
X2295397Y4352544D01*
X2284984Y4342129D01*
X2269490Y4337050D01*
X2253995Y4337050D01*
X2238247Y4342129D01*
X2233168Y4347210D01*
X2227834Y4357623D01*
X2108200Y5068315D02*
G01*
X2108200Y4959350D01*
X2108200Y5068315D02*
G01*
X2154936Y5068315D01*
X2170429Y5063236D01*
X2175763Y5057902D01*
X2180843Y5047487D01*
X2180843Y5037073D01*
X2175763Y5026660D01*
X2170429Y5021579D01*
X2154936Y5016500D01*
X2108200Y5016500D01*
X2144522Y5016500D02*
G01*
X2180843Y4959350D01*
X2267204Y5068315D02*
G01*
X2215134Y4995671D01*
X2293111Y4995671D01*
X2267204Y5068315D02*
G01*
X2267204Y4959350D01*
X2108200Y5360415D02*
G01*
X2108200Y5251450D01*
X2108200Y5360415D02*
G01*
X2154936Y5360415D01*
X2170429Y5355336D01*
X2175763Y5350002D01*
X2180843Y5339587D01*
X2180843Y5329173D01*
X2175763Y5318760D01*
X2170429Y5313679D01*
X2154936Y5308600D01*
X2108200Y5308600D01*
X2144522Y5308600D02*
G01*
X2180843Y5251450D01*
X2277618Y5360415D02*
G01*
X2225547Y5360415D01*
X2220468Y5313679D01*
X2225547Y5318760D01*
X2241295Y5324094D01*
X2256790Y5324094D01*
X2272284Y5318760D01*
X2282697Y5308600D01*
X2288031Y5292852D01*
X2288031Y5282437D01*
X2282697Y5266944D01*
X2272284Y5256529D01*
X2256790Y5251450D01*
X2241295Y5251450D01*
X2225547Y5256529D01*
X2220468Y5261610D01*
X2215134Y5272023D01*
X2108192Y6020808D02*
G01*
X2108192Y5911842D01*
X2108192Y6020808D02*
G01*
X2154928Y6020808D01*
X2170422Y6015728D01*
X2175756Y6010394D01*
X2180836Y5999980D01*
X2180836Y5989566D01*
X2175756Y5979152D01*
X2170422Y5974072D01*
X2154928Y5968992D01*
X2108192Y5968992D01*
X2144514Y5968992D02*
G01*
X2180836Y5911842D01*
X2277610Y6005314D02*
G01*
X2272276Y6015728D01*
X2256782Y6020808D01*
X2246368Y6020808D01*
X2230874Y6015728D01*
X2220460Y5999980D01*
X2215126Y5974072D01*
X2215126Y5948164D01*
X2220460Y5927336D01*
X2230874Y5916922D01*
X2246368Y5911842D01*
X2251702Y5911842D01*
X2267196Y5916922D01*
X2277610Y5927336D01*
X2282690Y5942830D01*
X2282690Y5948164D01*
X2277610Y5963658D01*
X2267196Y5974072D01*
X2251702Y5979152D01*
X2246368Y5979152D01*
X2230874Y5974072D01*
X2220460Y5963658D01*
X2215126Y5948164D01*
X2108200Y4750815D02*
G01*
X2108200Y4641850D01*
X2108200Y4750815D02*
G01*
X2154936Y4750815D01*
X2170429Y4745736D01*
X2175763Y4740402D01*
X2180843Y4729987D01*
X2180843Y4719573D01*
X2175763Y4709160D01*
X2170429Y4704079D01*
X2154936Y4699000D01*
X2108200Y4699000D01*
X2144522Y4699000D02*
G01*
X2180843Y4641850D01*
X2288031Y4750815D02*
G01*
X2235961Y4641850D01*
X2215134Y4750815D02*
G01*
X2288031Y4750815D01*
X2095500Y5703315D02*
G01*
X2095500Y5594350D01*
X2095500Y5703315D02*
G01*
X2142236Y5703315D01*
X2157729Y5698236D01*
X2163063Y5692902D01*
X2168143Y5682487D01*
X2168143Y5672073D01*
X2163063Y5661660D01*
X2157729Y5656579D01*
X2142236Y5651500D01*
X2095500Y5651500D01*
X2131822Y5651500D02*
G01*
X2168143Y5594350D01*
X2228595Y5703315D02*
G01*
X2212847Y5698236D01*
X2207768Y5687821D01*
X2207768Y5677407D01*
X2212847Y5666994D01*
X2223261Y5661660D01*
X2244090Y5656579D01*
X2259584Y5651500D01*
X2269997Y5641086D01*
X2275331Y5630671D01*
X2275331Y5614923D01*
X2269997Y5604510D01*
X2264918Y5599429D01*
X2249170Y5594350D01*
X2228595Y5594350D01*
X2212847Y5599429D01*
X2207768Y5604510D01*
X2202434Y5614923D01*
X2202434Y5630671D01*
X2207768Y5641086D01*
X2218181Y5651500D01*
X2233675Y5656579D01*
X2254504Y5661660D01*
X2264918Y5666994D01*
X2269997Y5677407D01*
X2269997Y5687821D01*
X2264918Y5698236D01*
X2249170Y5703315D01*
X2228595Y5703315D01*
X2768600Y6744715D02*
G01*
X2768600Y6635750D01*
X2768600Y6744715D02*
G01*
X2815336Y6744715D01*
X2830829Y6739636D01*
X2836163Y6734302D01*
X2841243Y6723887D01*
X2841243Y6713473D01*
X2836163Y6703060D01*
X2830829Y6697979D01*
X2815336Y6692900D01*
X2768600Y6692900D01*
X2804922Y6692900D02*
G01*
X2841243Y6635750D01*
X2880868Y6718808D02*
G01*
X2880868Y6723887D01*
X2885947Y6734302D01*
X2891281Y6739636D01*
X2901695Y6744715D01*
X2922270Y6744715D01*
X2932684Y6739636D01*
X2938018Y6734302D01*
X2943097Y6723887D01*
X2943097Y6713473D01*
X2938018Y6703060D01*
X2927604Y6687565D01*
X2875534Y6635750D01*
X2948431Y6635750D01*
X3593084Y3060700D02*
G01*
X3702050Y3060700D01*
X3593084Y3060700D02*
G01*
X3593084Y3107436D01*
X3598163Y3122929D01*
X3603497Y3128263D01*
X3613911Y3133344D01*
X3624325Y3133344D01*
X3634740Y3128263D01*
X3639820Y3122929D01*
X3644900Y3107436D01*
X3644900Y3060700D01*
X3644900Y3097021D02*
G01*
X3702050Y3133344D01*
X3629406Y3235197D02*
G01*
X3644900Y3230118D01*
X3655313Y3219704D01*
X3660647Y3204210D01*
X3660647Y3198876D01*
X3655313Y3183381D01*
X3644900Y3172968D01*
X3629406Y3167634D01*
X3624325Y3167634D01*
X3608577Y3172968D01*
X3598163Y3183381D01*
X3593084Y3198876D01*
X3593084Y3204210D01*
X3598163Y3219704D01*
X3608577Y3230118D01*
X3629406Y3235197D01*
X3655313Y3235197D01*
X3681475Y3230118D01*
X3696970Y3219704D01*
X3702050Y3204210D01*
X3702050Y3193795D01*
X3696970Y3178047D01*
X3686556Y3172968D01*
X3313684Y3746500D02*
G01*
X3422650Y3746500D01*
X3313684Y3746500D02*
G01*
X3313684Y3793236D01*
X3318763Y3808729D01*
X3324097Y3814063D01*
X3334511Y3819144D01*
X3344925Y3819144D01*
X3355340Y3814063D01*
X3360420Y3808729D01*
X3365500Y3793236D01*
X3365500Y3746500D01*
X3365500Y3782821D02*
G01*
X3422650Y3819144D01*
X3334511Y3853434D02*
G01*
X3329177Y3863847D01*
X3313684Y3879595D01*
X3422650Y3879595D01*
X3313684Y3944873D02*
G01*
X3318763Y3929379D01*
X3334511Y3918965D01*
X3360420Y3913886D01*
X3375913Y3913886D01*
X3402075Y3918965D01*
X3417570Y3929379D01*
X3422650Y3944873D01*
X3422650Y3955287D01*
X3417570Y3971036D01*
X3402075Y3981450D01*
X3375913Y3986529D01*
X3360420Y3986529D01*
X3334511Y3981450D01*
X3318763Y3971036D01*
X3313684Y3955287D01*
X3313684Y3944873D01*
X5435600Y7671815D02*
G01*
X5435600Y7562850D01*
X5474970Y7645908D02*
G01*
X5474970Y7650987D01*
X5480304Y7661402D01*
X5485384Y7666736D01*
X5495797Y7671815D01*
X5516625Y7671815D01*
X5527040Y7666736D01*
X5532120Y7661402D01*
X5537454Y7650987D01*
X5537454Y7640573D01*
X5532120Y7630160D01*
X5521959Y7614665D01*
X5469890Y7562850D01*
X5542534Y7562850D01*
X5654802Y7645908D02*
G01*
X5649722Y7656321D01*
X5639308Y7666736D01*
X5628893Y7671815D01*
X5608065Y7671815D01*
X5597652Y7666736D01*
X5587238Y7656321D01*
X5582158Y7645908D01*
X5576824Y7630160D01*
X5576824Y7604252D01*
X5582158Y7588758D01*
X5587238Y7578344D01*
X5597652Y7567929D01*
X5608065Y7562850D01*
X5628893Y7562850D01*
X5639308Y7567929D01*
X5649722Y7578344D01*
X5654802Y7588758D01*
X7073391Y2986278D02*
G01*
X7062977Y2980944D01*
X7052563Y2970529D01*
X7047484Y2960370D01*
X7047484Y2939542D01*
X7052563Y2929128D01*
X7062977Y2918713D01*
X7073391Y2913379D01*
X7089140Y2908300D01*
X7115047Y2908300D01*
X7130541Y2913379D01*
X7140956Y2918713D01*
X7151370Y2929128D01*
X7156450Y2939542D01*
X7156450Y2960370D01*
X7151370Y2970529D01*
X7140956Y2980944D01*
X7130541Y2986278D01*
X7047484Y3030981D02*
G01*
X7047484Y3088131D01*
X7089140Y3056889D01*
X7089140Y3072384D01*
X7094220Y3082797D01*
X7099300Y3088131D01*
X7115047Y3093212D01*
X7125461Y3093212D01*
X7140956Y3088131D01*
X7151370Y3077718D01*
X7156450Y3061970D01*
X7156450Y3046476D01*
X7151370Y3030981D01*
X7146290Y3025647D01*
X7135875Y3020568D01*
X3392677Y6718808D02*
G01*
X3387343Y6729221D01*
X3376929Y6739636D01*
X3366770Y6744715D01*
X3345941Y6744715D01*
X3335527Y6739636D01*
X3325113Y6729221D01*
X3319779Y6718808D01*
X3314700Y6703060D01*
X3314700Y6677152D01*
X3319779Y6661658D01*
X3325113Y6651244D01*
X3335527Y6640829D01*
X3345941Y6635750D01*
X3366770Y6635750D01*
X3376929Y6640829D01*
X3387343Y6651244D01*
X3392677Y6661658D01*
X3489197Y6729221D02*
G01*
X3484118Y6739636D01*
X3468370Y6744715D01*
X3458209Y6744715D01*
X3442461Y6739636D01*
X3432047Y6723887D01*
X3426968Y6697979D01*
X3426968Y6672071D01*
X3432047Y6651244D01*
X3442461Y6640829D01*
X3458209Y6635750D01*
X3463290Y6635750D01*
X3478784Y6640829D01*
X3489197Y6651244D01*
X3494531Y6666737D01*
X3494531Y6672071D01*
X3489197Y6687565D01*
X3478784Y6697979D01*
X3463290Y6703060D01*
X3458209Y6703060D01*
X3442461Y6697979D01*
X3432047Y6687565D01*
X3426968Y6672071D01*
X4891277Y7836408D02*
G01*
X4885943Y7846821D01*
X4875529Y7857236D01*
X4865370Y7862315D01*
X4844541Y7862315D01*
X4834127Y7857236D01*
X4823713Y7846821D01*
X4818379Y7836408D01*
X4813300Y7820660D01*
X4813300Y7794752D01*
X4818379Y7779258D01*
X4823713Y7768844D01*
X4834127Y7758429D01*
X4844541Y7753350D01*
X4865370Y7753350D01*
X4875529Y7758429D01*
X4885943Y7768844D01*
X4891277Y7779258D01*
X4998211Y7862315D02*
G01*
X4946395Y7753350D01*
X4925568Y7862315D02*
G01*
X4998211Y7862315D01*
X1373378Y7887208D02*
G01*
X1368044Y7897621D01*
X1357629Y7908036D01*
X1347470Y7913115D01*
X1326642Y7913115D01*
X1316228Y7908036D01*
X1305813Y7897621D01*
X1300479Y7887208D01*
X1295400Y7871460D01*
X1295400Y7845552D01*
X1300479Y7830058D01*
X1305813Y7819644D01*
X1316228Y7809229D01*
X1326642Y7804150D01*
X1347470Y7804150D01*
X1357629Y7809229D01*
X1368044Y7819644D01*
X1373378Y7830058D01*
X1407668Y7892287D02*
G01*
X1418081Y7897621D01*
X1433576Y7913115D01*
X1433576Y7804150D01*
X1499107Y7913115D02*
G01*
X1483360Y7908036D01*
X1473200Y7892287D01*
X1467865Y7866379D01*
X1467865Y7850886D01*
X1473200Y7824723D01*
X1483360Y7809229D01*
X1499107Y7804150D01*
X1509521Y7804150D01*
X1525015Y7809229D01*
X1535429Y7824723D01*
X1540510Y7850886D01*
X1540510Y7866379D01*
X1535429Y7892287D01*
X1525015Y7908036D01*
X1509521Y7913115D01*
X1499107Y7913115D01*
X3100577Y6718808D02*
G01*
X3095243Y6729221D01*
X3084829Y6739636D01*
X3074670Y6744715D01*
X3053841Y6744715D01*
X3043427Y6739636D01*
X3033013Y6729221D01*
X3027679Y6718808D01*
X3022600Y6703060D01*
X3022600Y6677152D01*
X3027679Y6661658D01*
X3033013Y6651244D01*
X3043427Y6640829D01*
X3053841Y6635750D01*
X3074670Y6635750D01*
X3084829Y6640829D01*
X3095243Y6651244D01*
X3100577Y6661658D01*
X3134868Y6723887D02*
G01*
X3145281Y6729221D01*
X3160775Y6744715D01*
X3160775Y6635750D01*
X3195065Y6723887D02*
G01*
X3205479Y6729221D01*
X3220974Y6744715D01*
X3220974Y6635750D01*
X6871715Y5726099D02*
G01*
X6762750Y5726099D01*
X6871715Y5726099D02*
G01*
X6871715Y5679363D01*
X6866636Y5663869D01*
X6861302Y5658535D01*
X6850888Y5653455D01*
X6840474Y5653455D01*
X6830059Y5658535D01*
X6824979Y5663869D01*
X6819900Y5679363D01*
X6819900Y5726099D01*
X6819900Y5689777D02*
G01*
X6762750Y5653455D01*
X6850888Y5619165D02*
G01*
X6856222Y5608751D01*
X6871715Y5593003D01*
X6762750Y5593003D01*
X6850888Y5558713D02*
G01*
X6856222Y5548299D01*
X6871715Y5532805D01*
X6762750Y5532805D01*
X6413500Y3938015D02*
G01*
X6413500Y3829050D01*
X6413500Y3938015D02*
G01*
X6460236Y3938015D01*
X6475729Y3932936D01*
X6481063Y3927602D01*
X6486143Y3917187D01*
X6486143Y3906773D01*
X6481063Y3896360D01*
X6475729Y3891279D01*
X6460236Y3886200D01*
X6413500Y3886200D01*
X6449822Y3886200D02*
G01*
X6486143Y3829050D01*
X6520434Y3917187D02*
G01*
X6530847Y3922521D01*
X6546595Y3938015D01*
X6546595Y3829050D01*
X6585965Y3912107D02*
G01*
X6585965Y3917187D01*
X6591300Y3927602D01*
X6596379Y3932936D01*
X6606793Y3938015D01*
X6627622Y3938015D01*
X6638036Y3932936D01*
X6643115Y3927602D01*
X6648450Y3917187D01*
X6648450Y3906773D01*
X6643115Y3896360D01*
X6632702Y3880865D01*
X6580886Y3829050D01*
X6653529Y3829050D01*
X4385563Y2575560D02*
G01*
X4494529Y2575560D01*
X4494529Y2575560D02*
G01*
X4494529Y2637789D01*
X4385563Y2672079D02*
G01*
X4494529Y2672079D01*
X4385563Y2672079D02*
G01*
X4494529Y2713736D01*
X4385563Y2755392D02*
G01*
X4494529Y2713736D01*
X4385563Y2755392D02*
G01*
X4494529Y2755392D01*
X4385563Y2862326D02*
G01*
X4494529Y2810510D01*
X4385563Y2789681D02*
G01*
X4385563Y2862326D01*
X4385563Y2922523D02*
G01*
X4390643Y2907029D01*
X4401058Y2901950D01*
X4411472Y2901950D01*
X4421886Y2907029D01*
X4427220Y2917444D01*
X4432300Y2938271D01*
X4437379Y2953765D01*
X4447793Y2964179D01*
X4458208Y2969260D01*
X4473956Y2969260D01*
X4484370Y2964179D01*
X4489450Y2959100D01*
X4494529Y2943352D01*
X4494529Y2922523D01*
X4489450Y2907029D01*
X4484370Y2901950D01*
X4473956Y2896615D01*
X4458208Y2896615D01*
X4447793Y2901950D01*
X4437379Y2912110D01*
X4432300Y2927857D01*
X4427220Y2948686D01*
X4421886Y2959100D01*
X4411472Y2964179D01*
X4401058Y2964179D01*
X4390643Y2959100D01*
X4385563Y2943352D01*
X4385563Y2922523D01*
X4385563Y3034792D02*
G01*
X4390643Y3019297D01*
X4406391Y3008884D01*
X4432300Y3003550D01*
X4447793Y3003550D01*
X4473956Y3008884D01*
X4489450Y3019297D01*
X4494529Y3034792D01*
X4494529Y3045205D01*
X4489450Y3060700D01*
X4473956Y3071113D01*
X4447793Y3076447D01*
X4432300Y3076447D01*
X4406391Y3071113D01*
X4390643Y3060700D01*
X4385563Y3045205D01*
X4385563Y3034792D01*
X4385563Y3172968D02*
G01*
X4385563Y3121152D01*
X4432300Y3115818D01*
X4427220Y3121152D01*
X4421886Y3136645D01*
X4421886Y3152139D01*
X4427220Y3167887D01*
X4437379Y3178302D01*
X4453127Y3183381D01*
X4463541Y3183381D01*
X4479036Y3178302D01*
X4489450Y3167887D01*
X4494529Y3152139D01*
X4494529Y3136645D01*
X4489450Y3121152D01*
X4484370Y3115818D01*
X4473956Y3110737D01*
X7086091Y2490978D02*
G01*
X7075677Y2485644D01*
X7065263Y2475229D01*
X7060184Y2465070D01*
X7060184Y2444242D01*
X7065263Y2433828D01*
X7075677Y2423413D01*
X7086091Y2418079D01*
X7101840Y2413000D01*
X7127747Y2413000D01*
X7143241Y2418079D01*
X7153656Y2423413D01*
X7164070Y2433828D01*
X7169150Y2444242D01*
X7169150Y2465070D01*
X7164070Y2475229D01*
X7153656Y2485644D01*
X7143241Y2490978D01*
X7060184Y2577084D02*
G01*
X7132827Y2525268D01*
X7132827Y2603245D01*
X7060184Y2577084D02*
G01*
X7169150Y2577084D01*
X3937508Y3185921D02*
G01*
X3947922Y3191255D01*
X3958336Y3201670D01*
X3963415Y3211829D01*
X3963415Y3232657D01*
X3958336Y3243071D01*
X3947922Y3253486D01*
X3937508Y3258820D01*
X3921759Y3263900D01*
X3895852Y3263900D01*
X3880358Y3258820D01*
X3869943Y3253486D01*
X3859529Y3243071D01*
X3854450Y3232657D01*
X3854450Y3211829D01*
X3859529Y3201670D01*
X3869943Y3191255D01*
X3880358Y3185921D01*
X3963415Y3125723D02*
G01*
X3958336Y3141218D01*
X3947922Y3146552D01*
X3937508Y3146552D01*
X3927093Y3141218D01*
X3921759Y3130804D01*
X3916679Y3110229D01*
X3911600Y3094481D01*
X3901186Y3084068D01*
X3890772Y3078987D01*
X3875024Y3078987D01*
X3864609Y3084068D01*
X3859529Y3089402D01*
X3854450Y3104895D01*
X3854450Y3125723D01*
X3859529Y3141218D01*
X3864609Y3146552D01*
X3875024Y3151631D01*
X3890772Y3151631D01*
X3901186Y3146552D01*
X3911600Y3136137D01*
X3916679Y3120389D01*
X3921759Y3099815D01*
X3927093Y3089402D01*
X3937508Y3084068D01*
X3947922Y3084068D01*
X3958336Y3089402D01*
X3963415Y3104895D01*
X3963415Y3125723D01*
X5831077Y3442207D02*
G01*
X5825743Y3452621D01*
X5815329Y3463036D01*
X5805170Y3468115D01*
X5784341Y3468115D01*
X5773927Y3463036D01*
X5763513Y3452621D01*
X5758179Y3442207D01*
X5753100Y3426460D01*
X5753100Y3400552D01*
X5758179Y3385057D01*
X5763513Y3374644D01*
X5773927Y3364229D01*
X5784341Y3359150D01*
X5805170Y3359150D01*
X5815329Y3364229D01*
X5825743Y3374644D01*
X5831077Y3385057D01*
X5932931Y3431794D02*
G01*
X5927597Y3416300D01*
X5917184Y3405886D01*
X5901690Y3400552D01*
X5896609Y3400552D01*
X5880861Y3405886D01*
X5870447Y3416300D01*
X5865368Y3431794D01*
X5865368Y3436873D01*
X5870447Y3452621D01*
X5880861Y3463036D01*
X5896609Y3468115D01*
X5901690Y3468115D01*
X5917184Y3463036D01*
X5927597Y3452621D01*
X5932931Y3431794D01*
X5932931Y3405886D01*
X5927597Y3379723D01*
X5917184Y3364229D01*
X5901690Y3359150D01*
X5891275Y3359150D01*
X5875781Y3364229D01*
X5870447Y3374644D01*
X7073391Y2706878D02*
G01*
X7062977Y2701544D01*
X7052563Y2691129D01*
X7047484Y2680970D01*
X7047484Y2660142D01*
X7052563Y2649728D01*
X7062977Y2639313D01*
X7073391Y2633979D01*
X7089140Y2628900D01*
X7115047Y2628900D01*
X7130541Y2633979D01*
X7140956Y2639313D01*
X7151370Y2649728D01*
X7156450Y2660142D01*
X7156450Y2680970D01*
X7151370Y2691129D01*
X7140956Y2701544D01*
X7130541Y2706878D01*
X7068311Y2741168D02*
G01*
X7062977Y2751581D01*
X7047484Y2767076D01*
X7156450Y2767076D01*
X7047484Y2811779D02*
G01*
X7047484Y2868929D01*
X7089140Y2837687D01*
X7089140Y2853436D01*
X7094220Y2863850D01*
X7099300Y2868929D01*
X7115047Y2874010D01*
X7125461Y2874010D01*
X7140956Y2868929D01*
X7151370Y2858515D01*
X7156450Y2843021D01*
X7156450Y2827273D01*
X7151370Y2811779D01*
X7146290Y2806700D01*
X7135875Y2801365D01*
X5792977Y3658107D02*
G01*
X5787643Y3668521D01*
X5777229Y3678936D01*
X5767070Y3684015D01*
X5746241Y3684015D01*
X5735827Y3678936D01*
X5725413Y3668521D01*
X5720079Y3658107D01*
X5715000Y3642360D01*
X5715000Y3616452D01*
X5720079Y3600957D01*
X5725413Y3590544D01*
X5735827Y3580129D01*
X5746241Y3575050D01*
X5767070Y3575050D01*
X5777229Y3580129D01*
X5787643Y3590544D01*
X5792977Y3600957D01*
X5827268Y3663187D02*
G01*
X5837681Y3668521D01*
X5853175Y3684015D01*
X5853175Y3575050D01*
X5939536Y3684015D02*
G01*
X5887465Y3611371D01*
X5965443Y3611371D01*
X5939536Y3684015D02*
G01*
X5939536Y3575050D01*
X4191508Y3198621D02*
G01*
X4201922Y3203955D01*
X4212336Y3214370D01*
X4217415Y3224529D01*
X4217415Y3245357D01*
X4212336Y3255771D01*
X4201922Y3266186D01*
X4191508Y3271520D01*
X4175759Y3276600D01*
X4149852Y3276600D01*
X4134358Y3271520D01*
X4123943Y3266186D01*
X4113529Y3255771D01*
X4108450Y3245357D01*
X4108450Y3224529D01*
X4113529Y3214370D01*
X4123943Y3203955D01*
X4134358Y3198621D01*
X4196588Y3164331D02*
G01*
X4201922Y3153918D01*
X4217415Y3138423D01*
X4108450Y3138423D01*
X4217415Y3041650D02*
G01*
X4217415Y3093720D01*
X4170679Y3098800D01*
X4175759Y3093720D01*
X4181093Y3078226D01*
X4181093Y3062478D01*
X4175759Y3046984D01*
X4165600Y3036570D01*
X4149852Y3031489D01*
X4139438Y3031489D01*
X4123943Y3036570D01*
X4113529Y3046984D01*
X4108450Y3062478D01*
X4108450Y3078226D01*
X4113529Y3093720D01*
X4118609Y3098800D01*
X4129024Y3104134D01*
X6895084Y4305300D02*
G01*
X7004050Y4305300D01*
X6895084Y4377944D02*
G01*
X7004050Y4377944D01*
X6946900Y4305300D02*
G01*
X6946900Y4377944D01*
X6920991Y4490212D02*
G01*
X6910577Y4485131D01*
X6900163Y4474718D01*
X6895084Y4464304D01*
X6895084Y4443476D01*
X6900163Y4433062D01*
X6910577Y4422647D01*
X6920991Y4417568D01*
X6936740Y4412234D01*
X6962647Y4412234D01*
X6978141Y4417568D01*
X6988556Y4422647D01*
X6998970Y4433062D01*
X7004050Y4443476D01*
X7004050Y4464304D01*
X6998970Y4474718D01*
X6988556Y4485131D01*
X6978141Y4490212D01*
X6957313Y4524502D02*
G01*
X6957313Y4617973D01*
X6910577Y4725162D02*
G01*
X6900163Y4714747D01*
X6895084Y4699000D01*
X6895084Y4678426D01*
X6900163Y4662678D01*
X6910577Y4652263D01*
X6920991Y4652263D01*
X6931406Y4657597D01*
X6936740Y4662678D01*
X6941820Y4673092D01*
X6952234Y4704334D01*
X6957313Y4714747D01*
X6962647Y4719828D01*
X6973061Y4725162D01*
X6988556Y4725162D01*
X6998970Y4714747D01*
X7004050Y4699000D01*
X7004050Y4678426D01*
X6998970Y4662678D01*
X6988556Y4652263D01*
X6895084Y4759452D02*
G01*
X7004050Y4759452D01*
X6895084Y4759452D02*
G01*
X6895084Y4806187D01*
X6900163Y4821681D01*
X6905497Y4827015D01*
X6915911Y4832095D01*
X6926325Y4832095D01*
X6936740Y4827015D01*
X6941820Y4821681D01*
X6946900Y4806187D01*
X6946900Y4759452D01*
X6946900Y4795773D02*
G01*
X7004050Y4832095D01*
X6895084Y4897628D02*
G01*
X6900163Y4881879D01*
X6915911Y4871720D01*
X6941820Y4866386D01*
X6957313Y4866386D01*
X6983475Y4871720D01*
X6998970Y4881879D01*
X7004050Y4897628D01*
X7004050Y4908042D01*
X6998970Y4923536D01*
X6983475Y4933950D01*
X6957313Y4939029D01*
X6941820Y4939029D01*
X6915911Y4933950D01*
X6900163Y4923536D01*
X6895084Y4908042D01*
X6895084Y4897628D01*
X6895084Y5025389D02*
G01*
X6967727Y4973320D01*
X6967727Y5051297D01*
X6895084Y5025389D02*
G01*
X7004050Y5025389D01*
X4751324Y6944360D02*
G01*
X4751324Y6835139D01*
X4751324Y6944360D02*
G01*
X4818888Y6944360D01*
X4751324Y6892289D02*
G01*
X4792979Y6892289D01*
X4751324Y6835139D02*
G01*
X4818888Y6835139D01*
X4926075Y6928612D02*
G01*
X4915661Y6939026D01*
X4899913Y6944360D01*
X4879086Y6944360D01*
X4863591Y6939026D01*
X4853177Y6928612D01*
X4853177Y6918197D01*
X4858511Y6907784D01*
X4863591Y6902704D01*
X4874006Y6897370D01*
X4905247Y6887210D01*
X4915661Y6881876D01*
X4920741Y6876795D01*
X4926075Y6866381D01*
X4926075Y6850634D01*
X4915661Y6840220D01*
X4899913Y6835139D01*
X4879086Y6835139D01*
X4863591Y6840220D01*
X4853177Y6850634D01*
X4960365Y6944360D02*
G01*
X4960365Y6835139D01*
X4960365Y6944360D02*
G01*
X5007102Y6944360D01*
X5022595Y6939026D01*
X5027675Y6933945D01*
X5033009Y6923531D01*
X5033009Y6907784D01*
X5027675Y6897370D01*
X5022595Y6892289D01*
X5007102Y6887210D01*
X4960365Y6887210D01*
X5077713Y6944360D02*
G01*
X5134863Y6944360D01*
X5103622Y6902704D01*
X5119115Y6902704D01*
X5129529Y6897370D01*
X5134863Y6892289D01*
X5139943Y6876795D01*
X5139943Y6866381D01*
X5134863Y6850634D01*
X5124450Y6840220D01*
X5108956Y6835139D01*
X5093208Y6835139D01*
X5077713Y6840220D01*
X5072379Y6845554D01*
X5067300Y6855968D01*
X5179568Y6918197D02*
G01*
X5179568Y6923531D01*
X5184647Y6933945D01*
X5189981Y6939026D01*
X5200395Y6944360D01*
X5220970Y6944360D01*
X5231384Y6939026D01*
X5236718Y6933945D01*
X5241797Y6923531D01*
X5241797Y6913118D01*
X5236718Y6902704D01*
X5226304Y6887210D01*
X5174234Y6835139D01*
X5247131Y6835139D01*
X5281422Y6881876D02*
G01*
X5374893Y6881876D01*
X5481827Y6928612D02*
G01*
X5471413Y6939026D01*
X5455920Y6944360D01*
X5435091Y6944360D01*
X5419597Y6939026D01*
X5409184Y6928612D01*
X5409184Y6918197D01*
X5414263Y6907784D01*
X5419597Y6902704D01*
X5430011Y6897370D01*
X5461000Y6887210D01*
X5471413Y6881876D01*
X5476747Y6876795D01*
X5481827Y6866381D01*
X5481827Y6850634D01*
X5471413Y6840220D01*
X5455920Y6835139D01*
X5435091Y6835139D01*
X5419597Y6840220D01*
X5409184Y6850634D01*
G36*
X2909976Y4735017D02*
G01*
X2909011Y4663033D01*
X2934970Y4699000D01*
G37*
G36*
X2909976Y5687517D02*
G01*
X2909011Y5615533D01*
X2934970Y5651500D01*
G37*
G36*
X1463040Y1993900D02*
G01*
X1457960Y1988820D01*
X1582420Y1882139D01*
X1587500Y1871980D01*
X1645920Y1836420D01*
X1684020Y1818639D01*
X1724660Y1790700D01*
X1785620Y1780539D01*
X1803400Y1762760D01*
X1884680Y1762760D01*
X1900072Y1747367D01*
X1999132Y1747367D01*
X2001520Y1744980D01*
X2011680Y1755139D01*
X2098040Y1762760D01*
X2118360Y1778000D01*
X2192020Y1790700D01*
X2237740Y1823720D01*
X2278380Y1833880D01*
X2331720Y1877060D01*
X2334260Y1877060D01*
X2456180Y1993900D01*
G37*
G36*
X2821940Y1993900D02*
G01*
X2816860Y1988820D01*
X2941320Y1882139D01*
X2946400Y1871980D01*
X3004820Y1836420D01*
X3042920Y1818639D01*
X3083560Y1790700D01*
X3144520Y1780539D01*
X3162300Y1762760D01*
X3243580Y1762760D01*
X3258972Y1747367D01*
X3358032Y1747367D01*
X3360420Y1744980D01*
X3370579Y1755139D01*
X3456940Y1762760D01*
X3477260Y1778000D01*
X3550920Y1790700D01*
X3596640Y1823720D01*
X3637279Y1833880D01*
X3690620Y1877060D01*
X3693160Y1877060D01*
X3815079Y1993900D01*
G37*
G36*
X2909976Y4430217D02*
G01*
X2909011Y4358233D01*
X2934970Y4394200D01*
G37*
G36*
X2909976Y5039817D02*
G01*
X2909011Y4967833D01*
X2934970Y5003800D01*
G37*
G36*
X2909976Y5357317D02*
G01*
X2909011Y5285333D01*
X2934970Y5321300D01*
G37*
G36*
X2909976Y6017717D02*
G01*
X2909011Y5945733D01*
X2934970Y5981700D01*
G37*
G36*
X4100322Y2054606D02*
G01*
X4140301Y2024583D01*
X4180332Y2054555D01*
G37*
D10*
X4135412Y7510487D02*
G01*
X3535413Y7510487D01*
X4135412Y8110461D02*
G01*
X4135412Y7510462D01*
X3535413Y8110486D02*
G01*
X4135412Y8110486D01*
X3535413Y7510487D02*
G01*
X3535413Y8110486D01*
X2265387Y8123212D02*
G01*
X2865386Y8123212D01*
X2265387Y7523238D02*
G01*
X2265387Y8123237D01*
X2865386Y7523213D02*
G01*
X2265387Y7523213D01*
X2865386Y8123212D02*
G01*
X2865386Y7523213D01*
D39*
X2958000Y4771999D02*
G01*
X3072998Y4771999D01*
X3072998Y4627001D01*
X2952998Y4627001D01*
X2891000Y4626000D02*
G01*
X2766999Y4626000D01*
X2766999Y4770998D01*
X2891000Y4770998D01*
X3072998Y4771999D02*
G01*
X3076000Y4771999D01*
X3096000Y4751999D01*
X3096000Y4650000D01*
X3092998Y4647001D01*
X3072998Y4627001D01*
X2958000Y5724499D02*
G01*
X3072998Y5724499D01*
X3072998Y5579501D01*
X2952998Y5579501D01*
X2891000Y5578500D02*
G01*
X2766999Y5578500D01*
X2766999Y5723498D01*
X2891000Y5723498D01*
X3072998Y5724499D02*
G01*
X3076000Y5724499D01*
X3096000Y5704499D01*
X3096000Y5602500D01*
X3092998Y5599501D01*
X3072998Y5579501D01*
D10*
X1140104Y4163504D02*
G01*
X1140104Y6123495D01*
X1480101Y4163504D02*
G01*
X980102Y4163504D01*
X980102Y6123495D02*
G01*
X1480101Y6123495D01*
X980102Y4163504D02*
G01*
X980102Y6123495D01*
X1841500Y4254500D02*
G01*
X1493702Y4254500D01*
X1480101Y4512711D02*
G01*
X1820100Y4512711D01*
X1480101Y4761631D02*
G01*
X1820100Y4761631D01*
X1480101Y5015631D02*
G01*
X1820100Y5015631D01*
X1480101Y5272168D02*
G01*
X1820100Y5272168D01*
X1480101Y5526168D02*
G01*
X1820100Y5526168D01*
X1480101Y5777631D02*
G01*
X1820100Y5777631D01*
X1480101Y6036711D02*
G01*
X1820100Y6036711D01*
X1480101Y6123495D02*
G01*
X1480101Y6020074D01*
X1480101Y5790925D02*
G01*
X1480101Y5766074D01*
X1480101Y5536925D02*
G01*
X1480101Y5512074D01*
X1480101Y5282925D02*
G01*
X1480101Y5258074D01*
X1480101Y5028925D02*
G01*
X1480101Y5004074D01*
X1480101Y4774925D02*
G01*
X1480101Y4750074D01*
X1480101Y4520925D02*
G01*
X1480101Y4496074D01*
X1480101Y4266925D02*
G01*
X1480101Y4163504D01*
D40*
X1003300Y3429000D02*
G01*
X812800Y3429000D01*
X812800Y3175000D01*
X2336800Y3175000D01*
X2336800Y3429000D01*
D41*
X2336800Y3429000D02*
G01*
X1003300Y3429000D01*
D40*
X990600Y7251700D02*
G01*
X800100Y7251700D01*
X800100Y6997700D01*
X2324100Y6997700D01*
X2324100Y7251700D01*
D41*
X2324100Y7251700D02*
G01*
X990600Y7251700D01*
D40*
X6096000Y6045200D02*
G01*
X6350000Y6045200D01*
X6350000Y4013200D01*
X6096000Y4013200D01*
X6096000Y4203700D01*
D41*
X6096000Y6045200D02*
G01*
X6096000Y4203700D01*
D10*
X6359903Y3255002D02*
G01*
X6359903Y3095000D01*
X6009896Y3255002D02*
G01*
X6009899Y3094997D01*
X6234899Y3070999D02*
G01*
X6339898Y3070999D01*
X6234899Y3279000D02*
G01*
X6339898Y3279000D01*
X6134900Y3070999D02*
G01*
X6029901Y3070999D01*
X6134900Y3279000D02*
G01*
X6029901Y3279000D01*
X6009896Y3256993D02*
G01*
X6009896Y3255002D01*
X6009896Y3258995D02*
G01*
X6009896Y3255002D01*
X6009899Y3091002D02*
G01*
X6009899Y3094997D01*
X6359903Y3258995D02*
G01*
X6359903Y3255002D01*
X6359903Y3091004D02*
G01*
X6359903Y3095000D01*
D41*
X1104900Y2476500D02*
G01*
X1104900Y2794000D01*
D40*
X1104900Y2476500D02*
G01*
X850900Y2476500D01*
X850900Y2984500D01*
X1104900Y2984500D01*
X1104900Y2794000D01*
X6845300Y7239000D02*
G01*
X6845300Y7429500D01*
X6591300Y7429500D01*
X6591300Y6159500D01*
X6845300Y6159500D01*
D41*
X6845300Y6159500D02*
G01*
X6845300Y7239000D01*
D10*
X2200275Y2613319D02*
G01*
X2372995Y2613319D01*
X2284095Y2526959D02*
G01*
X2284095Y2694599D01*
X3559175Y2613319D02*
G01*
X3731895Y2613319D01*
X3642995Y2526959D02*
G01*
X3642995Y2694599D01*
D39*
X2958000Y4467199D02*
G01*
X3072998Y4467199D01*
X3072998Y4322201D01*
X2952998Y4322201D01*
X2891000Y4321200D02*
G01*
X2766999Y4321200D01*
X2766999Y4466198D01*
X2891000Y4466198D01*
X3072998Y4467199D02*
G01*
X3076000Y4467199D01*
X3096000Y4447199D01*
X3096000Y4345200D01*
X3092998Y4342201D01*
X3072998Y4322201D01*
X2958000Y5076799D02*
G01*
X3072998Y5076799D01*
X3072998Y4931801D01*
X2952998Y4931801D01*
X2891000Y4930800D02*
G01*
X2766999Y4930800D01*
X2766999Y5075798D01*
X2891000Y5075798D01*
X3072998Y5076799D02*
G01*
X3076000Y5076799D01*
X3096000Y5056799D01*
X3096000Y4954800D01*
X3092998Y4951801D01*
X3072998Y4931801D01*
X2958000Y5394299D02*
G01*
X3072998Y5394299D01*
X3072998Y5249301D01*
X2952998Y5249301D01*
X2891000Y5248300D02*
G01*
X2766999Y5248300D01*
X2766999Y5393298D01*
X2891000Y5393298D01*
X3072998Y5394299D02*
G01*
X3076000Y5394299D01*
X3096000Y5374299D01*
X3096000Y5272300D01*
X3092998Y5269301D01*
X3072998Y5249301D01*
X2958000Y6054699D02*
G01*
X3072998Y6054699D01*
X3072998Y5909701D01*
X2952998Y5909701D01*
X2891000Y5908700D02*
G01*
X2766999Y5908700D01*
X2766999Y6053698D01*
X2891000Y6053698D01*
X3072998Y6054699D02*
G01*
X3076000Y6054699D01*
X3096000Y6034699D01*
X3096000Y5932700D01*
X3092998Y5929701D01*
X3072998Y5909701D01*
D10*
X1168400Y3657600D02*
G01*
X1270000Y3698239D01*
X1270000Y3698239D02*
G01*
X1270000Y3616960D01*
X1270000Y3616960D02*
G01*
X1168400Y3657600D01*
X1069200Y3757599D02*
G01*
X1369199Y3757599D01*
X1069200Y3557600D02*
G01*
X1369199Y3557600D01*
X1168400Y3708400D02*
G01*
X1168400Y3606800D01*
X1143000Y3657600D02*
G01*
X1295400Y3657600D01*
X1168400Y3949700D02*
G01*
X1270000Y3990339D01*
X1270000Y3990339D02*
G01*
X1270000Y3909060D01*
X1270000Y3909060D02*
G01*
X1168400Y3949700D01*
X1069200Y4049699D02*
G01*
X1369199Y4049699D01*
X1069200Y3849700D02*
G01*
X1369199Y3849700D01*
X1168400Y4000500D02*
G01*
X1168400Y3898900D01*
X1143000Y3949700D02*
G01*
X1295400Y3949700D01*
X1689100Y3949700D02*
G01*
X1790700Y3990339D01*
X1790700Y3990339D02*
G01*
X1790700Y3909060D01*
X1790700Y3909060D02*
G01*
X1689100Y3949700D01*
X1589900Y4049699D02*
G01*
X1889899Y4049699D01*
X1589900Y3849700D02*
G01*
X1889899Y3849700D01*
X1689100Y4000500D02*
G01*
X1689100Y3898900D01*
X1663700Y3949700D02*
G01*
X1816100Y3949700D01*
X1689100Y3657600D02*
G01*
X1790700Y3698239D01*
X1790700Y3698239D02*
G01*
X1790700Y3616960D01*
X1790700Y3616960D02*
G01*
X1689100Y3657600D01*
X1589900Y3757599D02*
G01*
X1889899Y3757599D01*
X1589900Y3557600D02*
G01*
X1889899Y3557600D01*
X1689100Y3708400D02*
G01*
X1689100Y3606800D01*
X1663700Y3657600D02*
G01*
X1816100Y3657600D01*
X1663700Y6680200D02*
G01*
X1765300Y6720839D01*
X1765300Y6720839D02*
G01*
X1765300Y6639560D01*
X1765300Y6639560D02*
G01*
X1663700Y6680200D01*
X1564500Y6780199D02*
G01*
X1864499Y6780199D01*
X1564500Y6580200D02*
G01*
X1864499Y6580200D01*
X1663700Y6731000D02*
G01*
X1663700Y6629400D01*
X1638300Y6680200D02*
G01*
X1790700Y6680200D01*
X1663700Y6400800D02*
G01*
X1765300Y6441439D01*
X1765300Y6441439D02*
G01*
X1765300Y6360160D01*
X1765300Y6360160D02*
G01*
X1663700Y6400800D01*
X1564500Y6500799D02*
G01*
X1864499Y6500799D01*
X1564500Y6300800D02*
G01*
X1864499Y6300800D01*
X1663700Y6451600D02*
G01*
X1663700Y6350000D01*
X1638300Y6400800D02*
G01*
X1790700Y6400800D01*
X1155700Y6680200D02*
G01*
X1257300Y6720839D01*
X1257300Y6720839D02*
G01*
X1257300Y6639560D01*
X1257300Y6639560D02*
G01*
X1155700Y6680200D01*
X1056500Y6780199D02*
G01*
X1356499Y6780199D01*
X1056500Y6580200D02*
G01*
X1356499Y6580200D01*
X1155700Y6731000D02*
G01*
X1155700Y6629400D01*
X1130300Y6680200D02*
G01*
X1282700Y6680200D01*
X1155700Y6400800D02*
G01*
X1257300Y6441439D01*
X1257300Y6441439D02*
G01*
X1257300Y6360160D01*
X1257300Y6360160D02*
G01*
X1155700Y6400800D01*
X1056500Y6500799D02*
G01*
X1356499Y6500799D01*
X1056500Y6300800D02*
G01*
X1356499Y6300800D01*
X1155700Y6451600D02*
G01*
X1155700Y6350000D01*
X1130300Y6400800D02*
G01*
X1282700Y6400800D01*
X6343294Y2547391D02*
G01*
X6343294Y2677388D01*
X6293304Y2677388D01*
X6293304Y2547391D01*
X6440601Y1752396D02*
G01*
X6440601Y2547391D01*
X5725998Y2547391D01*
X5725998Y1752396D01*
X6440601Y1752396D01*
X5871057Y2546985D02*
G01*
X5871057Y2676982D01*
X5821045Y2676982D01*
X5821045Y2546985D01*
X4242196Y2589999D02*
G01*
X4242196Y2715000D01*
X4038203Y2589999D02*
G01*
X4038203Y2715000D01*
X4242196Y2490000D02*
G01*
X4242196Y2364999D01*
X4038203Y2490000D02*
G01*
X4038203Y2364999D01*
X4242196Y2715003D02*
G01*
X4038203Y2715000D01*
X4242196Y2364999D02*
G01*
X4038203Y2364999D01*
X2464600Y4496196D02*
G01*
X2339599Y4496196D01*
X2464600Y4292203D02*
G01*
X2339599Y4292203D01*
X2564599Y4496196D02*
G01*
X2689600Y4496196D01*
X2564599Y4292203D02*
G01*
X2689600Y4292203D01*
X2339596Y4496196D02*
G01*
X2339599Y4292203D01*
X2689600Y4496196D02*
G01*
X2689600Y4292203D01*
X2464600Y5105796D02*
G01*
X2339599Y5105796D01*
X2464600Y4901803D02*
G01*
X2339599Y4901803D01*
X2564599Y5105796D02*
G01*
X2689600Y5105796D01*
X2564599Y4901803D02*
G01*
X2689600Y4901803D01*
X2339596Y5105796D02*
G01*
X2339599Y4901803D01*
X2689600Y5105796D02*
G01*
X2689600Y4901803D01*
X2464600Y5423296D02*
G01*
X2339599Y5423296D01*
X2464600Y5219303D02*
G01*
X2339599Y5219303D01*
X2564599Y5423296D02*
G01*
X2689600Y5423296D01*
X2564599Y5219303D02*
G01*
X2689600Y5219303D01*
X2339596Y5423296D02*
G01*
X2339599Y5219303D01*
X2689600Y5423296D02*
G01*
X2689600Y5219303D01*
X2464600Y6083696D02*
G01*
X2339599Y6083696D01*
X2464600Y5879703D02*
G01*
X2339599Y5879703D01*
X2564599Y6083696D02*
G01*
X2689600Y6083696D01*
X2564599Y5879703D02*
G01*
X2689600Y5879703D01*
X2339596Y6083696D02*
G01*
X2339599Y5879703D01*
X2689600Y6083696D02*
G01*
X2689600Y5879703D01*
X2464600Y4800996D02*
G01*
X2339599Y4800996D01*
X2464600Y4597003D02*
G01*
X2339599Y4597003D01*
X2564599Y4800996D02*
G01*
X2689600Y4800996D01*
X2564599Y4597003D02*
G01*
X2689600Y4597003D01*
X2339596Y4800996D02*
G01*
X2339599Y4597003D01*
X2689600Y4800996D02*
G01*
X2689600Y4597003D01*
X2464600Y5753496D02*
G01*
X2339599Y5753496D01*
X2464600Y5549503D02*
G01*
X2339599Y5549503D01*
X2564599Y5753496D02*
G01*
X2689600Y5753496D01*
X2564599Y5549503D02*
G01*
X2689600Y5549503D01*
X2339596Y5753496D02*
G01*
X2339599Y5549503D01*
X2689600Y5753496D02*
G01*
X2689600Y5549503D01*
X2755503Y6363500D02*
G01*
X2755503Y6238499D01*
X2959496Y6363500D02*
G01*
X2959496Y6238499D01*
X2755503Y6463499D02*
G01*
X2755503Y6588500D01*
X2959496Y6463499D02*
G01*
X2959496Y6588500D01*
X2755503Y6238496D02*
G01*
X2959496Y6238499D01*
X2755503Y6588500D02*
G01*
X2959496Y6588500D01*
X3746896Y3542499D02*
G01*
X3746896Y3667500D01*
X3542903Y3542499D02*
G01*
X3542903Y3667500D01*
X3746896Y3442500D02*
G01*
X3746896Y3317499D01*
X3542903Y3442500D02*
G01*
X3542903Y3317499D01*
X3746896Y3667503D02*
G01*
X3542903Y3667500D01*
X3746896Y3317499D02*
G01*
X3542903Y3317499D01*
X3263503Y3442500D02*
G01*
X3263503Y3317499D01*
X3467496Y3442500D02*
G01*
X3467496Y3317499D01*
X3263503Y3542499D02*
G01*
X3263503Y3667500D01*
X3467496Y3542499D02*
G01*
X3467496Y3667500D01*
X3263503Y3317496D02*
G01*
X3467496Y3317499D01*
X3263503Y3667500D02*
G01*
X3467496Y3667500D01*
D40*
X5346700Y7734300D02*
G01*
X5346700Y7988300D01*
X6362700Y7988300D01*
X6362700Y7734300D01*
X6172200Y7734300D01*
D41*
X5346700Y7734300D02*
G01*
X6172200Y7734300D01*
D10*
X7007603Y3064502D02*
G01*
X7007603Y2904500D01*
X6657596Y3064502D02*
G01*
X6657599Y2904497D01*
X6882599Y2880499D02*
G01*
X6987598Y2880499D01*
X6882599Y3088500D02*
G01*
X6987598Y3088500D01*
X6782600Y2880499D02*
G01*
X6677601Y2880499D01*
X6782600Y3088500D02*
G01*
X6677601Y3088500D01*
X6657596Y3066493D02*
G01*
X6657596Y3064502D01*
X6657596Y3068495D02*
G01*
X6657596Y3064502D01*
X6657599Y2900502D02*
G01*
X6657599Y2904497D01*
X7007603Y3068495D02*
G01*
X7007603Y3064502D01*
X7007603Y2900504D02*
G01*
X7007603Y2904500D01*
X3323597Y6588503D02*
G01*
X3483599Y6588503D01*
X3323597Y6238496D02*
G01*
X3483602Y6238499D01*
X3507600Y6463499D02*
G01*
X3507600Y6568498D01*
X3299599Y6463499D02*
G01*
X3299599Y6568498D01*
X3507600Y6363500D02*
G01*
X3507600Y6258501D01*
X3299599Y6363500D02*
G01*
X3299599Y6258501D01*
X3321606Y6238496D02*
G01*
X3323597Y6238496D01*
X3319604Y6238496D02*
G01*
X3323597Y6238496D01*
X3487597Y6238499D02*
G01*
X3483602Y6238499D01*
X3319604Y6588503D02*
G01*
X3323597Y6588503D01*
X3487595Y6588503D02*
G01*
X3483599Y6588503D01*
X4530097Y7985503D02*
G01*
X4690099Y7985503D01*
X4530097Y7635496D02*
G01*
X4690102Y7635499D01*
X4714100Y7860499D02*
G01*
X4714100Y7965498D01*
X4506099Y7860499D02*
G01*
X4506099Y7965498D01*
X4714100Y7760500D02*
G01*
X4714100Y7655501D01*
X4506099Y7760500D02*
G01*
X4506099Y7655501D01*
X4528106Y7635496D02*
G01*
X4530097Y7635496D01*
X4526104Y7635496D02*
G01*
X4530097Y7635496D01*
X4694097Y7635499D02*
G01*
X4690102Y7635499D01*
X4526104Y7985503D02*
G01*
X4530097Y7985503D01*
X4694095Y7985503D02*
G01*
X4690099Y7985503D01*
X1769102Y7673596D02*
G01*
X1609100Y7673596D01*
X1769102Y8023603D02*
G01*
X1609097Y8023600D01*
X1585099Y7798600D02*
G01*
X1585099Y7693601D01*
X1793100Y7798600D02*
G01*
X1793100Y7693601D01*
X1585099Y7898599D02*
G01*
X1585099Y8003598D01*
X1793100Y7898599D02*
G01*
X1793100Y8003598D01*
X1771093Y8023603D02*
G01*
X1769102Y8023603D01*
X1773095Y8023603D02*
G01*
X1769102Y8023603D01*
X1605102Y8023600D02*
G01*
X1609097Y8023600D01*
X1773095Y7673596D02*
G01*
X1769102Y7673596D01*
X1605104Y7673596D02*
G01*
X1609100Y7673596D01*
X3204202Y6238496D02*
G01*
X3044200Y6238496D01*
X3204202Y6588503D02*
G01*
X3044197Y6588500D01*
X3020199Y6363500D02*
G01*
X3020199Y6258501D01*
X3228200Y6363500D02*
G01*
X3228200Y6258501D01*
X3020199Y6463499D02*
G01*
X3020199Y6568498D01*
X3228200Y6463499D02*
G01*
X3228200Y6568498D01*
X3206193Y6588503D02*
G01*
X3204202Y6588503D01*
X3208195Y6588503D02*
G01*
X3204202Y6588503D01*
X3040202Y6588500D02*
G01*
X3044197Y6588500D01*
X3208195Y6238496D02*
G01*
X3204202Y6238496D01*
X3040204Y6238496D02*
G01*
X3044200Y6238496D01*
X6705996Y5764999D02*
G01*
X6705996Y5890000D01*
X6502003Y5764999D02*
G01*
X6502003Y5890000D01*
X6705996Y5665000D02*
G01*
X6705996Y5539999D01*
X6502003Y5665000D02*
G01*
X6502003Y5539999D01*
X6705996Y5890003D02*
G01*
X6502003Y5890000D01*
X6705996Y5539999D02*
G01*
X6502003Y5539999D01*
X6134900Y3988196D02*
G01*
X6009899Y3988196D01*
X6134900Y3784203D02*
G01*
X6009899Y3784203D01*
X6234899Y3988196D02*
G01*
X6359900Y3988196D01*
X6234899Y3784203D02*
G01*
X6359900Y3784203D01*
X6009896Y3988196D02*
G01*
X6009899Y3784203D01*
X6359900Y3988196D02*
G01*
X6359900Y3784203D01*
X5354574Y2866389D02*
G01*
X5354574Y3056381D01*
X5264658Y2866389D02*
G01*
X5264658Y3056381D01*
X5354574Y3056381D01*
X5010658Y2866389D02*
G01*
X5010658Y3016250D01*
X5100574Y3016250D01*
X5100574Y2866389D01*
X4756658Y2866389D02*
G01*
X4756658Y3056381D01*
X4846574Y3056381D01*
X4846574Y2866389D01*
X4554474Y2796286D02*
G01*
X4554474Y2866389D01*
X5554725Y2866389D01*
X5554725Y2796286D01*
X7007603Y2607302D02*
G01*
X7007603Y2447300D01*
X6657596Y2607302D02*
G01*
X6657599Y2447297D01*
X6882599Y2423299D02*
G01*
X6987598Y2423299D01*
X6882599Y2631300D02*
G01*
X6987598Y2631300D01*
X6782600Y2423299D02*
G01*
X6677601Y2423299D01*
X6782600Y2631300D02*
G01*
X6677601Y2631300D01*
X6657596Y2609293D02*
G01*
X6657596Y2607302D01*
X6657596Y2611295D02*
G01*
X6657596Y2607302D01*
X6657599Y2443302D02*
G01*
X6657599Y2447297D01*
X7007603Y2611295D02*
G01*
X7007603Y2607302D01*
X7007603Y2443304D02*
G01*
X7007603Y2447300D01*
X3991602Y3317496D02*
G01*
X3831600Y3317496D01*
X3991602Y3667503D02*
G01*
X3831597Y3667500D01*
X3807599Y3442500D02*
G01*
X3807599Y3337501D01*
X4015600Y3442500D02*
G01*
X4015600Y3337501D01*
X3807599Y3542499D02*
G01*
X3807599Y3647498D01*
X4015600Y3542499D02*
G01*
X4015600Y3647498D01*
X3993593Y3667503D02*
G01*
X3991602Y3667503D01*
X3995595Y3667503D02*
G01*
X3991602Y3667503D01*
X3827602Y3667500D02*
G01*
X3831597Y3667500D01*
X3995595Y3317496D02*
G01*
X3991602Y3317496D01*
X3827604Y3317496D02*
G01*
X3831600Y3317496D01*
X6359903Y3496302D02*
G01*
X6359903Y3336300D01*
X6009896Y3496302D02*
G01*
X6009899Y3336297D01*
X6234899Y3312299D02*
G01*
X6339898Y3312299D01*
X6234899Y3520300D02*
G01*
X6339898Y3520300D01*
X6134900Y3312299D02*
G01*
X6029901Y3312299D01*
X6134900Y3520300D02*
G01*
X6029901Y3520300D01*
X6009896Y3498293D02*
G01*
X6009896Y3496302D01*
X6009896Y3500295D02*
G01*
X6009896Y3496302D01*
X6009899Y3332302D02*
G01*
X6009899Y3336297D01*
X6359903Y3500295D02*
G01*
X6359903Y3496302D01*
X6359903Y3332304D02*
G01*
X6359903Y3336300D01*
X7007603Y2835902D02*
G01*
X7007603Y2675900D01*
X6657596Y2835902D02*
G01*
X6657599Y2675897D01*
X6882599Y2651899D02*
G01*
X6987598Y2651899D01*
X6882599Y2859900D02*
G01*
X6987598Y2859900D01*
X6782600Y2651899D02*
G01*
X6677601Y2651899D01*
X6782600Y2859900D02*
G01*
X6677601Y2859900D01*
X6657596Y2837893D02*
G01*
X6657596Y2835902D01*
X6657596Y2839895D02*
G01*
X6657596Y2835902D01*
X6657599Y2671902D02*
G01*
X6657599Y2675897D01*
X7007603Y2839895D02*
G01*
X7007603Y2835902D01*
X7007603Y2671904D02*
G01*
X7007603Y2675900D01*
X6009896Y3577597D02*
G01*
X6009896Y3737599D01*
X6359903Y3577597D02*
G01*
X6359900Y3737602D01*
X6134900Y3761600D02*
G01*
X6029901Y3761600D01*
X6134900Y3553599D02*
G01*
X6029901Y3553599D01*
X6234899Y3761600D02*
G01*
X6339898Y3761600D01*
X6234899Y3553599D02*
G01*
X6339898Y3553599D01*
X6359903Y3575606D02*
G01*
X6359903Y3577597D01*
X6359903Y3573604D02*
G01*
X6359903Y3577597D01*
X6359900Y3741597D02*
G01*
X6359900Y3737602D01*
X6009896Y3573604D02*
G01*
X6009896Y3577597D01*
X6009896Y3741595D02*
G01*
X6009896Y3737599D01*
X4258302Y3317496D02*
G01*
X4098300Y3317496D01*
X4258302Y3667503D02*
G01*
X4098297Y3667500D01*
X4074299Y3442500D02*
G01*
X4074299Y3337501D01*
X4282300Y3442500D02*
G01*
X4282300Y3337501D01*
X4074299Y3542499D02*
G01*
X4074299Y3647498D01*
X4282300Y3542499D02*
G01*
X4282300Y3647498D01*
X4260293Y3667503D02*
G01*
X4258302Y3667503D01*
X4262295Y3667503D02*
G01*
X4258302Y3667503D01*
X4094302Y3667500D02*
G01*
X4098297Y3667500D01*
X4262295Y3317496D02*
G01*
X4258302Y3317496D01*
X4094304Y3317496D02*
G01*
X4098300Y3317496D01*
D42*
X4240326Y2004573D02*
G01*
X4240326Y1844573D01*
X4040327Y1844573D01*
X4040327Y2004573D01*
X4040327Y2084572D02*
G01*
X4040327Y2244572D01*
X4240326Y2244572D01*
X4240326Y2084572D01*
X4240326Y1844573D02*
G01*
X4240326Y1844573D01*
X4210326Y1814573D01*
X4070327Y1814573D01*
X4070327Y1814573D01*
X4040327Y1844573D01*
D10*
X6769100Y4508500D02*
G01*
X6769100Y5524500D01*
X7124700Y5524500D01*
X7124700Y4508500D01*
X6769100Y4508500D01*
X3886200Y6109906D02*
G01*
X3886200Y6783006D01*
X5664200Y6783006D01*
X5664200Y6109906D01*
X5435600Y4192206D02*
G01*
X5664200Y4192206D01*
X5664200Y4268406D01*
X5156200Y6668706D02*
G01*
X5156200Y6351206D01*
X4013200Y6363794D02*
G01*
X4013200Y6693994D01*
X4203700Y6693994D01*
X4203700Y6490794D01*
X4343400Y6490794D01*
X4343400Y6681294D01*
X4521200Y6681294D01*
X4521200Y6490794D01*
X4724400Y6490794D01*
X4724400Y6668594D01*
X5461000Y6668594D01*
X5461000Y6338394D01*
X3886200Y4268406D02*
G01*
X3886200Y4192206D01*
X4114800Y4192206D01*
X3886200Y6236906D02*
G01*
X5664200Y6236906D01*
G75*
G01*
X6029902Y3279000D02*
G03*
X6009897Y3258995I0J-20005D01*
G75*
G01*
X6029902Y3071000D02*
G02*
X6009899Y3091002I0J20002D01*
G75*
G01*
X6339898Y3279000D02*
G02*
X6359903Y3258995I0J-20005D01*
G75*
G01*
X6339898Y3071000D02*
G03*
X6359903Y3091005I0J20005D01*
G75*
G01*
X2580894Y2364740D02*
G03*
X2580640Y2353818I-624934J9069D01*
G75*
G01*
X3939794Y2364740D02*
G03*
X3939540Y2353818I-624934J9069D01*
D13*
G75*
G01*
X6393180Y2637409D02*
G03*
X6393180Y2637663I20000J127D01*
D10*
G75*
G01*
X6677602Y3088500D02*
G03*
X6657597Y3068495I0J-20005D01*
G75*
G01*
X6677602Y2880500D02*
G02*
X6657599Y2900502I0J20002D01*
G75*
G01*
X6987598Y3088500D02*
G02*
X7007603Y3068495I0J-20005D01*
G75*
G01*
X6987598Y2880500D02*
G03*
X7007603Y2900505I0J20005D01*
G75*
G01*
X3299600Y6258502D02*
G03*
X3319605Y6238497I20005J0D01*
G75*
G01*
X3507600Y6258502D02*
G02*
X3487598Y6238499I-20002J0D01*
G75*
G01*
X3299600Y6568498D02*
G02*
X3319605Y6588503I20005J0D01*
G75*
G01*
X3507600Y6568498D02*
G03*
X3487595Y6588503I-20005J0D01*
G75*
G01*
X4506100Y7655502D02*
G03*
X4526105Y7635497I20005J0D01*
G75*
G01*
X4714100Y7655502D02*
G02*
X4694098Y7635499I-20002J0D01*
G75*
G01*
X4506100Y7965498D02*
G02*
X4526105Y7985503I20005J0D01*
G75*
G01*
X4714100Y7965498D02*
G03*
X4694095Y7985503I-20005J0D01*
G75*
G01*
X1793100Y8003598D02*
G03*
X1773095Y8023603I-20005J0D01*
G75*
G01*
X1585100Y8003598D02*
G02*
X1605102Y8023601I20002J0D01*
G75*
G01*
X1793100Y7693602D02*
G02*
X1773095Y7673597I-20005J0D01*
G75*
G01*
X1585100Y7693602D02*
G03*
X1605105Y7673597I20005J0D01*
G75*
G01*
X3228200Y6568498D02*
G03*
X3208195Y6588503I-20005J0D01*
G75*
G01*
X3020200Y6568498D02*
G02*
X3040202Y6588501I20002J0D01*
G75*
G01*
X3228200Y6258502D02*
G02*
X3208195Y6238497I-20005J0D01*
G75*
G01*
X3020200Y6258502D02*
G03*
X3040205Y6238497I20005J0D01*
D43*
G75*
G01*
X5474716Y2956306D02*
G03*
X5474716Y2956052I-20066J-127D01*
D10*
G75*
G01*
X6677602Y2631300D02*
G03*
X6657597Y2611295I0J-20005D01*
G75*
G01*
X6677602Y2423300D02*
G02*
X6657599Y2443302I0J20002D01*
G75*
G01*
X6987598Y2631300D02*
G02*
X7007603Y2611295I0J-20005D01*
G75*
G01*
X6987598Y2423300D02*
G03*
X7007603Y2443305I0J20005D01*
G75*
G01*
X4015600Y3647498D02*
G03*
X3995595Y3667503I-20005J0D01*
G75*
G01*
X3807600Y3647498D02*
G02*
X3827602Y3667501I20002J0D01*
G75*
G01*
X4015600Y3337502D02*
G02*
X3995595Y3317497I-20005J0D01*
G75*
G01*
X3807600Y3337502D02*
G03*
X3827605Y3317497I20005J0D01*
G75*
G01*
X6029902Y3520300D02*
G03*
X6009897Y3500295I0J-20005D01*
G75*
G01*
X6029902Y3312300D02*
G02*
X6009899Y3332302I0J20002D01*
G75*
G01*
X6339898Y3520300D02*
G02*
X6359903Y3500295I0J-20005D01*
G75*
G01*
X6339898Y3312300D02*
G03*
X6359903Y3332305I0J20005D01*
G75*
G01*
X6677602Y2859900D02*
G03*
X6657597Y2839895I0J-20005D01*
G75*
G01*
X6677602Y2651900D02*
G02*
X6657599Y2671902I0J20002D01*
G75*
G01*
X6987598Y2859900D02*
G02*
X7007603Y2839895I0J-20005D01*
G75*
G01*
X6987598Y2651900D02*
G03*
X7007603Y2671905I0J20005D01*
G75*
G01*
X6339898Y3553600D02*
G03*
X6359903Y3573605I0J20005D01*
G75*
G01*
X6339898Y3761600D02*
G02*
X6359901Y3741598I0J-20002D01*
G75*
G01*
X6029902Y3553600D02*
G02*
X6009897Y3573605I0J20005D01*
G75*
G01*
X6029902Y3761600D02*
G03*
X6009897Y3741595I0J-20005D01*
G75*
G01*
X4282300Y3647498D02*
G03*
X4262295Y3667503I-20005J0D01*
G75*
G01*
X4074300Y3647498D02*
G02*
X4094302Y3667501I20002J0D01*
G75*
G01*
X4282300Y3337502D02*
G02*
X4262295Y3317497I-20005J0D01*
G75*
G01*
X4074300Y3337502D02*
G03*
X4094305Y3317497I20005J0D01*
G75*
G01
X4089425Y7594600D02*
G03X4089425Y7594600I-38100J0D01*
G75*
G01
X3657625Y7594600D02*
G03X3657625Y7594600I-38100J0D01*
G75*
G01
X4076725Y8013700D02*
G03X4076725Y8013700I-38100J0D01*
G75*
G01
X3670325Y8013700D02*
G03X3670325Y8013700I-38100J0D01*
G75*
G01
X4013225Y7810500D02*
G03X4013225Y7810500I-177800J0D01*
G75*
G01
X3962425Y7810500D02*
G03X3962425Y7810500I-127000J0D01*
G75*
G01
X2387575Y8039125D02*
G03X2387575Y8039125I-38100J0D01*
G75*
G01
X2819375Y8039125D02*
G03X2819375Y8039125I-38100J0D01*
G75*
G01
X2400275Y7620025D02*
G03X2400275Y7620025I-38100J0D01*
G75*
G01
X2806675Y7620025D02*
G03X2806675Y7620025I-38100J0D01*
G75*
G01
X2743175Y7823225D02*
G03X2743175Y7823225I-177800J0D01*
G75*
G01
X2692375Y7823225D02*
G03X2692375Y7823225I-127000J0D01*
M02*
