G04 Layer: BottomSolderMaskLayer*
G04 EasyEDA v6.4.19.3, 2021-04-15T18:17:59+02:00*
G04 27ca5f04d03341a3abaed076034c1fd4,b26f2b340a5143eda07d108a38fc4859,10*
G04 Gerber Generator version 0.2*
G04 Scale: 100 percent, Rotated: No, Reflected: No *
G04 Dimensions in millimeters *
G04 leading zeros omitted , absolute positions ,4 integer and 5 decimal *
%FSLAX45Y45*%
%MOMM*%

%ADD45C,1.6027*%
%ADD48C,2.2032*%
%ADD50C,1.7780*%
%ADD51R,1.7780X1.7780*%
%ADD54C,1.9032*%
%ADD55C,2.4032*%

%LPD*%
D45*
X7002906Y4635500D02*
G01*
X6890893Y4635500D01*
X7002906Y4889500D02*
G01*
X6890893Y4889500D01*
X7002906Y5143500D02*
G01*
X6890893Y5143500D01*
X7002906Y5397500D02*
G01*
X6890893Y5397500D01*
D48*
G01*
X1943100Y6032500D03*
G01*
X1435100Y5905500D03*
G01*
X1943100Y5778500D03*
G01*
X1435100Y5651500D03*
G01*
X1943100Y5524500D03*
G01*
X1435100Y5397500D03*
G01*
X1943100Y5270500D03*
G01*
X1435100Y5143500D03*
G01*
X1943100Y5016500D03*
G01*
X1435100Y4889500D03*
G01*
X1943100Y4762500D03*
G01*
X1435100Y4635500D03*
G01*
X1943100Y4508500D03*
G01*
X1435100Y4381500D03*
G36*
X1852929Y4144263D02*
G01*
X1852929Y4364736D01*
X2033270Y4364736D01*
X2033270Y4144263D01*
G37*
D50*
G01*
X2209800Y3302000D03*
G01*
X1955800Y3302000D03*
G01*
X1701800Y3302000D03*
G01*
X1447800Y3302000D03*
G01*
X1193800Y3302000D03*
G36*
X850900Y3213100D02*
G01*
X850900Y3390900D01*
X1028700Y3390900D01*
X1028700Y3213100D01*
G37*
G01*
X2197100Y7124700D03*
G01*
X1943100Y7124700D03*
G01*
X1689100Y7124700D03*
G01*
X1435100Y7124700D03*
G01*
X1181100Y7124700D03*
G36*
X838200Y7035800D02*
G01*
X838200Y7213600D01*
X1016000Y7213600D01*
X1016000Y7035800D01*
G37*
D51*
G01*
X6223000Y4140200D03*
D50*
G01*
X6223000Y4394200D03*
G01*
X6223000Y4648200D03*
G01*
X6223000Y4902200D03*
G01*
X6223000Y5156200D03*
G01*
X6223000Y5410200D03*
G01*
X6223000Y5664200D03*
G01*
X6223000Y5918200D03*
G36*
X889000Y2762250D02*
G01*
X889000Y2952750D01*
X1066800Y2952750D01*
X1066800Y2762250D01*
G37*
D54*
G01*
X977900Y2603500D03*
D50*
G01*
X6718300Y6286500D03*
G01*
X6718300Y6540500D03*
G01*
X6718300Y6794500D03*
G01*
X6718300Y7048500D03*
G36*
X6629400Y7213600D02*
G01*
X6629400Y7391400D01*
X6807200Y7391400D01*
X6807200Y7213600D01*
G37*
D55*
G01*
X1955800Y2616200D03*
G01*
X1955800Y2108200D03*
G01*
X3314700Y2616200D03*
G01*
X3314700Y2108200D03*
G36*
X6146800Y7772400D02*
G01*
X6146800Y7950200D01*
X6324600Y7950200D01*
X6324600Y7772400D01*
G37*
D50*
G01*
X5981700Y7861300D03*
G01*
X5727700Y7861300D03*
G01*
X5473700Y7861300D03*
M02*
